NotoSansGurmukhi-SemiBold.ufo
<glyph name="quotedbl.guru" format="2">
  <advance width="546"/>
  <unicode hex="0022"/>
  <outline>
    <contour>
      <point x="122" y="472" type="line"/>
      <point x="218" y="472" type="line"/>
      <point x="238" y="729" type="line"/>
      <point x="102" y="729" type="line"/>
    </contour>
    <contour>
      <point x="328" y="472" type="line"/>
      <point x="424" y="472" type="line"/>
      <point x="444" y="729" type="line"/>
      <point x="308" y="729" type="line"/>
    </contour>
  </outline>
</glyph>
<glyph name="quotesingle.guru" format="2">
  <advance width="340"/>
  <unicode hex="0027"/>
  <outline>
    <contour>
      <point x="122" y="471" type="line"/>
      <point x="218" y="471" type="line"/>
      <point x="238" y="729" type="line"/>
      <point x="102" y="729" type="line"/>
    </contour>
  </outline>
</glyph>
<glyph name="asterisk.guru" format="2">
  <advance width="607"/>
  <unicode hex="002A"/>
  <outline>
    <contour>
      <point x="120" y="336" type="line"/>
      <point x="235" y="278" type="line"/>
      <point x="302" y="430" type="line"/>
      <point x="378" y="277" type="line"/>
      <point x="489" y="336" type="line"/>
      <point x="380" y="481" type="line"/>
      <point x="546" y="493" type="line"/>
      <point x="530" y="616" type="line"/>
      <point x="348" y="565" type="line"/>
      <point x="368" y="745" type="line"/>
      <point x="240" y="745" type="line"/>
      <point x="260" y="565" type="line"/>
      <point x="81" y="616" type="line"/>
      <point x="62" y="494" type="line"/>
      <point x="227" y="481" type="line"/>
    </contour>
  </outline>
</glyph>
<glyph name="plus.guru" format="2">
  <advance width="583"/>
  <unicode hex="002B"/>
  <outline>
    <contour>
      <point x="238" y="270" type="line"/>
      <point x="238" y="92" type="line"/>
      <point x="345" y="92" type="line"/>
      <point x="345" y="270" type="line"/>
      <point x="524" y="270" type="line"/>
      <point x="524" y="376" type="line"/>
      <point x="345" y="376" type="line"/>
      <point x="345" y="557" type="line"/>
      <point x="238" y="557" type="line"/>
      <point x="238" y="376" type="line"/>
      <point x="59" y="376" type="line"/>
      <point x="59" y="270" type="line"/>
    </contour>
  </outline>
</glyph>
<glyph name="comma.guru" format="2">
  <advance width="290"/>
  <unicode hex="002C"/>
  <outline>
    <contour>
      <point x="34" y="-119" type="curve"/>
      <point x="141" y="-119" type="line"/>
      <point x="174" y="-42"/>
      <point x="209" y="53"/>
      <point x="227" y="129" type="curve"/>
      <point x="220" y="141" type="line"/>
      <point x="83" y="141" type="line"/>
      <point x="74" y="67"/>
      <point x="54" y="-35"/>
    </contour>
  </outline>
</glyph>
<glyph name="hyphen.guru" format="2">
  <advance width="366"/>
  <unicode hex="002D"/>
  <outline>
    <contour>
      <point x="52" y="358" type="line"/>
      <point x="52" y="236" type="line"/>
      <point x="314" y="236" type="line"/>
      <point x="314" y="358" type="line"/>
    </contour>
  </outline>
</glyph>
<glyph name="slash.guru" format="2">
  <advance width="472"/>
  <unicode hex="002F"/>
  <outline>
    <contour>
      <point x="309" y="833" type="line"/>
      <point x="35" y="-166" type="line"/>
      <point x="163" y="-166" type="line"/>
      <point x="437" y="833" type="line"/>
    </contour>
  </outline>
</glyph>
<glyph name="one.guru" format="2">
  <advance width="551"/>
  <unicode hex="0031"/>
  <outline>
    <contour>
      <point x="248" y="0" type="line"/>
      <point x="399" y="0" type="line"/>
      <point x="399" y="714" type="line"/>
      <point x="275" y="714" type="line"/>
      <point x="45" y="531" type="line"/>
      <point x="118" y="440" type="line"/>
      <point x="200" y="506" type="line" smooth="yes"/>
      <point x="219" y="521"/>
      <point x="246" y="547"/>
      <point x="252" y="555" type="curve"/>
      <point x="251" y="512"/>
      <point x="248" y="447"/>
      <point x="248" y="413" type="curve" smooth="yes"/>
    </contour>
  </outline>
</glyph>
<glyph name="four.guru" format="2">
  <advance width="551"/>
  <unicode hex="0034"/>
  <outline>
    <contour>
      <point x="297" y="148" type="line"/>
      <point x="297" y="0" type="line"/>
      <point x="444" y="0" type="line"/>
      <point x="444" y="148" type="line"/>
      <point x="530" y="148" type="line"/>
      <point x="530" y="265" type="line"/>
      <point x="444" y="265" type="line"/>
      <point x="444" y="714" type="line"/>
      <point x="305" y="714" type="line"/>
      <point x="2" y="253" type="line"/>
      <point x="2" y="148" type="line"/>
    </contour>
    <contour>
      <point x="297" y="265" type="line"/>
      <point x="135" y="265" type="line"/>
      <point x="254" y="446" type="line" smooth="yes"/>
      <point x="275" y="478"/>
      <point x="289" y="508"/>
      <point x="299" y="535" type="curve"/>
      <point x="303" y="535" type="line"/>
      <point x="301" y="514"/>
      <point x="297" y="446"/>
      <point x="297" y="386" type="curve" smooth="yes"/>
    </contour>
  </outline>
</glyph>
<glyph name="six.guru" format="2">
  <advance width="551"/>
  <unicode hex="0036"/>
  <outline>
    <contour>
      <point x="290" y="-10" type="curve" smooth="yes"/>
      <point x="433" y="-10"/>
      <point x="523" y="83"/>
      <point x="523" y="238" type="curve" smooth="yes"/>
      <point x="523" y="382"/>
      <point x="448" y="464"/>
      <point x="324" y="464" type="curve" smooth="yes"/>
      <point x="247" y="464"/>
      <point x="200" y="428"/>
      <point x="174" y="381" type="curve"/>
      <point x="168" y="381" type="line"/>
      <point x="174" y="513"/>
      <point x="216" y="604"/>
      <point x="392" y="604" type="curve" smooth="yes"/>
      <point x="420" y="604"/>
      <point x="448" y="600"/>
      <point x="473" y="594" type="curve"/>
      <point x="473" y="715" type="line"/>
      <point x="448" y="720"/>
      <point x="408" y="722"/>
      <point x="381" y="722" type="curve" smooth="yes"/>
      <point x="98" y="722"/>
      <point x="39" y="508"/>
      <point x="39" y="303" type="curve" smooth="yes"/>
      <point x="39" y="89"/>
      <point x="149" y="-10"/>
    </contour>
    <contour>
      <point x="287" y="111" type="curve" smooth="yes"/>
      <point x="222" y="111"/>
      <point x="189" y="183"/>
      <point x="189" y="249" type="curve" smooth="yes"/>
      <point x="189" y="297"/>
      <point x="229" y="348"/>
      <point x="289" y="348" type="curve" smooth="yes"/>
      <point x="348" y="348"/>
      <point x="377" y="306"/>
      <point x="377" y="236" type="curve" smooth="yes"/>
      <point x="377" y="150"/>
      <point x="340" y="111"/>
    </contour>
  </outline>
</glyph>
<glyph name="seven.guru" format="2">
  <advance width="551"/>
  <unicode hex="0037"/>
  <outline>
    <contour>
      <point x="355" y="586" type="line"/>
      <point x="101" y="0" type="line"/>
      <point x="259" y="0" type="line"/>
      <point x="519" y="618" type="line"/>
      <point x="519" y="713" type="line"/>
      <point x="27" y="713" type="line"/>
      <point x="27" y="586" type="line"/>
    </contour>
  </outline>
</glyph>
<glyph name="nine.guru" format="2">
  <advance width="551"/>
  <unicode hex="0039"/>
  <outline>
    <contour>
      <point x="171" y="-10" type="curve" smooth="yes"/>
      <point x="455" y="-10"/>
      <point x="513" y="204"/>
      <point x="513" y="409" type="curve" smooth="yes"/>
      <point x="513" y="623"/>
      <point x="403" y="722"/>
      <point x="262" y="722" type="curve" smooth="yes"/>
      <point x="119" y="722"/>
      <point x="29" y="628"/>
      <point x="29" y="474" type="curve" smooth="yes"/>
      <point x="29" y="330"/>
      <point x="104" y="248"/>
      <point x="228" y="248" type="curve" smooth="yes"/>
      <point x="305" y="248"/>
      <point x="352" y="284"/>
      <point x="378" y="331" type="curve"/>
      <point x="384" y="331" type="line"/>
      <point x="378" y="200"/>
      <point x="337" y="108"/>
      <point x="160" y="108" type="curve" smooth="yes"/>
      <point x="132" y="108"/>
      <point x="103" y="112"/>
      <point x="79" y="118" type="curve"/>
      <point x="79" y="-3" type="line"/>
      <point x="103" y="-8"/>
      <point x="144" y="-10"/>
    </contour>
    <contour>
      <point x="263" y="364" type="curve" smooth="yes"/>
      <point x="204" y="364"/>
      <point x="175" y="407"/>
      <point x="175" y="476" type="curve" smooth="yes"/>
      <point x="175" y="563"/>
      <point x="212" y="601"/>
      <point x="265" y="601" type="curve" smooth="yes"/>
      <point x="330" y="601"/>
      <point x="363" y="529"/>
      <point x="363" y="463" type="curve" smooth="yes"/>
      <point x="363" y="415"/>
      <point x="324" y="364"/>
    </contour>
  </outline>
</glyph>
<glyph name="less.guru" format="2">
  <advance width="583"/>
  <unicode hex="003C"/>
  <outline>
    <contour>
      <point x="59" y="284" type="line"/>
      <point x="524" y="70" type="line"/>
      <point x="524" y="187" type="line"/>
      <point x="210" y="324" type="line"/>
      <point x="524" y="479" type="line"/>
      <point x="524" y="596" type="line"/>
      <point x="59" y="354" type="line"/>
    </contour>
  </outline>
</glyph>
<glyph name="equal.guru" format="2">
  <advance width="583"/>
  <unicode hex="003D"/>
  <outline>
    <contour>
      <point x="59" y="471" type="line"/>
      <point x="59" y="365" type="line"/>
      <point x="523" y="365" type="line"/>
      <point x="523" y="471" type="line"/>
    </contour>
    <contour>
      <point x="59" y="282" type="line"/>
      <point x="59" y="175" type="line"/>
      <point x="523" y="175" type="line"/>
      <point x="523" y="282" type="line"/>
    </contour>
  </outline>
</glyph>
<glyph name="greater.guru" format="2">
  <advance width="583"/>
  <unicode hex="003E"/>
  <outline>
    <contour>
      <point x="59" y="187" type="line"/>
      <point x="59" y="70" type="line"/>
      <point x="523" y="284" type="line"/>
      <point x="523" y="354" type="line"/>
      <point x="59" y="596" type="line"/>
      <point x="59" y="479" type="line"/>
      <point x="373" y="324" type="line"/>
    </contour>
  </outline>
</glyph>
<glyph name="bracketleft.guru" format="2">
  <advance width="390"/>
  <unicode hex="005B"/>
  <outline>
    <contour>
      <point x="104" y="832" type="line"/>
      <point x="104" y="-166" type="line"/>
      <point x="341" y="-166" type="line"/>
      <point x="341" y="-63" type="line"/>
      <point x="231" y="-63" type="line"/>
      <point x="231" y="729" type="line"/>
      <point x="341" y="729" type="line"/>
      <point x="341" y="832" type="line"/>
    </contour>
  </outline>
</glyph>
<glyph name="bracketright.guru" format="2">
  <advance width="390"/>
  <unicode hex="005D"/>
  <outline>
    <contour>
      <point x="49" y="-63" type="line"/>
      <point x="49" y="-166" type="line"/>
      <point x="285" y="-166" type="line"/>
      <point x="285" y="832" type="line"/>
      <point x="49" y="832" type="line"/>
      <point x="49" y="729" type="line"/>
      <point x="158" y="729" type="line"/>
      <point x="158" y="-63" type="line"/>
    </contour>
  </outline>
</glyph>
<glyph name="bar.guru" format="2">
  <advance width="540"/>
  <unicode hex="007C"/>
  <outline>
    <contour>
      <point x="216" y="832" type="line"/>
      <point x="216" y="-166" type="line"/>
      <point x="323" y="-166" type="line"/>
      <point x="323" y="832" type="line"/>
    </contour>
  </outline>
</glyph>
<glyph name="braceright.guru" format="2">
  <advance width="426"/>
  <unicode hex="007D"/>
  <outline>
    <contour>
      <point x="388" y="275" type="curve"/>
      <point x="388" y="392" type="line"/>
      <point x="306" y="392"/>
      <point x="260" y="420"/>
      <point x="260" y="494" type="curve" smooth="yes"/>
      <point x="260" y="673" type="line" smooth="yes"/>
      <point x="260" y="785"/>
      <point x="220" y="832"/>
      <point x="49" y="832" type="curve"/>
      <point x="49" y="721" type="line"/>
      <point x="102" y="720"/>
      <point x="133" y="705"/>
      <point x="133" y="639" type="curve" smooth="yes"/>
      <point x="133" y="465" type="line" smooth="yes"/>
      <point x="133" y="392"/>
      <point x="173" y="349"/>
      <point x="248" y="336" type="curve"/>
      <point x="248" y="330" type="line"/>
      <point x="174" y="316"/>
      <point x="133" y="273"/>
      <point x="133" y="201" type="curve" smooth="yes"/>
      <point x="133" y="26" type="line" smooth="yes"/>
      <point x="133" y="-40"/>
      <point x="102" y="-54"/>
      <point x="49" y="-56" type="curve"/>
      <point x="49" y="-166" type="line"/>
      <point x="220" y="-166"/>
      <point x="260" y="-119"/>
      <point x="260" y="-7" type="curve" smooth="yes"/>
      <point x="260" y="174" type="line" smooth="yes"/>
      <point x="260" y="247"/>
      <point x="307" y="275"/>
    </contour>
  </outline>
</glyph>
<glyph name="asciitilde.guru" format="2">
  <advance width="583"/>
  <unicode hex="007E"/>
  <outline>
    <contour>
      <point x="59" y="353" type="curve"/>
      <point x="59" y="240" type="line"/>
      <point x="93" y="272"/>
      <point x="135" y="299"/>
      <point x="173" y="299" type="curve" smooth="yes"/>
      <point x="203" y="299"/>
      <point x="225" y="292"/>
      <point x="274" y="271" type="curve" smooth="yes"/>
      <point x="336" y="245"/>
      <point x="360" y="241"/>
      <point x="399" y="241" type="curve" smooth="yes"/>
      <point x="449" y="241"/>
      <point x="491" y="258"/>
      <point x="524" y="294" type="curve"/>
      <point x="524" y="407" type="line"/>
      <point x="491" y="374"/>
      <point x="449" y="348"/>
      <point x="410" y="348" type="curve" smooth="yes"/>
      <point x="381" y="348"/>
      <point x="358" y="354"/>
      <point x="309" y="375" type="curve" smooth="yes"/>
      <point x="248" y="401"/>
      <point x="223" y="406"/>
      <point x="184" y="406" type="curve" smooth="yes"/>
      <point x="133" y="406"/>
      <point x="92" y="388"/>
    </contour>
  </outline>
</glyph>
<glyph name="multiply.guru" format="2">
  <advance width="583"/>
  <unicode hex="00D7"/>
  <outline>
    <contour>
      <point x="290" y="249" type="line"/>
      <point x="438" y="102" type="line"/>
      <point x="512" y="176" type="line"/>
      <point x="365" y="324" type="line"/>
      <point x="514" y="473" type="line"/>
      <point x="438" y="546" type="line"/>
      <point x="290" y="400" type="line"/>
      <point x="143" y="546" type="line"/>
      <point x="69" y="471" type="line"/>
      <point x="215" y="324" type="line"/>
      <point x="70" y="177" type="line"/>
      <point x="143" y="103" type="line"/>
    </contour>
  </outline>
</glyph>
<glyph name="divide.guru" format="2">
  <advance width="583"/>
  <unicode hex="00F7"/>
  <outline>
    <contour>
      <point x="59" y="376" type="line"/>
      <point x="59" y="270" type="line"/>
      <point x="524" y="270" type="line"/>
      <point x="524" y="376" type="line"/>
    </contour>
    <contour>
      <point x="291" y="79" type="curve" smooth="yes"/>
      <point x="327" y="79"/>
      <point x="359" y="100"/>
      <point x="359" y="153" type="curve" smooth="yes"/>
      <point x="359" y="208"/>
      <point x="327" y="227"/>
      <point x="291" y="227" type="curve" smooth="yes"/>
      <point x="254" y="227"/>
      <point x="223" y="208"/>
      <point x="223" y="153" type="curve" smooth="yes"/>
      <point x="223" y="100"/>
      <point x="254" y="79"/>
    </contour>
    <contour>
      <point x="291" y="420" type="curve" smooth="yes"/>
      <point x="327" y="420"/>
      <point x="359" y="441"/>
      <point x="359" y="494" type="curve" smooth="yes"/>
      <point x="359" y="548"/>
      <point x="327" y="568"/>
      <point x="291" y="568" type="curve" smooth="yes"/>
      <point x="254" y="568"/>
      <point x="223" y="548"/>
      <point x="223" y="494" type="curve" smooth="yes"/>
      <point x="223" y="441"/>
      <point x="254" y="420"/>
    </contour>
  </outline>
</glyph>
<glyph name="uni0951" format="2">
  <unicode hex="0951"/>
  <outline>
    <contour>
      <point x="-197" y="671" type="line"/>
      <point x="-97" y="671" type="line"/>
      <point x="-97" y="892" type="line"/>
      <point x="-197" y="892" type="line"/>
    </contour>
  </outline>
</glyph>
<glyph name="uni0952" format="2">
  <unicode hex="0952"/>
  <outline>
    <contour>
      <point x="-467" y="-158" type="line"/>
      <point x="-55" y="-158" type="line"/>
      <point x="-55" y="-67" type="line"/>
      <point x="-467" y="-67" type="line"/>
    </contour>
  </outline>
</glyph>
<glyph name="adakbindiguru" format="2">
  <unicode hex="0A01"/>
  <outline>
    <contour>
      <point x="-146" y="661" type="curve" smooth="yes"/>
      <point x="1" y="661"/>
      <point x="60" y="749"/>
      <point x="74" y="858" type="curve"/>
      <point x="-37" y="875" type="line"/>
      <point x="-51" y="789"/>
      <point x="-85" y="755"/>
      <point x="-147" y="755" type="curve" smooth="yes"/>
      <point x="-212" y="755"/>
      <point x="-243" y="791"/>
      <point x="-256" y="875" type="curve"/>
      <point x="-368" y="858" type="line"/>
      <point x="-354" y="749"/>
      <point x="-296" y="661"/>
    </contour>
    <contour>
      <point x="-147" y="785" type="curve" smooth="yes"/>
      <point x="-108" y="785"/>
      <point x="-85" y="809"/>
      <point x="-85" y="841" type="curve" smooth="yes"/>
      <point x="-85" y="873"/>
      <point x="-108" y="896"/>
      <point x="-147" y="896" type="curve" smooth="yes"/>
      <point x="-185" y="896"/>
      <point x="-210" y="873"/>
      <point x="-210" y="841" type="curve" smooth="yes"/>
      <point x="-210" y="809"/>
      <point x="-188" y="785"/>
    </contour>
  </outline>
</glyph>
<glyph name="bindiguru" format="2">
  <unicode hex="0A02"/>
  <outline>
    <contour>
      <point x="-147" y="704" type="curve" smooth="yes"/>
      <point x="-98" y="704"/>
      <point x="-69" y="732"/>
      <point x="-69" y="776" type="curve" smooth="yes"/>
      <point x="-69" y="819"/>
      <point x="-98" y="848"/>
      <point x="-147" y="848" type="curve" smooth="yes"/>
      <point x="-197" y="848"/>
      <point x="-226" y="819"/>
      <point x="-226" y="776" type="curve" smooth="yes"/>
      <point x="-226" y="732"/>
      <point x="-197" y="704"/>
    </contour>
  </outline>
</glyph>
<glyph name="visargaguru" format="2">
  <advance width="445"/>
  <unicode hex="0A03"/>
  <outline>
    <contour>
      <point x="223" y="336" type="curve" smooth="yes"/>
      <point x="325" y="336"/>
      <point x="392" y="389"/>
      <point x="392" y="479" type="curve" smooth="yes"/>
      <point x="392" y="567"/>
      <point x="325" y="622"/>
      <point x="223" y="622" type="curve" smooth="yes"/>
      <point x="120" y="622"/>
      <point x="54" y="564"/>
      <point x="54" y="479" type="curve" smooth="yes"/>
      <point x="54" y="391"/>
      <point x="120" y="336"/>
    </contour>
    <contour>
      <point x="223" y="430" type="curve" smooth="yes"/>
      <point x="188" y="430"/>
      <point x="169" y="451"/>
      <point x="169" y="479" type="curve" smooth="yes"/>
      <point x="169" y="507"/>
      <point x="188" y="528"/>
      <point x="223" y="528" type="curve" smooth="yes"/>
      <point x="257" y="528"/>
      <point x="277" y="507"/>
      <point x="277" y="479" type="curve" smooth="yes"/>
      <point x="277" y="452"/>
      <point x="257" y="430"/>
    </contour>
    <contour>
      <point x="223" y="0" type="curve" smooth="yes"/>
      <point x="325" y="0"/>
      <point x="392" y="53"/>
      <point x="392" y="143" type="curve" smooth="yes"/>
      <point x="392" y="231"/>
      <point x="325" y="286"/>
      <point x="223" y="286" type="curve" smooth="yes"/>
      <point x="120" y="286"/>
      <point x="54" y="228"/>
      <point x="54" y="143" type="curve" smooth="yes"/>
      <point x="54" y="55"/>
      <point x="120" y="0"/>
    </contour>
    <contour>
      <point x="223" y="94" type="curve" smooth="yes"/>
      <point x="188" y="94"/>
      <point x="169" y="115"/>
      <point x="169" y="143" type="curve" smooth="yes"/>
      <point x="169" y="170"/>
      <point x="188" y="192"/>
      <point x="223" y="192" type="curve" smooth="yes"/>
      <point x="257" y="192"/>
      <point x="277" y="170"/>
      <point x="277" y="143" type="curve" smooth="yes"/>
      <point x="277" y="115"/>
      <point x="257" y="94"/>
    </contour>
  </outline>
</glyph>
<glyph name="aguru" format="2">
  <advance width="820"/>
  <unicode hex="0A05"/>
  <outline>
    <contour>
      <point x="606" y="0" type="line"/>
      <point x="740" y="0" type="line"/>
      <point x="740" y="512" type="line"/>
      <point x="828" y="512" type="line"/>
      <point x="828" y="622" type="line"/>
      <point x="606" y="622" type="line"/>
      <point x="606" y="406" type="line"/>
      <point x="616" y="437" type="line"/>
      <point x="550" y="419"/>
      <point x="476" y="381"/>
      <point x="431" y="338" type="curve"/>
      <point x="485" y="363" type="line"/>
      <point x="485" y="415"/>
      <point x="456" y="526"/>
      <point x="432" y="563" type="curve"/>
      <point x="336" y="546"/>
      <point x="232" y="490"/>
      <point x="180" y="442" type="curve"/>
      <point x="231" y="455" type="line"/>
      <point x="231" y="510"/>
      <point x="211" y="586"/>
      <point x="195" y="622" type="curve"/>
      <point x="-7" y="622" type="line"/>
      <point x="-7" y="512" type="line"/>
      <point x="123" y="512" type="line"/>
      <point x="81" y="551" type="line"/>
      <point x="94" y="533"/>
      <point x="113" y="485"/>
      <point x="115" y="412" type="curve"/>
      <point x="78" y="372"/>
      <point x="50" y="325"/>
      <point x="50" y="275" type="curve" smooth="yes"/>
      <point x="50" y="218"/>
      <point x="86" y="195"/>
      <point x="128" y="195" type="curve" smooth="yes"/>
      <point x="207" y="195"/>
      <point x="238" y="264"/>
      <point x="239" y="378" type="curve"/>
      <point x="227" y="362" type="line"/>
      <point x="260" y="385"/>
      <point x="318" y="418"/>
      <point x="357" y="428" type="curve"/>
      <point x="341" y="429" type="line"/>
      <point x="352" y="420"/>
      <point x="369" y="354"/>
      <point x="370" y="307" type="curve"/>
      <point x="324" y="261"/>
      <point x="306" y="206"/>
      <point x="306" y="175" type="curve" smooth="yes"/>
      <point x="306" y="114"/>
      <point x="342" y="91"/>
      <point x="384" y="91" type="curve" smooth="yes"/>
      <point x="457" y="91"/>
      <point x="493" y="154"/>
      <point x="495" y="276" type="curve"/>
      <point x="482" y="259" type="line"/>
      <point x="523" y="287"/>
      <point x="573" y="307"/>
      <point x="616" y="318" type="curve"/>
      <point x="606" y="352" type="line"/>
    </contour>
  </outline>
</glyph>
<glyph name="aaguru" format="2">
  <advance width="1079"/>
  <unicode hex="0A06"/>
  <outline>
    <contour>
      <point x="879" y="242" type="line"/>
      <point x="1013" y="242" type="line"/>
      <point x="1013" y="512" type="line"/>
      <point x="1086" y="512" type="line"/>
      <point x="1086" y="622" type="line"/>
      <point x="813" y="622" type="line"/>
      <point x="813" y="512" type="line"/>
      <point x="879" y="512" type="line"/>
    </contour>
    <component base="aguru"/>
  </outline>
</glyph>
<glyph name="ooguru" format="2">
  <advance width="708"/>
  <unicode hex="0A13"/>
  <outline>
    <contour>
      <point x="389" y="0" type="curve" smooth="yes"/>
      <point x="541" y="0"/>
      <point x="618" y="66"/>
      <point x="618" y="175" type="curve" smooth="yes"/>
      <point x="618" y="232"/>
      <point x="586" y="313"/>
      <point x="457" y="338" type="curve"/>
      <point x="453" y="298" type="line"/>
      <point x="586" y="324"/>
      <point x="684" y="399"/>
      <point x="684" y="570" type="curve"/>
      <point x="684" y="601" type="line"/>
      <point x="549" y="591" type="line"/>
      <point x="549" y="549" type="line"/>
      <point x="549" y="484"/>
      <point x="533" y="434"/>
      <point x="475" y="406" type="curve" smooth="yes"/>
      <point x="440" y="389"/>
      <point x="401" y="381"/>
      <point x="315" y="381" type="curve" smooth="yes"/>
      <point x="148" y="381" type="line"/>
      <point x="158" y="271" type="line"/>
      <point x="288" y="271" type="line" smooth="yes"/>
      <point x="390" y="271"/>
      <point x="416" y="264"/>
      <point x="444" y="249" type="curve" smooth="yes"/>
      <point x="468" y="236"/>
      <point x="482" y="214"/>
      <point x="482" y="187" type="curve" smooth="yes"/>
      <point x="482" y="136"/>
      <point x="449" y="110"/>
      <point x="373" y="110" type="curve" smooth="yes"/>
      <point x="276" y="110"/>
      <point x="191" y="167"/>
      <point x="191" y="408" type="curve" smooth="yes"/>
      <point x="191" y="555"/>
      <point x="202" y="629"/>
      <point x="250" y="678" type="curve" smooth="yes"/>
      <point x="310" y="739"/>
      <point x="402" y="739"/>
      <point x="508" y="739" type="curve" smooth="yes"/>
      <point x="618" y="739" type="line"/>
      <point x="625" y="849" type="line"/>
      <point x="511" y="849" type="line" smooth="yes"/>
      <point x="320" y="849"/>
      <point x="255" y="829"/>
      <point x="189" y="783" type="curve" smooth="yes"/>
      <point x="98" y="719"/>
      <point x="57" y="605"/>
      <point x="57" y="421" type="curve" smooth="yes"/>
      <point x="57" y="127"/>
      <point x="179" y="0"/>
    </contour>
    <contour>
      <point x="-7" y="512" type="line"/>
      <point x="735" y="512" type="line"/>
      <point x="735" y="622" type="line"/>
      <point x="-7" y="622" type="line"/>
    </contour>
  </outline>
</glyph>
<glyph name="kaguru" format="2">
  <advance width="658"/>
  <unicode hex="0A15"/>
  <outline>
    <contour>
      <point x="482" y="0" type="curve"/>
      <point x="617" y="0" type="line"/>
      <point x="605" y="101"/>
      <point x="580" y="220"/>
      <point x="509" y="305" type="curve"/>
      <point x="495" y="319" type="line"/>
      <point x="429" y="396"/>
      <point x="357" y="436"/>
      <point x="244" y="436" type="curve" smooth="yes"/>
      <point x="122" y="436"/>
      <point x="29" y="369"/>
      <point x="29" y="249" type="curve" smooth="yes"/>
      <point x="29" y="131"/>
      <point x="114" y="62"/>
      <point x="245" y="62" type="curve" smooth="yes"/>
      <point x="362" y="62"/>
      <point x="448" y="115"/>
      <point x="502" y="193" type="curve"/>
      <point x="517" y="212" type="line"/>
      <point x="565" y="277"/>
      <point x="583" y="355"/>
      <point x="583" y="430" type="curve" smooth="yes"/>
      <point x="583" y="454"/>
      <point x="580" y="494"/>
      <point x="576" y="512" type="curve"/>
      <point x="666" y="512" type="line"/>
      <point x="666" y="622" type="line"/>
      <point x="-7" y="622" type="line"/>
      <point x="-7" y="512" type="line"/>
      <point x="440" y="512" type="line"/>
      <point x="445" y="493"/>
      <point x="449" y="468"/>
      <point x="449" y="437" type="curve" smooth="yes"/>
      <point x="449" y="397"/>
      <point x="445" y="348"/>
      <point x="428" y="305" type="curve"/>
      <point x="422" y="281" type="line"/>
      <point x="393" y="223"/>
      <point x="342" y="172"/>
      <point x="260" y="172" type="curve" smooth="yes"/>
      <point x="203" y="172"/>
      <point x="165" y="198"/>
      <point x="165" y="248" type="curve" smooth="yes"/>
      <point x="165" y="300"/>
      <point x="205" y="325"/>
      <point x="268" y="325" type="curve" smooth="yes"/>
      <point x="336" y="325"/>
      <point x="389" y="287"/>
      <point x="429" y="223" type="curve"/>
      <point x="437" y="203" type="line"/>
      <point x="461" y="148"/>
      <point x="477" y="80"/>
    </contour>
  </outline>
</glyph>
<glyph name="khaguru" format="2">
  <advance width="648"/>
  <unicode hex="0A16"/>
  <outline>
    <contour>
      <point x="434" y="0" type="line"/>
      <point x="568" y="0" type="line"/>
      <point x="568" y="512" type="line"/>
      <point x="655" y="512" type="line"/>
      <point x="655" y="622" type="line"/>
      <point x="434" y="622" type="line"/>
      <point x="434" y="253" type="line"/>
      <point x="435" y="263" type="line"/>
      <point x="395" y="241"/>
      <point x="359" y="231"/>
      <point x="313" y="231" type="curve" smooth="yes"/>
      <point x="246" y="231"/>
      <point x="194" y="274"/>
      <point x="168" y="374" type="curve"/>
      <point x="156" y="291" type="line"/>
      <point x="206" y="338"/>
      <point x="234" y="380"/>
      <point x="234" y="451" type="curve" smooth="yes"/>
      <point x="234" y="507"/>
      <point x="218" y="567"/>
      <point x="188" y="622" type="curve"/>
      <point x="-7" y="622" type="line"/>
      <point x="-7" y="512" type="line"/>
      <point x="85" y="512" type="line"/>
      <point x="96" y="494"/>
      <point x="101" y="467"/>
      <point x="101" y="441" type="curve" smooth="yes"/>
      <point x="101" y="387"/>
      <point x="67" y="351"/>
      <point x="31" y="327" type="curve"/>
      <point x="87" y="195"/>
      <point x="171" y="119"/>
      <point x="308" y="119" type="curve" smooth="yes"/>
      <point x="351" y="119"/>
      <point x="391" y="123"/>
      <point x="435" y="139" type="curve"/>
      <point x="434" y="145" type="line"/>
    </contour>
    <contour>
      <point x="171" y="377" type="line"/>
      <point x="497" y="377" type="line"/>
      <point x="497" y="478" type="line"/>
      <point x="147" y="478" type="line"/>
    </contour>
  </outline>
</glyph>
<glyph name="gaguru" format="2">
  <advance width="836"/>
  <unicode hex="0A17"/>
  <outline>
    <contour>
      <point x="312" y="0" type="curve" smooth="yes"/>
      <point x="436" y="0"/>
      <point x="493" y="60"/>
      <point x="493" y="175" type="curve" smooth="yes"/>
      <point x="493" y="512" type="line"/>
      <point x="581" y="512" type="line"/>
      <point x="581" y="622" type="line"/>
      <point x="-7" y="622" type="line"/>
      <point x="-7" y="512" type="line"/>
      <point x="359" y="512" type="line"/>
      <point x="359" y="420" type="line"/>
      <point x="261" y="420" type="line" smooth="yes"/>
      <point x="162" y="420"/>
      <point x="109" y="402"/>
      <point x="76" y="370" type="curve" smooth="yes"/>
      <point x="50" y="345"/>
      <point x="32" y="311"/>
      <point x="32" y="265" type="curve" smooth="yes"/>
      <point x="32" y="122"/>
      <point x="155" y="0"/>
    </contour>
    <contour>
      <point x="303" y="110" type="curve" smooth="yes"/>
      <point x="237" y="110"/>
      <point x="167" y="184"/>
      <point x="167" y="246" type="curve" smooth="yes"/>
      <point x="167" y="264"/>
      <point x="169" y="279"/>
      <point x="184" y="292" type="curve" smooth="yes"/>
      <point x="197" y="303"/>
      <point x="219" y="310"/>
      <point x="281" y="310" type="curve" smooth="yes"/>
      <point x="359" y="310" type="line"/>
      <point x="359" y="188" type="line" smooth="yes"/>
      <point x="359" y="149"/>
      <point x="355" y="137"/>
      <point x="347" y="127" type="curve" smooth="yes"/>
      <point x="336" y="114"/>
      <point x="318" y="110"/>
    </contour>
    <contour>
      <point x="622" y="0" type="line"/>
      <point x="756" y="0" type="line"/>
      <point x="756" y="512" type="line"/>
      <point x="844" y="512" type="line"/>
      <point x="844" y="622" type="line"/>
      <point x="535" y="622" type="line"/>
      <point x="535" y="512" type="line"/>
      <point x="622" y="512" type="line"/>
    </contour>
  </outline>
</glyph>
<glyph name="ghaguru" format="2">
  <advance width="815"/>
  <unicode hex="0A18"/>
  <outline>
    <contour>
      <point x="256" y="133" type="curve" smooth="yes"/>
      <point x="356" y="133"/>
      <point x="420" y="182"/>
      <point x="453" y="315" type="curve"/>
      <point x="365" y="327" type="line"/>
      <point x="372" y="222"/>
      <point x="409" y="133"/>
      <point x="534" y="133" type="curve" smooth="yes"/>
      <point x="576" y="133"/>
      <point x="609" y="143"/>
      <point x="635" y="162" type="curve"/>
      <point x="620" y="279" type="line"/>
      <point x="606" y="262"/>
      <point x="589" y="245"/>
      <point x="551" y="245" type="curve" smooth="yes"/>
      <point x="519" y="245"/>
      <point x="490" y="262"/>
      <point x="475" y="315" type="curve"/>
      <point x="486" y="378"/>
      <point x="494" y="451"/>
      <point x="494" y="490" type="curve" smooth="yes"/>
      <point x="494" y="558"/>
      <point x="474" y="608"/>
      <point x="412" y="608" type="curve" smooth="yes"/>
      <point x="355" y="608"/>
      <point x="329" y="569"/>
      <point x="329" y="490" type="curve" smooth="yes"/>
      <point x="329" y="451"/>
      <point x="337" y="386"/>
      <point x="347" y="317" type="curve"/>
      <point x="332" y="264"/>
      <point x="298" y="245"/>
      <point x="265" y="245" type="curve" smooth="yes"/>
      <point x="212" y="245"/>
      <point x="191" y="291"/>
      <point x="157" y="376" type="curve"/>
      <point x="143" y="295" type="line"/>
      <point x="206" y="332"/>
      <point x="234" y="378"/>
      <point x="234" y="451" type="curve" smooth="yes"/>
      <point x="234" y="507"/>
      <point x="218" y="568"/>
      <point x="188" y="622" type="curve"/>
      <point x="-7" y="622" type="line"/>
      <point x="-7" y="512" type="line"/>
      <point x="107" y="512" type="line"/>
      <point x="78" y="524" type="line"/>
      <point x="97" y="498"/>
      <point x="101" y="466"/>
      <point x="101" y="441" type="curve" smooth="yes"/>
      <point x="101" y="393"/>
      <point x="72" y="354"/>
      <point x="31" y="327" type="curve"/>
      <point x="81" y="202"/>
      <point x="132" y="133"/>
    </contour>
    <contour>
      <point x="601" y="0" type="line"/>
      <point x="735" y="0" type="line"/>
      <point x="735" y="512" type="line"/>
      <point x="822" y="512" type="line"/>
      <point x="822" y="622" type="line"/>
      <point x="601" y="622" type="line"/>
    </contour>
  </outline>
</glyph>
<glyph name="ngaguru" format="2">
  <advance width="635"/>
  <unicode hex="0A19"/>
  <outline>
    <contour>
      <point x="436" y="-15" type="curve"/>
      <point x="551" y="18" type="line"/>
      <point x="523" y="75"/>
      <point x="491" y="131"/>
      <point x="458" y="173" type="curve"/>
      <point x="394" y="251"/>
      <point x="322" y="302"/>
      <point x="209" y="302" type="curve" smooth="yes"/>
      <point x="97" y="302"/>
      <point x="39" y="248"/>
      <point x="39" y="174" type="curve" smooth="yes"/>
      <point x="39" y="84"/>
      <point x="112" y="28"/>
      <point x="261" y="28" type="curve" smooth="yes"/>
      <point x="458" y="28"/>
      <point x="602" y="128"/>
      <point x="602" y="291" type="curve" smooth="yes"/>
      <point x="602" y="342"/>
      <point x="577" y="378"/>
      <point x="555" y="396" type="curve" smooth="yes"/>
      <point x="509" y="435"/>
      <point x="453" y="443"/>
      <point x="365" y="443" type="curve" smooth="yes"/>
      <point x="217" y="443" type="line"/>
      <point x="217" y="512" type="line"/>
      <point x="643" y="512" type="line"/>
      <point x="643" y="622" type="line"/>
      <point x="-7" y="622" type="line"/>
      <point x="-7" y="512" type="line"/>
      <point x="83" y="512" type="line"/>
      <point x="83" y="368" type="line"/>
      <point x="118" y="333" type="line"/>
      <point x="349" y="333" type="line" smooth="yes"/>
      <point x="411" y="333"/>
      <point x="430" y="330"/>
      <point x="447" y="317" type="curve" smooth="yes"/>
      <point x="461" y="306"/>
      <point x="467" y="292"/>
      <point x="467" y="272" type="curve" smooth="yes"/>
      <point x="467" y="239"/>
      <point x="451" y="207"/>
      <point x="416" y="180" type="curve" smooth="yes"/>
      <point x="382" y="153"/>
      <point x="335" y="135"/>
      <point x="259" y="135" type="curve" smooth="yes"/>
      <point x="198" y="135"/>
      <point x="170" y="147"/>
      <point x="170" y="171" type="curve" smooth="yes"/>
      <point x="170" y="193"/>
      <point x="188" y="201"/>
      <point x="223" y="201" type="curve" smooth="yes"/>
      <point x="291" y="201"/>
      <point x="370" y="148"/>
    </contour>
  </outline>
</glyph>
<glyph name="caguru" format="2">
  <advance width="702"/>
  <unicode hex="0A1A"/>
  <outline>
    <contour>
      <point x="415" y="0" type="curve" smooth="yes"/>
      <point x="553" y="0"/>
      <point x="622" y="51"/>
      <point x="622" y="175" type="curve" smooth="yes"/>
      <point x="622" y="523" type="line"/>
      <point x="488" y="523" type="line"/>
      <point x="488" y="188" type="line" smooth="yes"/>
      <point x="488" y="149"/>
      <point x="482" y="137"/>
      <point x="472" y="127" type="curve" smooth="yes"/>
      <point x="458" y="114"/>
      <point x="436" y="110"/>
      <point x="410" y="110" type="curve" smooth="yes"/>
      <point x="325" y="110"/>
      <point x="246" y="183"/>
      <point x="230" y="289" type="curve"/>
      <point x="212" y="269" type="line"/>
      <point x="516" y="269" type="line"/>
      <point x="496" y="379" type="line"/>
      <point x="235" y="379" type="line"/>
      <point x="235" y="390" type="line" smooth="yes"/>
      <point x="235" y="433"/>
      <point x="213" y="459"/>
      <point x="170" y="459" type="curve" smooth="yes"/>
      <point x="96" y="459"/>
      <point x="24" y="375"/>
      <point x="24" y="321" type="curve" smooth="yes"/>
      <point x="24" y="290"/>
      <point x="42" y="269"/>
      <point x="87" y="269" type="curve" smooth="yes"/>
      <point x="111" y="269" type="line"/>
      <point x="99" y="281" type="line"/>
      <point x="107" y="223"/>
      <point x="135" y="153"/>
      <point x="181" y="101" type="curve" smooth="yes"/>
      <point x="232" y="43"/>
      <point x="312" y="0"/>
    </contour>
    <contour>
      <point x="-7" y="512" type="line"/>
      <point x="709" y="512" type="line"/>
      <point x="709" y="622" type="line"/>
      <point x="-7" y="622" type="line"/>
    </contour>
  </outline>
</glyph>
<glyph name="chaguru" format="2">
  <advance width="689"/>
  <unicode hex="0A1B"/>
  <outline>
    <contour>
      <point x="345" y="0" type="curve" smooth="yes"/>
      <point x="563" y="0"/>
      <point x="655" y="47"/>
      <point x="655" y="148" type="curve" smooth="yes"/>
      <point x="655" y="254"/>
      <point x="563" y="284"/>
      <point x="442" y="284" type="curve" smooth="yes"/>
      <point x="252" y="284" type="line" smooth="yes"/>
      <point x="213" y="284"/>
      <point x="188" y="290"/>
      <point x="188" y="318" type="curve" smooth="yes"/>
      <point x="188" y="331"/>
      <point x="193" y="338"/>
      <point x="202" y="343" type="curve" smooth="yes"/>
      <point x="213" y="349"/>
      <point x="224" y="351"/>
      <point x="260" y="351" type="curve" smooth="yes"/>
      <point x="563" y="351" type="line"/>
      <point x="593" y="388" type="line"/>
      <point x="593" y="512" type="line"/>
      <point x="696" y="512" type="line"/>
      <point x="696" y="622" type="line"/>
      <point x="-7" y="622" type="line"/>
      <point x="-7" y="512" type="line"/>
      <point x="458" y="512" type="line"/>
      <point x="458" y="451" type="line"/>
      <point x="262" y="451" type="line" smooth="yes"/>
      <point x="178" y="451"/>
      <point x="129" y="443"/>
      <point x="94" y="420" type="curve" smooth="yes"/>
      <point x="64" y="400"/>
      <point x="46" y="370"/>
      <point x="46" y="326" type="curve" smooth="yes"/>
      <point x="46" y="266"/>
      <point x="85" y="225"/>
      <point x="169" y="198" type="curve"/>
      <point x="169" y="183" type="line"/>
      <point x="425" y="183" type="line" smooth="yes"/>
      <point x="479" y="183"/>
      <point x="521" y="182"/>
      <point x="521" y="145" type="curve" smooth="yes"/>
      <point x="521" y="112"/>
      <point x="480" y="101"/>
      <point x="400" y="101" type="curve" smooth="yes"/>
      <point x="276" y="101" type="line" smooth="yes"/>
      <point x="209" y="101"/>
      <point x="176" y="113"/>
      <point x="176" y="146" type="curve" smooth="yes"/>
      <point x="176" y="173"/>
      <point x="203" y="183"/>
      <point x="261" y="183" type="curve"/>
      <point x="148" y="254" type="line"/>
      <point x="62" y="223"/>
      <point x="42" y="178"/>
      <point x="42" y="144" type="curve" smooth="yes"/>
      <point x="42" y="42"/>
      <point x="137" y="0"/>
    </contour>
    <contour>
      <point x="414" y="49" type="line"/>
      <point x="414" y="233" type="line"/>
      <point x="284" y="233" type="line"/>
      <point x="284" y="50" type="line"/>
    </contour>
  </outline>
</glyph>
<glyph name="jaguru" format="2">
  <advance width="659"/>
  <unicode hex="0A1C"/>
  <outline>
    <contour>
      <point x="104" y="0" type="line"/>
      <point x="238" y="0" type="line"/>
      <point x="238" y="259" type="line"/>
      <point x="445" y="259" type="line"/>
      <point x="445" y="0" type="line"/>
      <point x="579" y="0" type="line"/>
      <point x="579" y="512" type="line"/>
      <point x="666" y="512" type="line"/>
      <point x="666" y="622" type="line"/>
      <point x="-7" y="622" type="line"/>
      <point x="-7" y="512" type="line"/>
      <point x="445" y="512" type="line"/>
      <point x="445" y="369" type="line"/>
      <point x="238" y="369" type="line"/>
      <point x="238" y="380" type="line" smooth="yes"/>
      <point x="238" y="423"/>
      <point x="216" y="449"/>
      <point x="173" y="449" type="curve" smooth="yes"/>
      <point x="99" y="449"/>
      <point x="27" y="365"/>
      <point x="27" y="311" type="curve" smooth="yes"/>
      <point x="27" y="280"/>
      <point x="44" y="259"/>
      <point x="89" y="259" type="curve" smooth="yes"/>
      <point x="104" y="259" type="line"/>
    </contour>
  </outline>
</glyph>
<glyph name="jhaguru" format="2">
  <advance width="603"/>
  <unicode hex="0A1D"/>
  <outline>
    <contour>
      <point x="248" y="66" type="curve" smooth="yes"/>
      <point x="268" y="66"/>
      <point x="287" y="67"/>
      <point x="305" y="68" type="curve"/>
      <point x="351" y="73" type="line"/>
      <point x="483" y="93"/>
      <point x="567" y="155"/>
      <point x="567" y="253" type="curve" smooth="yes"/>
      <point x="567" y="360"/>
      <point x="481" y="420"/>
      <point x="289" y="420" type="curve" smooth="yes"/>
      <point x="221" y="420"/>
      <point x="118" y="406"/>
      <point x="25" y="377" type="curve"/>
      <point x="63" y="276" type="line"/>
      <point x="141" y="302"/>
      <point x="216" y="314"/>
      <point x="293" y="314" type="curve" smooth="yes"/>
      <point x="380" y="314"/>
      <point x="431" y="295"/>
      <point x="431" y="250" type="curve" smooth="yes"/>
      <point x="431" y="212"/>
      <point x="396" y="185"/>
      <point x="303" y="174" type="curve"/>
      <point x="264" y="195"/>
      <point x="215" y="217"/>
      <point x="159" y="217" type="curve" smooth="yes"/>
      <point x="107" y="217"/>
      <point x="75" y="190"/>
      <point x="75" y="149" type="curve" smooth="yes"/>
      <point x="75" y="86"/>
      <point x="143" y="66"/>
    </contour>
    <contour>
      <point x="364" y="-40" type="curve"/>
      <point x="461" y="32" type="line"/>
      <point x="420" y="68"/>
      <point x="374" y="99"/>
      <point x="327" y="125" type="curve"/>
      <point x="200" y="94" type="line"/>
      <point x="273" y="46"/>
      <point x="315" y="9"/>
    </contour>
    <contour>
      <point x="180" y="376" type="curve"/>
      <point x="344" y="416" type="line"/>
      <point x="235" y="416"/>
      <point x="200" y="478"/>
      <point x="200" y="577" type="curve"/>
      <point x="64" y="582" type="line"/>
      <point x="64" y="479"/>
      <point x="99" y="411"/>
    </contour>
    <contour>
      <point x="-7" y="512" type="line"/>
      <point x="610" y="512" type="line"/>
      <point x="610" y="622" type="line"/>
      <point x="-7" y="622" type="line"/>
    </contour>
    <contour>
      <point x="434" y="376" type="line"/>
      <point x="514" y="411"/>
      <point x="549" y="479"/>
      <point x="549" y="582" type="curve"/>
      <point x="413" y="577" type="line"/>
      <point x="413" y="467"/>
      <point x="372" y="417"/>
      <point x="270" y="417" type="curve"/>
    </contour>
  </outline>
</glyph>
<glyph name="nyaguru" format="2">
  <advance width="602"/>
  <unicode hex="0A1E"/>
  <outline>
    <contour>
      <point x="156" y="379" type="curve"/>
      <point x="272" y="416" type="line"/>
      <point x="251" y="467"/>
      <point x="218" y="533"/>
      <point x="177" y="589" type="curve"/>
      <point x="50" y="563" type="line"/>
      <point x="91" y="512"/>
      <point x="127" y="440"/>
    </contour>
    <component base="vaguru"/>
  </outline>
</glyph>
<glyph name="ttaguru" format="2">
  <advance width="616"/>
  <unicode hex="0A1F"/>
  <outline>
    <contour>
      <point x="363" y="0" type="curve" smooth="yes"/>
      <point x="436" y="0"/>
      <point x="523" y="15"/>
      <point x="589" y="44" type="curve"/>
      <point x="545" y="152" type="line"/>
      <point x="470" y="121"/>
      <point x="429" y="112"/>
      <point x="371" y="112" type="curve" smooth="yes"/>
      <point x="281" y="112"/>
      <point x="220" y="153"/>
      <point x="152" y="272" type="curve"/>
      <point x="144" y="178" type="line"/>
      <point x="197" y="246"/>
      <point x="232" y="275"/>
      <point x="275" y="292" type="curve" smooth="yes"/>
      <point x="305" y="305"/>
      <point x="343" y="310"/>
      <point x="432" y="310" type="curve" smooth="yes"/>
      <point x="500" y="310" type="line"/>
      <point x="536" y="346" type="line"/>
      <point x="536" y="512" type="line"/>
      <point x="624" y="512" type="line"/>
      <point x="624" y="622" type="line"/>
      <point x="-7" y="622" type="line"/>
      <point x="-7" y="512" type="line"/>
      <point x="402" y="512" type="line"/>
      <point x="402" y="420" type="line"/>
      <point x="364" y="420" type="line" smooth="yes"/>
      <point x="286" y="420"/>
      <point x="233" y="407"/>
      <point x="186" y="383" type="curve" smooth="yes"/>
      <point x="126" y="352"/>
      <point x="80" y="302"/>
      <point x="26" y="234" type="curve"/>
      <point x="92" y="115"/>
      <point x="165" y="0"/>
    </contour>
  </outline>
</glyph>
<glyph name="tthaguru" format="2">
  <advance width="700"/>
  <unicode hex="0A20"/>
  <outline>
    <contour>
      <point x="348" y="0" type="curve" smooth="yes"/>
      <point x="545" y="0"/>
      <point x="668" y="56"/>
      <point x="668" y="198" type="curve" smooth="yes"/>
      <point x="668" y="290"/>
      <point x="597" y="384"/>
      <point x="417" y="429" type="curve"/>
      <point x="417" y="512" type="line"/>
      <point x="707" y="512" type="line"/>
      <point x="707" y="622" type="line"/>
      <point x="-7" y="622" type="line"/>
      <point x="-7" y="512" type="line"/>
      <point x="283" y="512" type="line"/>
      <point x="283" y="429" type="line"/>
      <point x="103" y="383"/>
      <point x="32" y="290"/>
      <point x="32" y="197" type="curve" smooth="yes"/>
      <point x="32" y="47"/>
      <point x="172" y="0"/>
    </contour>
    <contour>
      <point x="350" y="112" type="curve" smooth="yes"/>
      <point x="262" y="112"/>
      <point x="166" y="123"/>
      <point x="166" y="198" type="curve" smooth="yes"/>
      <point x="166" y="258"/>
      <point x="234" y="307"/>
      <point x="350" y="331" type="curve"/>
      <point x="470" y="305"/>
      <point x="534" y="258"/>
      <point x="534" y="197" type="curve" smooth="yes"/>
      <point x="534" y="124"/>
      <point x="437" y="112"/>
    </contour>
  </outline>
</glyph>
<glyph name="ddaguru" format="2">
  <advance width="643"/>
  <unicode hex="0A21"/>
  <outline>
    <contour>
      <point x="281" y="0" type="curve" smooth="yes"/>
      <point x="467" y="0"/>
      <point x="603" y="75"/>
      <point x="603" y="214" type="curve" smooth="yes"/>
      <point x="603" y="290"/>
      <point x="567" y="337"/>
      <point x="503" y="371" type="curve"/>
      <point x="549" y="396"/>
      <point x="583" y="433"/>
      <point x="583" y="493" type="curve" smooth="yes"/>
      <point x="583" y="505"/>
      <point x="580" y="521"/>
      <point x="577" y="532" type="curve"/>
      <point x="543" y="512" type="line"/>
      <point x="650" y="512" type="line"/>
      <point x="650" y="622" type="line"/>
      <point x="-7" y="622" type="line"/>
      <point x="-7" y="512" type="line"/>
      <point x="485" y="512" type="line"/>
      <point x="442" y="532" type="line"/>
      <point x="446" y="522"/>
      <point x="448" y="511"/>
      <point x="448" y="500" type="curve" smooth="yes"/>
      <point x="448" y="461"/>
      <point x="414" y="433"/>
      <point x="377" y="424" type="curve"/>
      <point x="329" y="440"/>
      <point x="283" y="447"/>
      <point x="248" y="447" type="curve" smooth="yes"/>
      <point x="170" y="447"/>
      <point x="132" y="419"/>
      <point x="132" y="375" type="curve" smooth="yes"/>
      <point x="132" y="336"/>
      <point x="160" y="298"/>
      <point x="256" y="298" type="curve" smooth="yes"/>
      <point x="295" y="298"/>
      <point x="349" y="306"/>
      <point x="383" y="316" type="curve"/>
      <point x="437" y="300"/>
      <point x="467" y="267"/>
      <point x="467" y="221" type="curve" smooth="yes"/>
      <point x="467" y="151"/>
      <point x="393" y="107"/>
      <point x="274" y="107" type="curve" smooth="yes"/>
      <point x="189" y="107"/>
      <point x="158" y="120"/>
      <point x="158" y="144" type="curve" smooth="yes"/>
      <point x="158" y="166"/>
      <point x="176" y="173"/>
      <point x="208" y="173" type="curve" smooth="yes"/>
      <point x="280" y="173"/>
      <point x="344" y="129"/>
      <point x="396" y="71" type="curve"/>
      <point x="486" y="125" type="line"/>
      <point x="408" y="207"/>
      <point x="323" y="274"/>
      <point x="192" y="274" type="curve" smooth="yes"/>
      <point x="86" y="274"/>
      <point x="28" y="220"/>
      <point x="28" y="148" type="curve" smooth="yes"/>
      <point x="28" y="57"/>
      <point x="106" y="0"/>
    </contour>
  </outline>
</glyph>
<glyph name="ddhaguru" format="2">
  <advance width="703"/>
  <unicode hex="0A22"/>
  <outline>
    <contour>
      <point x="438" y="0" type="curve" smooth="yes"/>
      <point x="588" y="0"/>
      <point x="664" y="57"/>
      <point x="664" y="145" type="curve" smooth="yes"/>
      <point x="664" y="220"/>
      <point x="605" y="274"/>
      <point x="494" y="274" type="curve" smooth="yes"/>
      <point x="367" y="274"/>
      <point x="283" y="205"/>
      <point x="206" y="120" type="curve"/>
      <point x="296" y="71" type="line"/>
      <point x="352" y="132"/>
      <point x="412" y="173"/>
      <point x="480" y="173" type="curve" smooth="yes"/>
      <point x="516" y="173"/>
      <point x="534" y="166"/>
      <point x="534" y="144" type="curve" smooth="yes"/>
      <point x="534" y="120"/>
      <point x="505" y="107"/>
      <point x="443" y="107" type="curve" smooth="yes"/>
      <point x="306" y="107"/>
      <point x="236" y="184"/>
      <point x="235" y="300" type="curve"/>
      <point x="584" y="300" type="line"/>
      <point x="620" y="336" type="line"/>
      <point x="620" y="512" type="line"/>
      <point x="710" y="512" type="line"/>
      <point x="710" y="622" type="line"/>
      <point x="-7" y="622" type="line"/>
      <point x="-7" y="512" type="line"/>
      <point x="486" y="512" type="line"/>
      <point x="486" y="410" type="line"/>
      <point x="235" y="410" type="line"/>
      <point x="235" y="417" type="line" smooth="yes"/>
      <point x="235" y="459"/>
      <point x="213" y="486"/>
      <point x="170" y="486" type="curve" smooth="yes"/>
      <point x="96" y="486"/>
      <point x="24" y="407"/>
      <point x="24" y="352" type="curve" smooth="yes"/>
      <point x="24" y="321"/>
      <point x="42" y="300"/>
      <point x="87" y="300" type="curve" smooth="yes"/>
      <point x="101" y="300" type="line"/>
      <point x="101" y="294" type="line" smooth="yes"/>
      <point x="101" y="122"/>
      <point x="232" y="0"/>
    </contour>
  </outline>
</glyph>
<glyph name="nnaguru" format="2">
  <advance width="652"/>
  <unicode hex="0A23"/>
  <outline>
    <contour>
      <point x="375" y="0" type="curve" smooth="yes"/>
      <point x="471" y="0"/>
      <point x="553" y="22"/>
      <point x="623" y="54" type="curve"/>
      <point x="576" y="160" type="line"/>
      <point x="493" y="125"/>
      <point x="456" y="112"/>
      <point x="377" y="112" type="curve" smooth="yes"/>
      <point x="279" y="112"/>
      <point x="218" y="145"/>
      <point x="153" y="251" type="curve"/>
      <point x="144" y="163" type="line"/>
      <point x="209" y="246"/>
      <point x="253" y="279"/>
      <point x="315" y="279" type="curve" smooth="yes"/>
      <point x="340" y="279"/>
      <point x="361" y="274"/>
      <point x="380" y="265" type="curve"/>
      <point x="436" y="285" type="line"/>
      <point x="494" y="420" type="line"/>
      <point x="397" y="487" type="line"/>
      <point x="336" y="338" type="line"/>
      <point x="396" y="366" type="line"/>
      <point x="364" y="383"/>
      <point x="338" y="392"/>
      <point x="298" y="392" type="curve" smooth="yes"/>
      <point x="205" y="392"/>
      <point x="133" y="344"/>
      <point x="26" y="219" type="curve"/>
      <point x="92" y="100"/>
      <point x="179" y="0"/>
    </contour>
    <contour>
      <point x="566" y="311" type="curve"/>
      <point x="623" y="422" type="line"/>
      <point x="529" y="458"/>
      <point x="433" y="497"/>
      <point x="340" y="551" type="curve"/>
      <point x="347" y="512" type="line"/>
      <point x="659" y="512" type="line"/>
      <point x="659" y="622" type="line"/>
      <point x="-7" y="622" type="line"/>
      <point x="-7" y="512" type="line"/>
      <point x="278" y="512" type="line"/>
      <point x="187" y="551" type="line"/>
      <point x="300" y="442"/>
      <point x="445" y="368"/>
    </contour>
  </outline>
</glyph>
<glyph name="taguru" format="2">
  <advance width="585"/>
  <unicode hex="0A24"/>
  <outline>
    <contour>
      <point x="274" y="0" type="curve" smooth="yes"/>
      <point x="443" y="0"/>
      <point x="547" y="62"/>
      <point x="547" y="180" type="curve" smooth="yes"/>
      <point x="547" y="258"/>
      <point x="509" y="304"/>
      <point x="448" y="342" type="curve"/>
      <point x="494" y="368"/>
      <point x="527" y="407"/>
      <point x="527" y="480" type="curve" smooth="yes"/>
      <point x="527" y="497"/>
      <point x="524" y="518"/>
      <point x="517" y="539" type="curve"/>
      <point x="488" y="512" type="line"/>
      <point x="592" y="512" type="line"/>
      <point x="592" y="622" type="line"/>
      <point x="-7" y="622" type="line"/>
      <point x="-7" y="512" type="line"/>
      <point x="447" y="512" type="line"/>
      <point x="383" y="552" type="line"/>
      <point x="391" y="523"/>
      <point x="393" y="502"/>
      <point x="393" y="487" type="curve" smooth="yes"/>
      <point x="393" y="435"/>
      <point x="358" y="405"/>
      <point x="322" y="395" type="curve"/>
      <point x="273" y="411"/>
      <point x="229" y="418"/>
      <point x="192" y="418" type="curve" smooth="yes"/>
      <point x="127" y="418"/>
      <point x="75" y="397"/>
      <point x="75" y="346" type="curve" smooth="yes"/>
      <point x="75" y="306"/>
      <point x="103" y="269"/>
      <point x="199" y="269" type="curve" smooth="yes"/>
      <point x="235" y="269"/>
      <point x="283" y="274"/>
      <point x="320" y="285" type="curve"/>
      <point x="371" y="272"/>
      <point x="411" y="238"/>
      <point x="411" y="193" type="curve" smooth="yes"/>
      <point x="411" y="136"/>
      <point x="356" y="112"/>
      <point x="268" y="112" type="curve" smooth="yes"/>
      <point x="201" y="112"/>
      <point x="129" y="131"/>
      <point x="52" y="172" type="curve"/>
      <point x="13" y="64" type="line"/>
      <point x="77" y="28"/>
      <point x="175" y="0"/>
    </contour>
  </outline>
</glyph>
<glyph name="thaguru" format="2">
  <advance width="648"/>
  <unicode hex="0A25"/>
  <outline>
    <contour>
      <point x="434" y="0" type="line"/>
      <point x="568" y="0" type="line"/>
      <point x="568" y="512" type="line"/>
      <point x="655" y="512" type="line"/>
      <point x="655" y="622" type="line"/>
      <point x="163" y="622" type="line"/>
      <point x="187" y="512" type="line"/>
      <point x="434" y="512" type="line"/>
      <point x="434" y="253" type="line"/>
      <point x="435" y="263" type="line"/>
      <point x="396" y="241"/>
      <point x="362" y="231"/>
      <point x="313" y="231" type="curve" smooth="yes"/>
      <point x="246" y="231"/>
      <point x="191" y="274"/>
      <point x="165" y="374" type="curve"/>
      <point x="153" y="291" type="line"/>
      <point x="203" y="338"/>
      <point x="234" y="380"/>
      <point x="234" y="451" type="curve" smooth="yes"/>
      <point x="234" y="507"/>
      <point x="210" y="562"/>
      <point x="173" y="622" type="curve"/>
      <point x="-7" y="622" type="line"/>
      <point x="-7" y="512" type="line"/>
      <point x="85" y="512" type="line"/>
      <point x="96" y="494"/>
      <point x="101" y="467"/>
      <point x="101" y="441" type="curve" smooth="yes"/>
      <point x="101" y="387"/>
      <point x="67" y="351"/>
      <point x="31" y="327" type="curve"/>
      <point x="87" y="195"/>
      <point x="171" y="119"/>
      <point x="308" y="119" type="curve" smooth="yes"/>
      <point x="351" y="119"/>
      <point x="392" y="123"/>
      <point x="435" y="139" type="curve"/>
      <point x="434" y="145" type="line"/>
    </contour>
    <contour>
      <point x="171" y="320" type="line"/>
      <point x="497" y="320" type="line"/>
      <point x="497" y="421" type="line"/>
      <point x="147" y="421" type="line"/>
    </contour>
  </outline>
</glyph>
<glyph name="daguru" format="2">
  <advance width="661"/>
  <unicode hex="0A26"/>
  <outline>
    <contour>
      <point x="406" y="0" type="curve" smooth="yes"/>
      <point x="484" y="0"/>
      <point x="567" y="17"/>
      <point x="630" y="43" type="curve"/>
      <point x="586" y="151" type="line"/>
      <point x="526" y="125"/>
      <point x="480" y="112"/>
      <point x="413" y="112" type="curve" smooth="yes"/>
      <point x="292" y="112"/>
      <point x="235" y="168"/>
      <point x="235" y="269" type="curve"/>
      <point x="545" y="269" type="line"/>
      <point x="581" y="305" type="line"/>
      <point x="581" y="512" type="line"/>
      <point x="668" y="512" type="line"/>
      <point x="668" y="622" type="line"/>
      <point x="-7" y="622" type="line"/>
      <point x="-7" y="512" type="line"/>
      <point x="447" y="512" type="line"/>
      <point x="447" y="379" type="line"/>
      <point x="235" y="379" type="line"/>
      <point x="235" y="390" type="line" smooth="yes"/>
      <point x="235" y="433"/>
      <point x="213" y="459"/>
      <point x="170" y="459" type="curve" smooth="yes"/>
      <point x="96" y="459"/>
      <point x="24" y="375"/>
      <point x="24" y="321" type="curve" smooth="yes"/>
      <point x="24" y="290"/>
      <point x="42" y="269"/>
      <point x="87" y="269" type="curve" smooth="yes"/>
      <point x="101" y="269" type="line"/>
      <point x="101" y="261" type="line" smooth="yes"/>
      <point x="101" y="79"/>
      <point x="222" y="0"/>
    </contour>
  </outline>
</glyph>
<glyph name="dhaguru" format="2">
  <advance width="643"/>
  <unicode hex="0A27"/>
  <outline>
    <contour>
      <point x="429" y="0" type="line"/>
      <point x="563" y="0" type="line"/>
      <point x="563" y="512" type="line"/>
      <point x="650" y="512" type="line"/>
      <point x="650" y="622" type="line"/>
      <point x="163" y="622" type="line"/>
      <point x="187" y="512" type="line"/>
      <point x="429" y="512" type="line"/>
      <point x="429" y="253" type="line"/>
      <point x="434" y="263" type="line"/>
      <point x="395" y="241"/>
      <point x="359" y="231"/>
      <point x="313" y="231" type="curve" smooth="yes"/>
      <point x="246" y="231"/>
      <point x="194" y="274"/>
      <point x="168" y="374" type="curve"/>
      <point x="156" y="291" type="line"/>
      <point x="206" y="338"/>
      <point x="234" y="380"/>
      <point x="234" y="451" type="curve" smooth="yes"/>
      <point x="234" y="507"/>
      <point x="210" y="562"/>
      <point x="173" y="622" type="curve"/>
      <point x="-7" y="622" type="line"/>
      <point x="-7" y="512" type="line"/>
      <point x="85" y="512" type="line"/>
      <point x="96" y="494"/>
      <point x="101" y="467"/>
      <point x="101" y="441" type="curve" smooth="yes"/>
      <point x="101" y="387"/>
      <point x="67" y="351"/>
      <point x="31" y="327" type="curve"/>
      <point x="87" y="195"/>
      <point x="171" y="119"/>
      <point x="308" y="119" type="curve" smooth="yes"/>
      <point x="351" y="119"/>
      <point x="391" y="123"/>
      <point x="434" y="139" type="curve"/>
      <point x="429" y="145" type="line"/>
    </contour>
  </outline>
</glyph>
<glyph name="naguru" format="2">
  <advance width="688"/>
  <unicode hex="0A28"/>
  <outline>
    <contour>
      <point x="267" y="0" type="curve"/>
      <point x="275" y="113" type="line"/>
      <point x="191" y="113"/>
      <point x="166" y="149"/>
      <point x="166" y="196" type="curve" smooth="yes"/>
      <point x="166" y="259"/>
      <point x="227" y="306"/>
      <point x="344" y="331" type="curve"/>
      <point x="461" y="306"/>
      <point x="522" y="259"/>
      <point x="522" y="196" type="curve" smooth="yes"/>
      <point x="522" y="149"/>
      <point x="497" y="113"/>
      <point x="413" y="113" type="curve"/>
      <point x="421" y="0" type="line"/>
      <point x="606" y="0"/>
      <point x="656" y="108"/>
      <point x="656" y="189" type="curve" smooth="yes"/>
      <point x="656" y="290"/>
      <point x="579" y="388"/>
      <point x="411" y="429" type="curve"/>
      <point x="411" y="512" type="line"/>
      <point x="695" y="512" type="line"/>
      <point x="695" y="622" type="line"/>
      <point x="-7" y="622" type="line"/>
      <point x="-7" y="512" type="line"/>
      <point x="277" y="512" type="line"/>
      <point x="277" y="429" type="line"/>
      <point x="109" y="388"/>
      <point x="32" y="290"/>
      <point x="32" y="189" type="curve" smooth="yes"/>
      <point x="32" y="108"/>
      <point x="82" y="0"/>
    </contour>
  </outline>
</glyph>
<glyph name="phaguru" format="2">
  <advance width="634"/>
  <unicode hex="0A2B"/>
  <outline>
    <contour>
      <point x="369" y="0" type="curve" smooth="yes"/>
      <point x="521" y="0"/>
      <point x="595" y="57"/>
      <point x="595" y="145" type="curve" smooth="yes"/>
      <point x="595" y="220"/>
      <point x="537" y="274"/>
      <point x="425" y="274" type="curve" smooth="yes"/>
      <point x="298" y="274"/>
      <point x="214" y="205"/>
      <point x="137" y="120" type="curve"/>
      <point x="227" y="71" type="line"/>
      <point x="283" y="132"/>
      <point x="347" y="173"/>
      <point x="411" y="173" type="curve" smooth="yes"/>
      <point x="447" y="173"/>
      <point x="465" y="166"/>
      <point x="465" y="144" type="curve" smooth="yes"/>
      <point x="465" y="120"/>
      <point x="437" y="107"/>
      <point x="375" y="107" type="curve" smooth="yes"/>
      <point x="264" y="107"/>
      <point x="167" y="167"/>
      <point x="167" y="253" type="curve" smooth="yes"/>
      <point x="167" y="274"/>
      <point x="172" y="290"/>
      <point x="186" y="300" type="curve" smooth="yes"/>
      <point x="208" y="316"/>
      <point x="222" y="320"/>
      <point x="297" y="320" type="curve" smooth="yes"/>
      <point x="516" y="320" type="line"/>
      <point x="551" y="356" type="line"/>
      <point x="551" y="512" type="line"/>
      <point x="641" y="512" type="line"/>
      <point x="641" y="622" type="line"/>
      <point x="-7" y="622" type="line"/>
      <point x="-7" y="512" type="line"/>
      <point x="417" y="512" type="line"/>
      <point x="417" y="430" type="line"/>
      <point x="278" y="430" type="line" smooth="yes"/>
      <point x="203" y="430"/>
      <point x="128" y="422"/>
      <point x="82" y="382" type="curve" smooth="yes"/>
      <point x="59" y="362"/>
      <point x="32" y="327"/>
      <point x="32" y="272" type="curve" smooth="yes"/>
      <point x="32" y="107"/>
      <point x="176" y="0"/>
    </contour>
  </outline>
</glyph>
<glyph name="baguru" format="2">
  <advance width="657"/>
  <unicode hex="0A2C"/>
  <outline>
    <contour>
      <point x="33" y="251" type="curve"/>
      <point x="85" y="146"/>
      <point x="169" y="69"/>
      <point x="299" y="69" type="curve" smooth="yes"/>
      <point x="354" y="69"/>
      <point x="398" y="77"/>
      <point x="449" y="100" type="curve"/>
      <point x="443" y="215" type="line"/>
      <point x="413" y="196"/>
      <point x="365" y="182"/>
      <point x="315" y="182" type="curve" smooth="yes"/>
      <point x="243" y="182"/>
      <point x="199" y="216"/>
      <point x="163" y="287" type="curve"/>
      <point x="165" y="219" type="line"/>
      <point x="218" y="292"/>
      <point x="252" y="303"/>
      <point x="341" y="303" type="curve" smooth="yes"/>
      <point x="446" y="303" type="line"/>
      <point x="448" y="411" type="line"/>
      <point x="320" y="411" type="line" smooth="yes"/>
      <point x="256" y="411"/>
      <point x="235" y="422"/>
      <point x="218" y="439" type="curve" smooth="yes"/>
      <point x="196" y="462"/>
      <point x="187" y="501"/>
      <point x="187" y="549" type="curve"/>
      <point x="161" y="512" type="line"/>
      <point x="573" y="512" type="line"/>
      <point x="573" y="622" type="line"/>
      <point x="-7" y="622" type="line"/>
      <point x="-7" y="512" type="line"/>
      <point x="75" y="512" type="line"/>
      <point x="51" y="531" type="line"/>
      <point x="51" y="449"/>
      <point x="90" y="372"/>
      <point x="179" y="342" type="curve"/>
      <point x="187" y="369" type="line"/>
      <point x="127" y="348"/>
      <point x="64" y="296"/>
    </contour>
    <contour>
      <point x="442" y="0" type="line"/>
      <point x="577" y="0" type="line"/>
      <point x="577" y="512" type="line"/>
      <point x="665" y="512" type="line"/>
      <point x="665" y="622" type="line"/>
      <point x="334" y="622" type="line"/>
      <point x="334" y="512" type="line"/>
      <point x="442" y="512" type="line"/>
    </contour>
  </outline>
</glyph>
<glyph name="bhaguru" format="2">
  <advance width="631"/>
  <unicode hex="0A2D"/>
  <outline>
    <contour>
      <point x="283" y="0" type="curve" smooth="yes"/>
      <point x="474" y="0"/>
      <point x="578" y="68"/>
      <point x="578" y="204" type="curve" smooth="yes"/>
      <point x="578" y="264"/>
      <point x="552" y="322"/>
      <point x="492" y="369" type="curve"/>
      <point x="477" y="382" type="line"/>
      <point x="417" y="432"/>
      <point x="346" y="461"/>
      <point x="255" y="461" type="curve" smooth="yes"/>
      <point x="127" y="461"/>
      <point x="62" y="401"/>
      <point x="62" y="324" type="curve" smooth="yes"/>
      <point x="62" y="241"/>
      <point x="127" y="187"/>
      <point x="258" y="187" type="curve" smooth="yes"/>
      <point x="354" y="187"/>
      <point x="422" y="217"/>
      <point x="473" y="262" type="curve"/>
      <point x="487" y="275" type="line"/>
      <point x="544" y="327"/>
      <point x="570" y="373"/>
      <point x="570" y="437" type="curve" smooth="yes"/>
      <point x="570" y="470"/>
      <point x="564" y="499"/>
      <point x="553" y="523" type="curve"/>
      <point x="514" y="512" type="line"/>
      <point x="638" y="512" type="line"/>
      <point x="638" y="622" type="line"/>
      <point x="-7" y="622" type="line"/>
      <point x="-7" y="512" type="line"/>
      <point x="480" y="512" type="line"/>
      <point x="402" y="526" type="line"/>
      <point x="422" y="515"/>
      <point x="436" y="475"/>
      <point x="436" y="436" type="curve" smooth="yes"/>
      <point x="436" y="386"/>
      <point x="413" y="292"/>
      <point x="253" y="292" type="curve" smooth="yes"/>
      <point x="217" y="292"/>
      <point x="191" y="299"/>
      <point x="191" y="324" type="curve" smooth="yes"/>
      <point x="191" y="345"/>
      <point x="210" y="356"/>
      <point x="257" y="356" type="curve" smooth="yes"/>
      <point x="359" y="356"/>
      <point x="446" y="302"/>
      <point x="446" y="218" type="curve" smooth="yes"/>
      <point x="446" y="146"/>
      <point x="395" y="111"/>
      <point x="275" y="111" type="curve" smooth="yes"/>
      <point x="201" y="111"/>
      <point x="126" y="132"/>
      <point x="53" y="172" type="curve"/>
      <point x="13" y="64" type="line"/>
      <point x="76" y="28"/>
      <point x="178" y="0"/>
    </contour>
  </outline>
</glyph>
<glyph name="maguru" format="2">
  <advance width="631"/>
  <unicode hex="0A2E"/>
  <outline>
    <contour>
      <point x="417" y="0" type="line"/>
      <point x="551" y="0" type="line"/>
      <point x="551" y="512" type="line"/>
      <point x="639" y="512" type="line"/>
      <point x="639" y="622" type="line"/>
      <point x="417" y="622" type="line"/>
      <point x="417" y="328" type="line"/>
      <point x="230" y="328" type="line"/>
      <point x="230" y="417"/>
      <point x="204" y="518"/>
      <point x="164" y="622" type="curve"/>
      <point x="-7" y="622" type="line"/>
      <point x="-7" y="512" type="line"/>
      <point x="59" y="512" type="line"/>
      <point x="84" y="442"/>
      <point x="104" y="361"/>
      <point x="107" y="284" type="curve"/>
      <point x="56" y="230"/>
      <point x="42" y="181"/>
      <point x="42" y="147" type="curve" smooth="yes"/>
      <point x="42" y="89"/>
      <point x="78" y="66"/>
      <point x="120" y="66" type="curve" smooth="yes"/>
      <point x="184" y="66"/>
      <point x="225" y="113"/>
      <point x="229" y="218" type="curve"/>
      <point x="417" y="218" type="line"/>
    </contour>
  </outline>
</glyph>
<glyph name="yaguru" format="2">
  <advance width="763"/>
  <unicode hex="0A2F"/>
  <outline>
    <contour>
      <point x="549" y="0" type="line"/>
      <point x="683" y="0" type="line"/>
      <point x="683" y="512" type="line"/>
      <point x="771" y="512" type="line"/>
      <point x="771" y="622" type="line"/>
      <point x="-7" y="622" type="line"/>
      <point x="-7" y="512" type="line"/>
      <point x="85" y="512" type="line"/>
      <point x="96" y="494"/>
      <point x="101" y="465"/>
      <point x="101" y="439" type="curve" smooth="yes"/>
      <point x="101" y="383"/>
      <point x="67" y="346"/>
      <point x="31" y="321" type="curve"/>
      <point x="87" y="185"/>
      <point x="171" y="107"/>
      <point x="308" y="107" type="curve" smooth="yes"/>
      <point x="359" y="107"/>
      <point x="398" y="110"/>
      <point x="451" y="126" type="curve"/>
      <point x="451" y="269" type="line"/>
      <point x="549" y="269" type="line"/>
    </contour>
    <contour>
      <point x="318" y="374" type="line"/>
      <point x="318" y="219" type="line"/>
      <point x="316" y="219"/>
      <point x="315" y="219"/>
      <point x="313" y="219" type="curve" smooth="yes"/>
      <point x="246" y="219"/>
      <point x="195" y="265"/>
      <point x="168" y="370" type="curve"/>
      <point x="157" y="285" type="line"/>
      <point x="206" y="333"/>
      <point x="234" y="376"/>
      <point x="234" y="449" type="curve" smooth="yes"/>
      <point x="234" y="470"/>
      <point x="231" y="491"/>
      <point x="225" y="512" type="curve"/>
      <point x="549" y="512" type="line"/>
      <point x="549" y="374" type="line"/>
    </contour>
  </outline>
</glyph>
<glyph name="raguru" format="2">
  <advance width="623"/>
  <unicode hex="0A30"/>
  <outline>
    <contour>
      <point x="339" y="0" type="curve" smooth="yes"/>
      <point x="474" y="0"/>
      <point x="543" y="51"/>
      <point x="543" y="175" type="curve" smooth="yes"/>
      <point x="543" y="512" type="line"/>
      <point x="630" y="512" type="line"/>
      <point x="630" y="622" type="line"/>
      <point x="-7" y="622" type="line"/>
      <point x="-7" y="512" type="line"/>
      <point x="409" y="512" type="line"/>
      <point x="409" y="420" type="line"/>
      <point x="278" y="420" type="line" smooth="yes"/>
      <point x="173" y="420"/>
      <point x="120" y="405"/>
      <point x="82" y="373" type="curve" smooth="yes"/>
      <point x="53" y="348"/>
      <point x="32" y="311"/>
      <point x="32" y="265" type="curve" smooth="yes"/>
      <point x="32" y="124"/>
      <point x="171" y="0"/>
    </contour>
    <contour>
      <point x="333" y="110" type="curve" smooth="yes"/>
      <point x="252" y="110"/>
      <point x="167" y="184"/>
      <point x="167" y="246" type="curve" smooth="yes"/>
      <point x="167" y="264"/>
      <point x="171" y="279"/>
      <point x="185" y="290" type="curve" smooth="yes"/>
      <point x="205" y="305"/>
      <point x="230" y="310"/>
      <point x="297" y="310" type="curve" smooth="yes"/>
      <point x="409" y="310" type="line"/>
      <point x="409" y="188" type="line" smooth="yes"/>
      <point x="409" y="149"/>
      <point x="403" y="137"/>
      <point x="393" y="127" type="curve" smooth="yes"/>
      <point x="379" y="114"/>
      <point x="360" y="110"/>
    </contour>
  </outline>
</glyph>
<glyph name="laguru" format="2">
  <advance width="718"/>
  <unicode hex="0A32"/>
  <outline>
    <contour>
      <point x="359" y="232" type="curve"/>
      <point x="476" y="283"/>
      <point x="586" y="396"/>
      <point x="608" y="512" type="curve"/>
      <point x="725" y="512" type="line"/>
      <point x="725" y="622" type="line"/>
      <point x="-7" y="622" type="line"/>
      <point x="-7" y="512" type="line"/>
      <point x="109" y="512" type="line"/>
      <point x="133" y="397"/>
      <point x="237" y="285"/>
    </contour>
    <contour>
      <point x="469" y="512" type="line"/>
      <point x="455" y="428"/>
      <point x="395" y="368"/>
      <point x="326" y="338" type="curve"/>
      <point x="395" y="337" type="line"/>
      <point x="323" y="371"/>
      <point x="262" y="428"/>
      <point x="246" y="512" type="curve"/>
    </contour>
    <contour>
      <point x="32" y="189" type="curve" smooth="yes"/>
      <point x="32" y="109"/>
      <point x="82" y="0"/>
      <point x="269" y="0" type="curve" smooth="yes"/>
      <point x="274" y="0" type="line"/>
      <point x="283" y="113" type="line"/>
      <point x="272" y="113" type="line" smooth="yes"/>
      <point x="204" y="113"/>
      <point x="166" y="139"/>
      <point x="166" y="196" type="curve" smooth="yes"/>
      <point x="166" y="255"/>
      <point x="215" y="301"/>
      <point x="322" y="326" type="curve"/>
      <point x="226" y="417" type="line"/>
      <point x="98" y="367"/>
      <point x="32" y="286"/>
    </contour>
    <contour>
      <point x="686" y="189" type="curve" smooth="yes"/>
      <point x="686" y="286"/>
      <point x="620" y="368"/>
      <point x="490" y="416" type="curve"/>
      <point x="398" y="329" type="line"/>
      <point x="501" y="301"/>
      <point x="552" y="255"/>
      <point x="552" y="196" type="curve" smooth="yes"/>
      <point x="552" y="139"/>
      <point x="514" y="113"/>
      <point x="446" y="113" type="curve" smooth="yes"/>
      <point x="435" y="113" type="line"/>
      <point x="443" y="0" type="line"/>
      <point x="449" y="0" type="line" smooth="yes"/>
      <point x="636" y="0"/>
      <point x="686" y="109"/>
    </contour>
  </outline>
</glyph>
<glyph name="vaguru" format="2">
  <advance width="602"/>
  <unicode hex="0A35"/>
  <outline>
    <contour>
      <point x="525" y="179" type="line"/>
      <point x="525" y="284" type="line"/>
      <point x="269" y="284" type="line" smooth="yes"/>
      <point x="223" y="284"/>
      <point x="203" y="286"/>
      <point x="190" y="292" type="curve" smooth="yes"/>
      <point x="178" y="298"/>
      <point x="172" y="306"/>
      <point x="172" y="320" type="curve" smooth="yes"/>
      <point x="172" y="329"/>
      <point x="175" y="336"/>
      <point x="183" y="342" type="curve" smooth="yes"/>
      <point x="191" y="348"/>
      <point x="205" y="351"/>
      <point x="237" y="351" type="curve" smooth="yes"/>
      <point x="486" y="351" type="line"/>
      <point x="522" y="386" type="line"/>
      <point x="522" y="512" type="line"/>
      <point x="609" y="512" type="line"/>
      <point x="609" y="622" type="line"/>
      <point x="-7" y="622" type="line"/>
      <point x="-7" y="512" type="line"/>
      <point x="388" y="512" type="line"/>
      <point x="388" y="451" type="line"/>
      <point x="257" y="451" type="line" smooth="yes"/>
      <point x="168" y="451"/>
      <point x="127" y="446"/>
      <point x="87" y="424" type="curve" smooth="yes"/>
      <point x="53" y="405"/>
      <point x="32" y="375"/>
      <point x="32" y="328" type="curve" smooth="yes"/>
      <point x="32" y="280"/>
      <point x="49" y="236"/>
      <point x="103" y="208" type="curve" smooth="yes"/>
      <point x="137" y="190"/>
      <point x="187" y="179"/>
      <point x="256" y="179" type="curve" smooth="yes"/>
    </contour>
    <contour>
      <point x="339" y="0" type="curve" smooth="yes"/>
      <point x="426" y="0"/>
      <point x="485" y="10"/>
      <point x="539" y="23" type="curve"/>
      <point x="514" y="128" type="line"/>
      <point x="455" y="114"/>
      <point x="407" y="109"/>
      <point x="350" y="109" type="curve" smooth="yes"/>
      <point x="275" y="109"/>
      <point x="253" y="125"/>
      <point x="253" y="150" type="curve" smooth="yes"/>
      <point x="253" y="158"/>
      <point x="256" y="164"/>
      <point x="262" y="169" type="curve" smooth="yes"/>
      <point x="268" y="174"/>
      <point x="276" y="179"/>
      <point x="313" y="179" type="curve" smooth="yes"/>
      <point x="334" y="179" type="line"/>
      <point x="173" y="234" type="line"/>
      <point x="136" y="209"/>
      <point x="115" y="182"/>
      <point x="115" y="143" type="curve" smooth="yes"/>
      <point x="115" y="71"/>
      <point x="165" y="0"/>
    </contour>
  </outline>
</glyph>
<glyph name="sanuktaguru" format="2">
  <advance width="651"/>
  <unicode hex="0A36"/>
  <outline>
    <contour>
      <point x="437" y="0" type="line"/>
      <point x="571" y="0" type="line"/>
      <point x="571" y="512" type="line"/>
      <point x="658" y="512" type="line"/>
      <point x="658" y="622" type="line"/>
      <point x="-7" y="622" type="line"/>
      <point x="-7" y="512" type="line"/>
      <point x="59" y="512" type="line"/>
      <point x="84" y="442"/>
      <point x="104" y="361"/>
      <point x="107" y="284" type="curve"/>
      <point x="56" y="230"/>
      <point x="42" y="181"/>
      <point x="42" y="147" type="curve" smooth="yes"/>
      <point x="42" y="89"/>
      <point x="78" y="66"/>
      <point x="120" y="66" type="curve" smooth="yes"/>
      <point x="184" y="66"/>
      <point x="228" y="113"/>
      <point x="229" y="218" type="curve"/>
      <point x="437" y="218" type="line"/>
    </contour>
    <contour>
      <point x="230" y="328" type="line"/>
      <point x="230" y="383"/>
      <point x="219" y="445"/>
      <point x="198" y="512" type="curve"/>
      <point x="437" y="512" type="line"/>
      <point x="437" y="328" type="line"/>
    </contour>
    <contour>
      <point x="311" y="-8" type="curve" smooth="yes"/>
      <point x="361" y="-8"/>
      <point x="389" y="21"/>
      <point x="389" y="64" type="curve" smooth="yes"/>
      <point x="389" y="107"/>
      <point x="361" y="136"/>
      <point x="311" y="136" type="curve" smooth="yes"/>
      <point x="261" y="136"/>
      <point x="232" y="107"/>
      <point x="232" y="64" type="curve" smooth="yes"/>
      <point x="232" y="21"/>
      <point x="261" y="-8"/>
    </contour>
  </outline>
</glyph>
<glyph name="saguru" format="2">
  <advance width="636"/>
  <unicode hex="0A38"/>
  <outline>
    <contour>
      <point x="422" y="0" type="line"/>
      <point x="556" y="0" type="line"/>
      <point x="556" y="512" type="line"/>
      <point x="644" y="512" type="line"/>
      <point x="644" y="622" type="line"/>
      <point x="-7" y="622" type="line"/>
      <point x="-7" y="512" type="line"/>
      <point x="59" y="512" type="line"/>
      <point x="84" y="442"/>
      <point x="104" y="361"/>
      <point x="107" y="284" type="curve"/>
      <point x="56" y="230"/>
      <point x="42" y="181"/>
      <point x="42" y="147" type="curve" smooth="yes"/>
      <point x="42" y="89"/>
      <point x="78" y="66"/>
      <point x="120" y="66" type="curve" smooth="yes"/>
      <point x="184" y="66"/>
      <point x="225" y="113"/>
      <point x="229" y="218" type="curve"/>
      <point x="422" y="218" type="line"/>
    </contour>
    <contour>
      <point x="230" y="328" type="line"/>
      <point x="230" y="383"/>
      <point x="219" y="445"/>
      <point x="198" y="512" type="curve"/>
      <point x="422" y="512" type="line"/>
      <point x="422" y="328" type="line"/>
    </contour>
  </outline>
</glyph>
<glyph name="haguru" format="2">
  <advance width="620"/>
  <unicode hex="0A39"/>
  <outline>
    <contour>
      <point x="337" y="0" type="curve" smooth="yes"/>
      <point x="469" y="0"/>
      <point x="540" y="50"/>
      <point x="540" y="175" type="curve" smooth="yes"/>
      <point x="540" y="512" type="line"/>
      <point x="627" y="512" type="line"/>
      <point x="627" y="622" type="line"/>
      <point x="-7" y="622" type="line"/>
      <point x="-7" y="512" type="line"/>
      <point x="406" y="512" type="line"/>
      <point x="406" y="188" type="line" smooth="yes"/>
      <point x="406" y="149"/>
      <point x="400" y="136"/>
      <point x="390" y="126" type="curve" smooth="yes"/>
      <point x="377" y="114"/>
      <point x="359" y="110"/>
      <point x="331" y="110" type="curve" smooth="yes"/>
      <point x="252" y="110"/>
      <point x="167" y="184"/>
      <point x="167" y="246" type="curve" smooth="yes"/>
      <point x="167" y="290"/>
      <point x="190" y="308"/>
      <point x="245" y="308" type="curve" smooth="yes"/>
      <point x="254" y="308"/>
      <point x="267" y="307"/>
      <point x="273" y="306" type="curve"/>
      <point x="279" y="417" type="line"/>
      <point x="267" y="418"/>
      <point x="250" y="420"/>
      <point x="228" y="420" type="curve" smooth="yes"/>
      <point x="116" y="420"/>
      <point x="32" y="366"/>
      <point x="32" y="265" type="curve" smooth="yes"/>
      <point x="32" y="124"/>
      <point x="171" y="0"/>
    </contour>
  </outline>
</glyph>
<glyph name="nuktaguru" format="2">
  <unicode hex="0A3C"/>
  <outline>
    <contour>
      <point x="-283" y="-207" type="curve" smooth="yes"/>
      <point x="-233" y="-207"/>
      <point x="-205" y="-178"/>
      <point x="-205" y="-134" type="curve" smooth="yes"/>
      <point x="-205" y="-91"/>
      <point x="-233" y="-62"/>
      <point x="-283" y="-62" type="curve" smooth="yes"/>
      <point x="-333" y="-62"/>
      <point x="-362" y="-91"/>
      <point x="-362" y="-134" type="curve" smooth="yes"/>
      <point x="-362" y="-178"/>
      <point x="-333" y="-207"/>
    </contour>
  </outline>
</glyph>
<glyph name="aamatraguru" format="2">
  <advance width="258"/>
  <unicode hex="0A3E"/>
  <outline>
    <contour>
      <point x="59" y="242" type="line"/>
      <point x="193" y="242" type="line"/>
      <point x="193" y="512" type="line"/>
      <point x="266" y="512" type="line"/>
      <point x="266" y="622" type="line"/>
      <point x="-7" y="622" type="line"/>
      <point x="-7" y="512" type="line"/>
      <point x="59" y="512" type="line"/>
    </contour>
  </outline>
</glyph>
<glyph name="imatraguru" format="2">
  <advance width="294"/>
  <unicode hex="0A3F"/>
  <outline>
    <contour>
      <point x="80" y="0" type="line"/>
      <point x="214" y="0" type="line"/>
      <point x="214" y="512" type="line"/>
      <point x="302" y="512" type="line"/>
      <point x="302" y="622" type="line"/>
      <point x="214" y="622" type="line"/>
      <point x="214" y="646" type="line" smooth="yes"/>
      <point x="214" y="729"/>
      <point x="227" y="787"/>
      <point x="305" y="787" type="curve" smooth="yes"/>
      <point x="353" y="787"/>
      <point x="384" y="763"/>
      <point x="384" y="707" type="curve" smooth="yes"/>
      <point x="384" y="688"/>
      <point x="383" y="675"/>
      <point x="381" y="663" type="curve"/>
      <point x="514" y="655" type="line"/>
      <point x="518" y="673"/>
      <point x="519" y="692"/>
      <point x="519" y="713" type="curve" smooth="yes"/>
      <point x="519" y="840"/>
      <point x="424" y="896"/>
      <point x="303" y="896" type="curve" smooth="yes"/>
      <point x="148" y="896"/>
      <point x="80" y="814"/>
      <point x="80" y="656" type="curve" smooth="yes"/>
      <point x="80" y="622" type="line"/>
      <point x="-7" y="622" type="line"/>
      <point x="-7" y="512" type="line"/>
      <point x="80" y="512" type="line"/>
    </contour>
  </outline>
</glyph>
<glyph name="iimatraguru" format="2">
  <advance width="294"/>
  <unicode hex="0A40"/>
  <outline>
    <contour>
      <point x="80" y="0" type="line"/>
      <point x="214" y="0" type="line"/>
      <point x="214" y="512" type="line"/>
      <point x="301" y="512" type="line"/>
      <point x="301" y="622" type="line"/>
      <point x="214" y="622" type="line"/>
      <point x="214" y="667" type="line" smooth="yes"/>
      <point x="214" y="819"/>
      <point x="139" y="896"/>
      <point x="-8" y="896" type="curve" smooth="yes"/>
      <point x="-133" y="896"/>
      <point x="-225" y="840"/>
      <point x="-225" y="713" type="curve" smooth="yes"/>
      <point x="-225" y="692"/>
      <point x="-222" y="674"/>
      <point x="-218" y="656" type="curve"/>
      <point x="-86" y="663" type="line"/>
      <point x="-88" y="675"/>
      <point x="-90" y="692"/>
      <point x="-90" y="707" type="curve" smooth="yes"/>
      <point x="-90" y="763"/>
      <point x="-59" y="787"/>
      <point x="-11" y="787" type="curve" smooth="yes"/>
      <point x="66" y="787"/>
      <point x="80" y="731"/>
      <point x="80" y="646" type="curve" smooth="yes"/>
      <point x="80" y="622" type="line"/>
      <point x="-7" y="622" type="line"/>
      <point x="-7" y="512" type="line"/>
      <point x="80" y="512" type="line"/>
    </contour>
  </outline>
</glyph>
<glyph name="umatraguru" format="2">
  <unicode hex="0A41"/>
  <outline>
    <contour>
      <point x="-305" y="-203" type="curve" smooth="yes"/>
      <point x="-208" y="-203"/>
      <point x="-141" y="-178"/>
      <point x="-89" y="-152" type="curve"/>
      <point x="-127" y="-50" type="line"/>
      <point x="-175" y="-75"/>
      <point x="-235" y="-92"/>
      <point x="-305" y="-92" type="curve" smooth="yes"/>
      <point x="-375" y="-92"/>
      <point x="-435" y="-75"/>
      <point x="-482" y="-50" type="curve"/>
      <point x="-521" y="-152" type="line"/>
      <point x="-469" y="-178"/>
      <point x="-401" y="-203"/>
    </contour>
  </outline>
</glyph>
<glyph name="uumatraguru" format="2">
  <unicode hex="0A42"/>
  <outline>
    <contour>
      <point x="-305" y="-163" type="curve" smooth="yes"/>
      <point x="-220" y="-163"/>
      <point x="-146" y="-140"/>
      <point x="-89" y="-113" type="curve"/>
      <point x="-123" y="-27" type="line"/>
      <point x="-168" y="-51"/>
      <point x="-225" y="-70"/>
      <point x="-305" y="-70" type="curve" smooth="yes"/>
      <point x="-381" y="-70"/>
      <point x="-439" y="-53"/>
      <point x="-487" y="-27" type="curve"/>
      <point x="-521" y="-113" type="line"/>
      <point x="-464" y="-140"/>
      <point x="-390" y="-163"/>
    </contour>
    <contour>
      <point x="-305" y="-303" type="curve" smooth="yes"/>
      <point x="-212" y="-303"/>
      <point x="-139" y="-277"/>
      <point x="-89" y="-252" type="curve"/>
      <point x="-121" y="-169" type="line"/>
      <point x="-178" y="-193"/>
      <point x="-226" y="-206"/>
      <point x="-305" y="-206" type="curve" smooth="yes"/>
      <point x="-386" y="-206"/>
      <point x="-432" y="-193"/>
      <point x="-489" y="-169" type="curve"/>
      <point x="-521" y="-252" type="line"/>
      <point x="-469" y="-277"/>
      <point x="-395" y="-303"/>
    </contour>
  </outline>
</glyph>
<glyph name="eematraguru" format="2">
  <unicode hex="0A47"/>
  <outline>
    <contour>
      <point x="-212" y="615" type="curve"/>
      <point x="-85" y="615" type="line"/>
      <point x="-132" y="809"/>
      <point x="-235" y="896"/>
      <point x="-388" y="896" type="curve" smooth="yes"/>
      <point x="-404" y="896"/>
      <point x="-417" y="895"/>
      <point x="-426" y="894" type="curve"/>
      <point x="-419" y="774" type="line"/>
      <point x="-410" y="775"/>
      <point x="-402" y="775"/>
      <point x="-393" y="775" type="curve" smooth="yes"/>
      <point x="-310" y="775"/>
      <point x="-247" y="739"/>
    </contour>
  </outline>
</glyph>
<glyph name="aimatraguru" format="2">
  <unicode hex="0A48"/>
  <outline>
    <contour>
      <point x="-158" y="610" type="curve"/>
      <point x="-75" y="615" type="line"/>
      <point x="-103" y="818"/>
      <point x="-199" y="896"/>
      <point x="-354" y="896" type="curve" smooth="yes"/>
      <point x="-366" y="896"/>
      <point x="-374" y="896"/>
      <point x="-380" y="896" type="curve"/>
      <point x="-376" y="788" type="line"/>
      <point x="-372" y="788"/>
      <point x="-367" y="788"/>
      <point x="-352" y="788" type="curve" smooth="yes"/>
      <point x="-258" y="788"/>
      <point x="-187" y="746"/>
    </contour>
    <contour>
      <point x="-189" y="563" type="curve"/>
      <point x="-128" y="593" type="line"/>
      <point x="-187" y="703"/>
      <point x="-271" y="760"/>
      <point x="-407" y="760" type="curve" smooth="yes"/>
      <point x="-413" y="760"/>
      <point x="-420" y="760"/>
      <point x="-429" y="759" type="curve"/>
      <point x="-424" y="656" type="line"/>
      <point x="-419" y="657"/>
      <point x="-409" y="657"/>
      <point x="-398" y="657" type="curve" smooth="yes"/>
      <point x="-300" y="657"/>
      <point x="-233" y="635"/>
    </contour>
  </outline>
</glyph>
<glyph name="aumatraguru" format="2">
  <unicode hex="0A4C"/>
  <outline>
    <contour>
      <point x="-297" y="671" type="curve"/>
      <point x="-186" y="689" type="line"/>
      <point x="-193" y="709"/>
      <point x="-197" y="722"/>
      <point x="-197" y="737" type="curve" smooth="yes"/>
      <point x="-197" y="770"/>
      <point x="-178" y="787"/>
      <point x="-147" y="787" type="curve" smooth="yes"/>
      <point x="-115" y="787"/>
      <point x="-97" y="771"/>
      <point x="-97" y="737" type="curve" smooth="yes"/>
      <point x="-97" y="722"/>
      <point x="-101" y="708"/>
      <point x="-108" y="689" type="curve"/>
      <point x="3" y="671" type="line"/>
      <point x="14" y="697"/>
      <point x="22" y="732"/>
      <point x="22" y="757" type="curve" smooth="yes"/>
      <point x="22" y="839"/>
      <point x="-41" y="885"/>
      <point x="-146" y="885" type="curve" smooth="yes"/>
      <point x="-248" y="885"/>
      <point x="-316" y="837"/>
      <point x="-316" y="756" type="curve" smooth="yes"/>
      <point x="-316" y="732"/>
      <point x="-309" y="696"/>
    </contour>
    <contour>
      <point x="-338" y="749" type="curve" smooth="yes"/>
      <point x="-306" y="749"/>
      <point x="-263" y="762"/>
      <point x="-228" y="787" type="curve"/>
      <point x="-242" y="867" type="line"/>
      <point x="-271" y="852"/>
      <point x="-294" y="847"/>
      <point x="-316" y="847" type="curve" smooth="yes"/>
      <point x="-349" y="847"/>
      <point x="-368" y="861"/>
      <point x="-382" y="896" type="curve"/>
      <point x="-491" y="867" type="line"/>
      <point x="-461" y="775"/>
      <point x="-417" y="749"/>
    </contour>
  </outline>
</glyph>
<glyph name="halantguru" format="2">
  <unicode hex="0A4D"/>
  <outline>
    <contour>
      <point x="-29" y="-268" type="curve"/>
      <point x="84" y="-232" type="line"/>
      <point x="34" y="-107"/>
      <point x="-43" y="-27"/>
      <point x="-198" y="-27" type="curve" smooth="yes"/>
      <point x="-208" y="-27"/>
      <point x="-218" y="-27"/>
      <point x="-230" y="-28" type="curve"/>
      <point x="-223" y="-149" type="line"/>
      <point x="-217" y="-148"/>
      <point x="-209" y="-148"/>
      <point x="-200" y="-148" type="curve" smooth="yes"/>
      <point x="-127" y="-148"/>
      <point x="-71" y="-174"/>
    </contour>
  </outline>
</glyph>
<glyph name="udaatguru" format="2">
  <unicode hex="0A51"/>
  <outline>
    <contour>
      <point x="102" y="-310" type="curve"/>
      <point x="113" y="-189" type="line"/>
      <point x="107" y="-190"/>
      <point x="97" y="-190"/>
      <point x="90" y="-190" type="curve" smooth="yes"/>
      <point x="7" y="-190"/>
      <point x="-53" y="-156"/>
      <point x="-89" y="-28" type="curve"/>
      <point x="-208" y="-65" type="line"/>
      <point x="-157" y="-235"/>
      <point x="-61" y="-312"/>
      <point x="82" y="-312" type="curve" smooth="yes"/>
      <point x="88" y="-312"/>
      <point x="98" y="-311"/>
    </contour>
  </outline>
</glyph>
<glyph name="januktaguru" format="2">
  <advance width="678"/>
  <unicode hex="0A5B"/>
  <outline>
    <contour>
      <point x="104" y="0" type="line"/>
      <point x="238" y="0" type="line"/>
      <point x="238" y="259" type="line"/>
      <point x="464" y="259" type="line"/>
      <point x="464" y="0" type="line"/>
      <point x="598" y="0" type="line"/>
      <point x="598" y="512" type="line"/>
      <point x="686" y="512" type="line"/>
      <point x="686" y="622" type="line"/>
      <point x="-7" y="622" type="line"/>
      <point x="-7" y="512" type="line"/>
      <point x="464" y="512" type="line"/>
      <point x="464" y="369" type="line"/>
      <point x="238" y="369" type="line"/>
      <point x="238" y="380" type="line" smooth="yes"/>
      <point x="238" y="423"/>
      <point x="216" y="449"/>
      <point x="173" y="449" type="curve" smooth="yes"/>
      <point x="99" y="449"/>
      <point x="27" y="365"/>
      <point x="27" y="311" type="curve" smooth="yes"/>
      <point x="27" y="280"/>
      <point x="44" y="259"/>
      <point x="89" y="259" type="curve" smooth="yes"/>
      <point x="104" y="259" type="line"/>
    </contour>
    <contour>
      <point x="351" y="-8" type="curve" smooth="yes"/>
      <point x="398" y="-8"/>
      <point x="425" y="21"/>
      <point x="425" y="64" type="curve" smooth="yes"/>
      <point x="425" y="107"/>
      <point x="398" y="136"/>
      <point x="351" y="136" type="curve" smooth="yes"/>
      <point x="304" y="136"/>
      <point x="276" y="107"/>
      <point x="276" y="64" type="curve" smooth="yes"/>
      <point x="276" y="21"/>
      <point x="304" y="-8"/>
    </contour>
  </outline>
</glyph>
<glyph name="rraguru" format="2">
  <advance width="614"/>
  <unicode hex="0A5C"/>
  <outline>
    <contour>
      <point x="305" y="68" type="curve" smooth="yes"/>
      <point x="448" y="68"/>
      <point x="576" y="119"/>
      <point x="576" y="223" type="curve" smooth="yes"/>
      <point x="576" y="294"/>
      <point x="539" y="335"/>
      <point x="477" y="366" type="curve"/>
      <point x="523" y="390"/>
      <point x="556" y="426"/>
      <point x="556" y="484" type="curve" smooth="yes"/>
      <point x="556" y="495"/>
      <point x="554" y="510"/>
      <point x="551" y="521" type="curve"/>
      <point x="531" y="512" type="line"/>
      <point x="621" y="512" type="line"/>
      <point x="621" y="622" type="line"/>
      <point x="-7" y="622" type="line"/>
      <point x="-7" y="512" type="line"/>
      <point x="437" y="512" type="line"/>
      <point x="416" y="521" type="line"/>
      <point x="420" y="512"/>
      <point x="422" y="501"/>
      <point x="422" y="492" type="curve" smooth="yes"/>
      <point x="422" y="454"/>
      <point x="388" y="428"/>
      <point x="351" y="419" type="curve"/>
      <point x="302" y="436"/>
      <point x="258" y="442"/>
      <point x="221" y="442" type="curve" smooth="yes"/>
      <point x="156" y="442"/>
      <point x="104" y="421"/>
      <point x="104" y="371" type="curve" smooth="yes"/>
      <point x="104" y="331"/>
      <point x="132" y="293"/>
      <point x="228" y="293" type="curve" smooth="yes"/>
      <point x="265" y="293"/>
      <point x="312" y="298"/>
      <point x="349" y="309" type="curve"/>
      <point x="402" y="299"/>
      <point x="440" y="274"/>
      <point x="440" y="241" type="curve" smooth="yes"/>
      <point x="440" y="199"/>
      <point x="388" y="180"/>
      <point x="299" y="180" type="curve" smooth="yes"/>
      <point x="221" y="180"/>
      <point x="140" y="198"/>
      <point x="71" y="226" type="curve"/>
      <point x="16" y="135" type="line"/>
      <point x="136" y="98" type="line"/>
      <point x="185" y="82"/>
      <point x="241" y="68"/>
    </contour>
    <contour>
      <point x="119" y="-32" type="curve"/>
      <point x="244" y="18" type="line"/>
      <point x="198" y="83"/>
      <point x="157" y="127"/>
      <point x="110" y="163" type="curve"/>
      <point x="16" y="135" type="line"/>
      <point x="60" y="75"/>
      <point x="82" y="40"/>
    </contour>
    <contour>
      <point x="423" y="-33" type="curve"/>
      <point x="549" y="21" type="line"/>
      <point x="512" y="69"/>
      <point x="472" y="107"/>
      <point x="430" y="141" type="curve"/>
      <point x="367" y="124" type="line"/>
      <point x="292" y="134" type="line"/>
      <point x="345" y="84"/>
      <point x="387" y="28"/>
    </contour>
  </outline>
</glyph>
<glyph name="zeroguru" format="2">
  <advance width="583"/>
  <unicode hex="0A66"/>
  <outline>
    <contour>
      <point x="292" y="68" type="curve" smooth="yes"/>
      <point x="451" y="68"/>
      <point x="549" y="167"/>
      <point x="549" y="315" type="curve" smooth="yes"/>
      <point x="549" y="464"/>
      <point x="447" y="563"/>
      <point x="291" y="563" type="curve" smooth="yes"/>
      <point x="140" y="563"/>
      <point x="33" y="465"/>
      <point x="33" y="316" type="curve" smooth="yes"/>
      <point x="33" y="167"/>
      <point x="131" y="68"/>
    </contour>
    <contour>
      <point x="290" y="180" type="curve" smooth="yes"/>
      <point x="212" y="180"/>
      <point x="169" y="232"/>
      <point x="169" y="314" type="curve" smooth="yes"/>
      <point x="169" y="395"/>
      <point x="211" y="451"/>
      <point x="292" y="451" type="curve" smooth="yes"/>
      <point x="369" y="451"/>
      <point x="413" y="399"/>
      <point x="413" y="317" type="curve" smooth="yes"/>
      <point x="413" y="236"/>
      <point x="373" y="180"/>
    </contour>
  </outline>
</glyph>
<glyph name="oneguru" format="2">
  <advance width="583"/>
  <unicode hex="0A67"/>
  <outline>
    <contour>
      <point x="530" y="-9" type="curve"/>
      <point x="546" y="103" type="line"/>
      <point x="497" y="106"/>
      <point x="486" y="122"/>
      <point x="486" y="188" type="curve" smooth="yes"/>
      <point x="486" y="422" type="line" smooth="yes"/>
      <point x="486" y="492"/>
      <point x="476" y="547"/>
      <point x="419" y="589" type="curve" smooth="yes"/>
      <point x="388" y="612"/>
      <point x="343" y="632"/>
      <point x="270" y="632" type="curve" smooth="yes"/>
      <point x="131" y="632"/>
      <point x="57" y="550"/>
      <point x="57" y="452" type="curve" smooth="yes"/>
      <point x="57" y="336"/>
      <point x="134" y="273"/>
      <point x="251" y="273" type="curve" smooth="yes"/>
      <point x="311" y="273"/>
      <point x="354" y="288"/>
      <point x="401" y="317" type="curve"/>
      <point x="390" y="438" type="line"/>
      <point x="364" y="409"/>
      <point x="331" y="384"/>
      <point x="271" y="384" type="curve" smooth="yes"/>
      <point x="219" y="384"/>
      <point x="192" y="409"/>
      <point x="192" y="454" type="curve" smooth="yes"/>
      <point x="192" y="494"/>
      <point x="220" y="521"/>
      <point x="268" y="521" type="curve" smooth="yes"/>
      <point x="292" y="521"/>
      <point x="311" y="515"/>
      <point x="327" y="501" type="curve" smooth="yes"/>
      <point x="347" y="484"/>
      <point x="352" y="452"/>
      <point x="352" y="422" type="curve" smooth="yes"/>
      <point x="352" y="155" type="line" smooth="yes"/>
      <point x="352" y="104"/>
      <point x="357" y="65"/>
      <point x="391" y="31" type="curve" smooth="yes"/>
      <point x="416" y="6"/>
      <point x="465" y="-9"/>
    </contour>
  </outline>
</glyph>
<glyph name="twoguru" format="2">
  <advance width="583"/>
  <unicode hex="0A68"/>
  <outline>
    <contour>
      <point x="216" y="133" type="curve" smooth="yes"/>
      <point x="386" y="133"/>
      <point x="515" y="231"/>
      <point x="515" y="397" type="curve" smooth="yes"/>
      <point x="515" y="539"/>
      <point x="422" y="632"/>
      <point x="252" y="632" type="curve" smooth="yes"/>
      <point x="168" y="632"/>
      <point x="99" y="616"/>
      <point x="37" y="590" type="curve"/>
      <point x="79" y="490" type="line"/>
      <point x="121" y="508"/>
      <point x="176" y="520"/>
      <point x="229" y="520" type="curve" smooth="yes"/>
      <point x="328" y="520"/>
      <point x="379" y="471"/>
      <point x="379" y="392" type="curve" smooth="yes"/>
      <point x="379" y="308"/>
      <point x="309" y="236"/>
      <point x="177" y="236" type="curve"/>
      <point x="230" y="212" type="line"/>
      <point x="303" y="239" type="line"/>
      <point x="257" y="266"/>
      <point x="210" y="292"/>
      <point x="150" y="292" type="curve" smooth="yes"/>
      <point x="92" y="292"/>
      <point x="58" y="262"/>
      <point x="58" y="223" type="curve" smooth="yes"/>
      <point x="58" y="153"/>
      <point x="128" y="133"/>
    </contour>
    <contour>
      <point x="432" y="-21" type="curve"/>
      <point x="523" y="62" type="line"/>
      <point x="464" y="122"/>
      <point x="377" y="178"/>
      <point x="312" y="215" type="curve"/>
      <point x="274" y="216" type="line"/>
      <point x="163" y="180" type="line"/>
      <point x="276" y="118"/>
      <point x="347" y="65"/>
    </contour>
  </outline>
</glyph>
<glyph name="threeguru" format="2">
  <advance width="583"/>
  <unicode hex="0A69"/>
  <outline>
    <contour>
      <point x="414" y="-79" type="curve"/>
      <point x="505" y="4" type="line"/>
      <point x="452" y="60"/>
      <point x="365" y="115"/>
      <point x="294" y="156" type="curve"/>
      <point x="175" y="104" type="line"/>
      <point x="272" y="53"/>
      <point x="332" y="4"/>
    </contour>
    <contour>
      <point x="391" y="332" type="line"/>
      <point x="476" y="372"/>
      <point x="523" y="409"/>
      <point x="523" y="479" type="curve" smooth="yes"/>
      <point x="523" y="585"/>
      <point x="428" y="631"/>
      <point x="273" y="631" type="curve" smooth="yes"/>
      <point x="185" y="631"/>
      <point x="103" y="614"/>
      <point x="37" y="590" type="curve"/>
      <point x="79" y="486" type="line"/>
      <point x="138" y="505"/>
      <point x="204" y="520"/>
      <point x="275" y="520" type="curve" smooth="yes"/>
      <point x="346" y="520"/>
      <point x="387" y="507"/>
      <point x="387" y="469" type="curve" smooth="yes"/>
      <point x="387" y="434"/>
      <point x="343" y="409"/>
      <point x="290" y="407" type="curve"/>
      <point x="375" y="389" type="line"/>
      <point x="301" y="424"/>
      <point x="246" y="434"/>
      <point x="204" y="434" type="curve" smooth="yes"/>
      <point x="139" y="434"/>
      <point x="86" y="415"/>
      <point x="86" y="364" type="curve" smooth="yes"/>
      <point x="86" y="325"/>
      <point x="112" y="289"/>
      <point x="207" y="289" type="curve" smooth="yes"/>
      <point x="257" y="289"/>
      <point x="314" y="297"/>
      <point x="354" y="316" type="curve"/>
      <point x="257" y="312" type="line"/>
      <point x="342" y="304"/>
      <point x="387" y="285"/>
      <point x="387" y="239" type="curve" smooth="yes"/>
      <point x="387" y="189"/>
      <point x="326" y="172"/>
      <point x="206" y="171" type="curve"/>
      <point x="316" y="156" type="line"/>
      <point x="240" y="199"/>
      <point x="197" y="217"/>
      <point x="135" y="217" type="curve" smooth="yes"/>
      <point x="77" y="217"/>
      <point x="47" y="190"/>
      <point x="47" y="153" type="curve" smooth="yes"/>
      <point x="47" y="86"/>
      <point x="117" y="66"/>
      <point x="229" y="66" type="curve" smooth="yes"/>
      <point x="408" y="66"/>
      <point x="527" y="116"/>
      <point x="527" y="229" type="curve" smooth="yes"/>
      <point x="527" y="297"/>
      <point x="494" y="341"/>
      <point x="391" y="383" type="curve"/>
    </contour>
  </outline>
</glyph>
<glyph name="fourguru" format="2">
  <advance width="583"/>
  <unicode hex="0A6A"/>
  <outline>
    <contour>
      <point x="291" y="264" type="curve" smooth="yes"/>
      <point x="453" y="264"/>
      <point x="543" y="334"/>
      <point x="543" y="449" type="curve" smooth="yes"/>
      <point x="543" y="517"/>
      <point x="499" y="602"/>
      <point x="344" y="627" type="curve"/>
      <point x="330" y="512" type="line"/>
      <point x="387" y="502"/>
      <point x="409" y="474"/>
      <point x="409" y="435" type="curve" smooth="yes"/>
      <point x="409" y="385"/>
      <point x="373" y="356"/>
      <point x="289" y="356" type="curve" smooth="yes"/>
      <point x="204" y="356"/>
      <point x="174" y="392"/>
      <point x="174" y="435" type="curve" smooth="yes"/>
      <point x="174" y="474"/>
      <point x="194" y="502"/>
      <point x="253" y="512" type="curve"/>
      <point x="237" y="627" type="line"/>
      <point x="83" y="601"/>
      <point x="40" y="517"/>
      <point x="40" y="446" type="curve" smooth="yes"/>
      <point x="40" y="334"/>
      <point x="130" y="264"/>
    </contour>
    <contour>
      <point x="292" y="-8" type="curve" smooth="yes"/>
      <point x="446" y="-8"/>
      <point x="525" y="65"/>
      <point x="525" y="170" type="curve" smooth="yes"/>
      <point x="525" y="281"/>
      <point x="423" y="334"/>
      <point x="291" y="334" type="curve" smooth="yes"/>
      <point x="160" y="334"/>
      <point x="57" y="283"/>
      <point x="57" y="170" type="curve" smooth="yes"/>
      <point x="57" y="65"/>
      <point x="135" y="-8"/>
    </contour>
    <contour>
      <point x="290" y="103" type="curve" smooth="yes"/>
      <point x="221" y="103"/>
      <point x="191" y="132"/>
      <point x="191" y="175" type="curve" smooth="yes"/>
      <point x="191" y="218"/>
      <point x="220" y="248"/>
      <point x="293" y="248" type="curve" smooth="yes"/>
      <point x="357" y="248"/>
      <point x="391" y="221"/>
      <point x="391" y="177" type="curve" smooth="yes"/>
      <point x="391" y="134"/>
      <point x="365" y="103"/>
    </contour>
  </outline>
</glyph>
<glyph name="fiveguru" format="2">
  <advance width="583"/>
  <unicode hex="0A6B"/>
  <outline>
    <contour>
      <point x="374" y="0" type="line"/>
      <point x="508" y="0" type="line"/>
      <point x="508" y="622" type="line"/>
      <point x="374" y="622" type="line"/>
      <point x="374" y="253" type="line"/>
      <point x="412" y="288" type="line"/>
      <point x="375" y="265"/>
      <point x="342" y="259"/>
      <point x="304" y="259" type="curve" smooth="yes"/>
      <point x="236" y="259"/>
      <point x="188" y="301"/>
      <point x="163" y="394" type="curve"/>
      <point x="152" y="309" type="line"/>
      <point x="202" y="356"/>
      <point x="230" y="398"/>
      <point x="230" y="469" type="curve" smooth="yes"/>
      <point x="230" y="521"/>
      <point x="216" y="574"/>
      <point x="185" y="632" type="curve"/>
      <point x="58" y="587" type="line"/>
      <point x="84" y="536"/>
      <point x="97" y="499"/>
      <point x="97" y="458" type="curve" smooth="yes"/>
      <point x="97" y="405"/>
      <point x="64" y="369"/>
      <point x="27" y="345" type="curve"/>
      <point x="80" y="223"/>
      <point x="161" y="147"/>
      <point x="299" y="147" type="curve" smooth="yes"/>
      <point x="332" y="147"/>
      <point x="369" y="148"/>
      <point x="411" y="166" type="curve"/>
      <point x="374" y="169" type="line"/>
    </contour>
  </outline>
</glyph>
<glyph name="sixguru" format="2">
  <advance width="583"/>
  <unicode hex="0A6C"/>
  <outline>
    <contour>
      <point x="361" y="512" type="curve"/>
      <point x="471" y="537" type="line"/>
      <point x="436" y="573"/>
      <point x="425" y="601"/>
      <point x="425" y="633" type="curve" smooth="yes"/>
      <point x="425" y="658"/>
      <point x="438" y="687"/>
      <point x="489" y="687" type="curve" smooth="yes"/>
      <point x="505" y="687"/>
      <point x="519" y="686"/>
      <point x="528" y="684" type="curve"/>
      <point x="542" y="782" type="line"/>
      <point x="525" y="784"/>
      <point x="496" y="787"/>
      <point x="467" y="787" type="curve" smooth="yes"/>
      <point x="349" y="787"/>
      <point x="296" y="727"/>
      <point x="296" y="658" type="curve" smooth="yes"/>
      <point x="296" y="615"/>
      <point x="307" y="569"/>
    </contour>
    <contour>
      <point x="509" y="134" type="line"/>
      <point x="454" y="116"/>
      <point x="401" y="103"/>
      <point x="328" y="103" type="curve" smooth="yes"/>
      <point x="253" y="103"/>
      <point x="198" y="117"/>
      <point x="198" y="169" type="curve" smooth="yes"/>
      <point x="198" y="207"/>
      <point x="240" y="232"/>
      <point x="336" y="236" type="curve"/>
      <point x="208" y="251" type="line"/>
      <point x="279" y="217"/>
      <point x="337" y="202"/>
      <point x="380" y="202" type="curve" smooth="yes"/>
      <point x="450" y="202"/>
      <point x="497" y="224"/>
      <point x="497" y="274" type="curve" smooth="yes"/>
      <point x="497" y="314"/>
      <point x="472" y="352"/>
      <point x="378" y="352" type="curve" smooth="yes"/>
      <point x="327" y="352"/>
      <point x="281" y="341"/>
      <point x="230" y="321" type="curve"/>
      <point x="319" y="325" type="line"/>
      <point x="258" y="335"/>
      <point x="202" y="349"/>
      <point x="202" y="402" type="curve" smooth="yes"/>
      <point x="202" y="452"/>
      <point x="271" y="467"/>
      <point x="361" y="467" type="curve" smooth="yes"/>
      <point x="392" y="467"/>
      <point x="408" y="465"/>
      <point x="424" y="464" type="curve"/>
      <point x="339" y="502" type="line"/>
      <point x="359" y="451"/>
      <point x="397" y="420"/>
      <point x="461" y="420" type="curve" smooth="yes"/>
      <point x="513" y="420"/>
      <point x="543" y="447"/>
      <point x="543" y="485" type="curve" smooth="yes"/>
      <point x="543" y="545"/>
      <point x="487" y="576"/>
      <point x="348" y="576" type="curve" smooth="yes"/>
      <point x="191" y="576"/>
      <point x="62" y="524"/>
      <point x="62" y="411" type="curve" smooth="yes"/>
      <point x="62" y="337"/>
      <point x="112" y="298"/>
      <point x="192" y="258" type="curve"/>
      <point x="202" y="314" type="line"/>
      <point x="102" y="274"/>
      <point x="63" y="217"/>
      <point x="63" y="156" type="curve" smooth="yes"/>
      <point x="63" y="40"/>
      <point x="158" y="-9"/>
      <point x="316" y="-9" type="curve" smooth="yes"/>
      <point x="406" y="-9"/>
      <point x="484" y="5"/>
      <point x="552" y="30" type="curve"/>
    </contour>
  </outline>
</glyph>
<glyph name="sevenguru" format="2">
  <advance width="583"/>
  <unicode hex="0A6D"/>
  <outline>
    <contour>
      <point x="39" y="-9" type="line"/>
      <point x="332" y="10"/>
      <point x="535" y="147"/>
      <point x="535" y="369" type="curve" smooth="yes"/>
      <point x="535" y="522"/>
      <point x="446" y="632"/>
      <point x="281" y="632" type="curve" smooth="yes"/>
      <point x="135" y="632"/>
      <point x="64" y="553"/>
      <point x="64" y="465" type="curve" smooth="yes"/>
      <point x="64" y="408"/>
      <point x="87" y="357"/>
      <point x="128" y="307" type="curve"/>
      <point x="237" y="366" type="line"/>
      <point x="218" y="386"/>
      <point x="199" y="409"/>
      <point x="199" y="444" type="curve" smooth="yes"/>
      <point x="199" y="493"/>
      <point x="230" y="521"/>
      <point x="282" y="521" type="curve" smooth="yes"/>
      <point x="363" y="521"/>
      <point x="399" y="446"/>
      <point x="399" y="364" type="curve" smooth="yes"/>
      <point x="399" y="210"/>
      <point x="245" y="121"/>
      <point x="26" y="107" type="curve"/>
    </contour>
  </outline>
</glyph>
<glyph name="eightguru" format="2">
  <advance width="583"/>
  <unicode hex="0A6E"/>
  <outline>
    <contour>
      <point x="447" y="0" type="curve" smooth="yes"/>
      <point x="480" y="0"/>
      <point x="514" y="1"/>
      <point x="547" y="5" type="curve"/>
      <point x="537" y="119" type="line"/>
      <point x="510" y="114"/>
      <point x="482" y="111"/>
      <point x="455" y="111" type="curve" smooth="yes"/>
      <point x="366" y="111"/>
      <point x="324" y="125"/>
      <point x="294" y="152" type="curve" smooth="yes"/>
      <point x="262" y="181"/>
      <point x="250" y="219"/>
      <point x="250" y="297" type="curve" smooth="yes"/>
      <point x="250" y="432" type="line"/>
      <point x="543" y="432" type="line"/>
      <point x="543" y="542" type="line"/>
      <point x="250" y="542" type="line"/>
      <point x="250" y="563" type="line" smooth="yes"/>
      <point x="250" y="607"/>
      <point x="230" y="632"/>
      <point x="186" y="632" type="curve" smooth="yes"/>
      <point x="118" y="632"/>
      <point x="35" y="550"/>
      <point x="35" y="487" type="curve" smooth="yes"/>
      <point x="35" y="460"/>
      <point x="49" y="432"/>
      <point x="97" y="432" type="curve" smooth="yes"/>
      <point x="116" y="432" type="line"/>
      <point x="116" y="300" type="line" smooth="yes"/>
      <point x="116" y="186"/>
      <point x="137" y="130"/>
      <point x="181" y="83" type="curve" smooth="yes"/>
      <point x="233" y="28"/>
      <point x="304" y="0"/>
    </contour>
  </outline>
</glyph>
<glyph name="nineguru" format="2">
  <advance width="583"/>
  <unicode hex="0A6F"/>
  <outline>
    <contour>
      <point x="447" y="0" type="curve" smooth="yes"/>
      <point x="480" y="0"/>
      <point x="514" y="1"/>
      <point x="547" y="5" type="curve"/>
      <point x="537" y="119" type="line"/>
      <point x="510" y="114"/>
      <point x="482" y="111"/>
      <point x="455" y="111" type="curve" smooth="yes"/>
      <point x="363" y="111"/>
      <point x="325" y="124"/>
      <point x="294" y="152" type="curve" smooth="yes"/>
      <point x="267" y="177"/>
      <point x="250" y="210"/>
      <point x="250" y="294" type="curve" smooth="yes"/>
      <point x="250" y="432" type="line"/>
      <point x="543" y="432" type="line"/>
      <point x="543" y="542" type="line"/>
      <point x="250" y="542" type="line"/>
      <point x="250" y="563" type="line" smooth="yes"/>
      <point x="250" y="607"/>
      <point x="230" y="632"/>
      <point x="186" y="632" type="curve" smooth="yes"/>
      <point x="118" y="632"/>
      <point x="35" y="550"/>
      <point x="35" y="487" type="curve" smooth="yes"/>
      <point x="35" y="460"/>
      <point x="49" y="432"/>
      <point x="97" y="432" type="curve" smooth="yes"/>
      <point x="116" y="432" type="line"/>
      <point x="116" y="300" type="line" smooth="yes"/>
      <point x="116" y="185"/>
      <point x="137" y="131"/>
      <point x="181" y="83" type="curve" smooth="yes"/>
      <point x="233" y="28"/>
      <point x="304" y="0"/>
    </contour>
    <contour>
      <point x="423" y="512" type="curve"/>
      <point x="534" y="537" type="line"/>
      <point x="499" y="573"/>
      <point x="488" y="601"/>
      <point x="488" y="633" type="curve" smooth="yes"/>
      <point x="488" y="658"/>
      <point x="500" y="687"/>
      <point x="552" y="687" type="curve" smooth="yes"/>
      <point x="567" y="687"/>
      <point x="581" y="686"/>
      <point x="590" y="684" type="curve"/>
      <point x="605" y="782" type="line"/>
      <point x="587" y="784"/>
      <point x="559" y="787"/>
      <point x="530" y="787" type="curve" smooth="yes"/>
      <point x="412" y="787"/>
      <point x="359" y="727"/>
      <point x="359" y="658" type="curve" smooth="yes"/>
      <point x="359" y="615"/>
      <point x="369" y="569"/>
    </contour>
  </outline>
</glyph>
<glyph name="tippiguru" format="2">
  <unicode hex="0A70"/>
  <outline>
    <contour>
      <point x="-297" y="671" type="curve"/>
      <point x="-186" y="689" type="line"/>
      <point x="-193" y="709"/>
      <point x="-197" y="722"/>
      <point x="-197" y="737" type="curve" smooth="yes"/>
      <point x="-197" y="770"/>
      <point x="-178" y="787"/>
      <point x="-147" y="787" type="curve" smooth="yes"/>
      <point x="-115" y="787"/>
      <point x="-97" y="771"/>
      <point x="-97" y="737" type="curve" smooth="yes"/>
      <point x="-97" y="722"/>
      <point x="-101" y="708"/>
      <point x="-108" y="689" type="curve"/>
      <point x="3" y="671" type="line"/>
      <point x="14" y="697"/>
      <point x="22" y="732"/>
      <point x="22" y="757" type="curve" smooth="yes"/>
      <point x="22" y="839"/>
      <point x="-41" y="885"/>
      <point x="-146" y="885" type="curve" smooth="yes"/>
      <point x="-248" y="885"/>
      <point x="-316" y="837"/>
      <point x="-316" y="756" type="curve" smooth="yes"/>
      <point x="-316" y="732"/>
      <point x="-309" y="696"/>
    </contour>
  </outline>
</glyph>
<glyph name="addakguru" format="2">
  <unicode hex="0A71"/>
  <outline>
    <contour>
      <point x="-146" y="676" type="curve" smooth="yes"/>
      <point x="-13" y="676"/>
      <point x="26" y="755"/>
      <point x="27" y="865" type="curve"/>
      <point x="-93" y="874" type="line"/>
      <point x="-94" y="794"/>
      <point x="-111" y="774"/>
      <point x="-147" y="774" type="curve" smooth="yes"/>
      <point x="-182" y="774"/>
      <point x="-200" y="793"/>
      <point x="-200" y="874" type="curve"/>
      <point x="-321" y="865" type="line"/>
      <point x="-320" y="755"/>
      <point x="-280" y="676"/>
    </contour>
  </outline>
</glyph>
<glyph name="iriguru" format="2">
  <advance width="610"/>
  <unicode hex="0A72"/>
  <outline>
    <contour>
      <point x="36" y="208" type="curve"/>
      <point x="98" y="89"/>
      <point x="185" y="0"/>
      <point x="350" y="0" type="curve" smooth="yes"/>
      <point x="431" y="0"/>
      <point x="510" y="16"/>
      <point x="573" y="42" type="curve"/>
      <point x="530" y="150" type="line"/>
      <point x="470" y="123"/>
      <point x="423" y="112"/>
      <point x="364" y="112" type="curve" smooth="yes"/>
      <point x="262" y="112"/>
      <point x="218" y="161"/>
      <point x="166" y="239" type="curve"/>
      <point x="168" y="177" type="line"/>
      <point x="191" y="206"/>
      <point x="225" y="239"/>
      <point x="272" y="256" type="curve" smooth="yes"/>
      <point x="292" y="263"/>
      <point x="313" y="269"/>
      <point x="357" y="269" type="curve" smooth="yes"/>
      <point x="484" y="269" type="line"/>
      <point x="535" y="317" type="line"/>
      <point x="535" y="512" type="line"/>
      <point x="617" y="512" type="line"/>
      <point x="617" y="622" type="line"/>
      <point x="-7" y="622" type="line"/>
      <point x="-7" y="512" type="line"/>
      <point x="54" y="512" type="line"/>
      <point x="54" y="401"/>
      <point x="98" y="328"/>
      <point x="202" y="305" type="curve"/>
      <point x="205" y="336" type="line"/>
      <point x="122" y="310"/>
      <point x="68" y="259"/>
    </contour>
    <contour>
      <point x="296" y="378" type="line" smooth="yes"/>
      <point x="258" y="378"/>
      <point x="236" y="388"/>
      <point x="221" y="404" type="curve" smooth="yes"/>
      <point x="198" y="427"/>
      <point x="189" y="466"/>
      <point x="189" y="512" type="curve"/>
      <point x="401" y="512" type="line"/>
      <point x="401" y="378" type="line"/>
    </contour>
  </outline>
</glyph>
<glyph name="ekonkarguru" format="2">
  <advance width="1556"/>
  <unicode hex="0A74"/>
  <outline>
    <contour>
      <point x="906" y="0" type="curve" smooth="yes"/>
      <point x="1058" y="0"/>
      <point x="1135" y="66"/>
      <point x="1135" y="175" type="curve" smooth="yes"/>
      <point x="1135" y="232"/>
      <point x="1103" y="313"/>
      <point x="974" y="338" type="curve"/>
      <point x="970" y="298" type="line"/>
      <point x="1103" y="324"/>
      <point x="1201" y="399"/>
      <point x="1201" y="570" type="curve"/>
      <point x="1201" y="583" type="line"/>
      <point x="1066" y="564" type="line"/>
      <point x="1066" y="549" type="line"/>
      <point x="1066" y="484"/>
      <point x="1049" y="434"/>
      <point x="990" y="405" type="curve" smooth="yes"/>
      <point x="957" y="389"/>
      <point x="918" y="381"/>
      <point x="832" y="381" type="curve" smooth="yes"/>
      <point x="665" y="381" type="line"/>
      <point x="675" y="271" type="line"/>
      <point x="805" y="271" type="line" smooth="yes"/>
      <point x="907" y="271"/>
      <point x="933" y="264"/>
      <point x="961" y="249" type="curve" smooth="yes"/>
      <point x="985" y="236"/>
      <point x="999" y="214"/>
      <point x="999" y="187" type="curve" smooth="yes"/>
      <point x="999" y="136"/>
      <point x="966" y="110"/>
      <point x="890" y="110" type="curve" smooth="yes"/>
      <point x="793" y="110"/>
      <point x="708" y="167"/>
      <point x="708" y="408" type="curve" smooth="yes"/>
      <point x="708" y="461"/>
      <point x="710" y="493"/>
      <point x="716" y="530" type="curve"/>
      <point x="720" y="580" type="line"/>
      <point x="750" y="698"/>
      <point x="815" y="747"/>
      <point x="908" y="747" type="curve" smooth="yes"/>
      <point x="986" y="747"/>
      <point x="1023" y="720"/>
      <point x="1057" y="665" type="curve"/>
      <point x="1168" y="677" type="line"/>
      <point x="1209" y="745"/>
      <point x="1267" y="771"/>
      <point x="1328" y="771" type="curve" smooth="yes"/>
      <point x="1408" y="771"/>
      <point x="1458" y="732"/>
      <point x="1479" y="665" type="curve"/>
      <point x="1617" y="679" type="line"/>
      <point x="1586" y="813"/>
      <point x="1489" y="883"/>
      <point x="1342" y="883" type="curve" smooth="yes"/>
      <point x="1233" y="883"/>
      <point x="1149" y="845"/>
      <point x="1093" y="758" type="curve"/>
      <point x="1160" y="721" type="line"/>
      <point x="1119" y="807"/>
      <point x="1039" y="857"/>
      <point x="916" y="857" type="curve" smooth="yes"/>
      <point x="736" y="857"/>
      <point x="621" y="761"/>
      <point x="586" y="572" type="curve"/>
      <point x="582" y="543" type="line"/>
      <point x="577" y="505"/>
      <point x="574" y="465"/>
      <point x="574" y="421" type="curve" smooth="yes"/>
      <point x="574" y="127"/>
      <point x="696" y="0"/>
    </contour>
    <contour>
      <point x="537" y="512" type="line"/>
      <point x="1233" y="512" type="line"/>
      <point x="1233" y="622" type="line"/>
      <point x="537" y="622" type="line"/>
    </contour>
    <component base="oneguru" xOffset="-13"/>
  </outline>
</glyph>
<glyph name="yakashguru" format="2">
  <unicode hex="0A75"/>
  <outline>
    <contour>
      <point x="-152" y="-315" type="curve" smooth="yes"/>
      <point x="-72" y="-315"/>
      <point x="-38" y="-269"/>
      <point x="-10" y="-217" type="curve"/>
      <point x="-91" y="-176" type="line"/>
      <point x="-104" y="-206"/>
      <point x="-115" y="-217"/>
      <point x="-135" y="-217" type="curve" smooth="yes"/>
      <point x="-161" y="-217"/>
      <point x="-170" y="-191"/>
      <point x="-170" y="-151" type="curve" smooth="yes"/>
      <point x="-170" y="-115"/>
      <point x="-166" y="-73"/>
      <point x="-163" y="-49" type="curve"/>
      <point x="-280" y="-41" type="line"/>
      <point x="-285" y="-72"/>
      <point x="-290" y="-106"/>
      <point x="-290" y="-147" type="curve" smooth="yes"/>
      <point x="-290" y="-280"/>
      <point x="-215" y="-315"/>
    </contour>
  </outline>
</glyph>
<glyph name="uni0A76" format="2">
  <advance width="303"/>
  <unicode hex="0A76"/>
  <outline>
    <contour>
      <point x="57" y="333" type="curve" smooth="yes"/>
      <point x="57" y="268"/>
      <point x="99" y="242"/>
      <point x="152" y="242" type="curve" smooth="yes"/>
      <point x="203" y="242"/>
      <point x="246" y="268"/>
      <point x="246" y="333" type="curve" smooth="yes"/>
      <point x="246" y="400"/>
      <point x="203" y="424"/>
      <point x="152" y="424" type="curve" smooth="yes"/>
      <point x="99" y="424"/>
      <point x="57" y="400"/>
    </contour>
  </outline>
</glyph>
<glyph name="quoteleft.guru" format="2">
  <advance width="335"/>
  <unicode hex="2018"/>
  <outline>
    <contour>
      <point x="82" y="484" type="line"/>
      <point x="219" y="484" type="line"/>
      <point x="229" y="553"/>
      <point x="249" y="651"/>
      <point x="268" y="729" type="curve"/>
      <point x="161" y="729" type="line"/>
      <point x="128" y="656"/>
      <point x="93" y="566"/>
      <point x="75" y="495" type="curve"/>
    </contour>
  </outline>
</glyph>
<glyph name="quoteright.guru" format="2">
  <advance width="335"/>
  <unicode hex="2019"/>
  <outline>
    <contour>
      <point x="271" y="729" type="line"/>
      <point x="134" y="729" type="line"/>
      <point x="124" y="661"/>
      <point x="103" y="563"/>
      <point x="85" y="484" type="curve"/>
      <point x="192" y="484" type="line"/>
      <point x="225" y="557"/>
      <point x="260" y="647"/>
      <point x="278" y="718" type="curve"/>
    </contour>
  </outline>
</glyph>
<glyph name="quotedblleft.guru" format="2">
  <advance width="563"/>
  <unicode hex="201C"/>
  <outline>
    <contour>
      <point x="82" y="484" type="line"/>
      <point x="219" y="484" type="line"/>
      <point x="229" y="553"/>
      <point x="249" y="651"/>
      <point x="268" y="729" type="curve"/>
      <point x="161" y="729" type="line"/>
      <point x="128" y="656"/>
      <point x="93" y="566"/>
      <point x="75" y="495" type="curve"/>
    </contour>
    <contour>
      <point x="310" y="484" type="line"/>
      <point x="447" y="484" type="line"/>
      <point x="457" y="553"/>
      <point x="478" y="651"/>
      <point x="496" y="729" type="curve"/>
      <point x="389" y="729" type="line"/>
      <point x="356" y="656"/>
      <point x="321" y="566"/>
      <point x="303" y="495" type="curve"/>
    </contour>
  </outline>
</glyph>
<glyph name="quotedblright.guru" format="2">
  <advance width="563"/>
  <unicode hex="201D"/>
  <outline>
    <contour>
      <point x="499" y="729" type="line"/>
      <point x="362" y="729" type="line"/>
      <point x="352" y="661"/>
      <point x="333" y="563"/>
      <point x="313" y="484" type="curve"/>
      <point x="420" y="484" type="line"/>
      <point x="453" y="557"/>
      <point x="488" y="647"/>
      <point x="506" y="718" type="curve"/>
    </contour>
    <contour>
      <point x="271" y="729" type="line"/>
      <point x="134" y="729" type="line"/>
      <point x="124" y="661"/>
      <point x="103" y="563"/>
      <point x="85" y="484" type="curve"/>
      <point x="192" y="484" type="line"/>
      <point x="225" y="557"/>
      <point x="260" y="647"/>
      <point x="278" y="718" type="curve"/>
    </contour>
  </outline>
</glyph>
<glyph name="uni20B9.guru" format="2">
  <advance width="583"/>
  <unicode hex="20B9"/>
  <outline>
    <contour>
      <point x="521" y="521" type="line"/>
      <point x="521" y="622" type="line"/>
      <point x="66" y="622" type="line"/>
      <point x="66" y="521" type="line"/>
      <point x="124" y="521" type="line" smooth="yes"/>
      <point x="175" y="521"/>
      <point x="198" y="517"/>
      <point x="216" y="501" type="curve" smooth="yes"/>
      <point x="234" y="485"/>
      <point x="248" y="459"/>
      <point x="248" y="417" type="curve" smooth="yes"/>
      <point x="248" y="381"/>
      <point x="239" y="354"/>
      <point x="221" y="335" type="curve" smooth="yes"/>
      <point x="203" y="316"/>
      <point x="177" y="308"/>
      <point x="110" y="308" type="curve" smooth="yes"/>
      <point x="84" y="308" type="line"/>
      <point x="66" y="212" type="line"/>
      <point x="246" y="0" type="line"/>
      <point x="411" y="0" type="line"/>
      <point x="200" y="237" type="line"/>
      <point x="200" y="217" type="line"/>
      <point x="314" y="238"/>
      <point x="379" y="307"/>
      <point x="379" y="408" type="curve" smooth="yes"/>
      <point x="379" y="455"/>
      <point x="359" y="500"/>
      <point x="332" y="521" type="curve"/>
    </contour>
    <contour>
      <point x="66" y="469" type="line"/>
      <point x="66" y="368" type="line"/>
      <point x="521" y="368" type="line"/>
      <point x="521" y="469" type="line"/>
    </contour>
  </outline>
</glyph>
<glyph name="minus.guru" format="2">
  <advance width="583"/>
  <unicode hex="2212"/>
  <outline>
    <contour>
      <point x="59" y="376" type="line"/>
      <point x="59" y="270" type="line"/>
      <point x="523" y="270" type="line"/>
      <point x="523" y="376" type="line"/>
    </contour>
  </outline>
</glyph>
<glyph name="uni25CC" format="2">
  <advance width="566"/>
  <unicode hex="25CC"/>
  <outline>
    <contour>
      <point x="412" y="407" type="curve" smooth="yes"/>
      <point x="431" y="407"/>
      <point x="441" y="417"/>
      <point x="441" y="436" type="curve" smooth="yes"/>
      <point x="441" y="456"/>
      <point x="431" y="465"/>
      <point x="412" y="465" type="curve" smooth="yes"/>
      <point x="393" y="465"/>
      <point x="383" y="456"/>
      <point x="383" y="436" type="curve" smooth="yes"/>
      <point x="383" y="417"/>
      <point x="393" y="407"/>
    </contour>
    <contour>
      <point x="153" y="158" type="curve" smooth="yes"/>
      <point x="173" y="158"/>
      <point x="182" y="167"/>
      <point x="182" y="187" type="curve" smooth="yes"/>
      <point x="182" y="207"/>
      <point x="173" y="216"/>
      <point x="153" y="216" type="curve" smooth="yes"/>
      <point x="134" y="216"/>
      <point x="125" y="207"/>
      <point x="125" y="187" type="curve" smooth="yes"/>
      <point x="125" y="167"/>
      <point x="134" y="158"/>
    </contour>
    <contour>
      <point x="109" y="283" type="curve" smooth="yes"/>
      <point x="128" y="283"/>
      <point x="137" y="292"/>
      <point x="137" y="312" type="curve" smooth="yes"/>
      <point x="137" y="331"/>
      <point x="128" y="340"/>
      <point x="109" y="340" type="curve" smooth="yes"/>
      <point x="89" y="340"/>
      <point x="80" y="331"/>
      <point x="80" y="312" type="curve" smooth="yes"/>
      <point x="80" y="292"/>
      <point x="89" y="283"/>
    </contour>
    <contour>
      <point x="282" y="108" type="curve" smooth="yes"/>
      <point x="302" y="108"/>
      <point x="312" y="118"/>
      <point x="312" y="137" type="curve" smooth="yes"/>
      <point x="312" y="157"/>
      <point x="302" y="166"/>
      <point x="282" y="166" type="curve" smooth="yes"/>
      <point x="263" y="166"/>
      <point x="254" y="157"/>
      <point x="254" y="137" type="curve" smooth="yes"/>
      <point x="254" y="118"/>
      <point x="263" y="108"/>
    </contour>
    <contour>
      <point x="153" y="407" type="curve" smooth="yes"/>
      <point x="173" y="407"/>
      <point x="182" y="417"/>
      <point x="182" y="436" type="curve" smooth="yes"/>
      <point x="182" y="456"/>
      <point x="173" y="465"/>
      <point x="153" y="465" type="curve" smooth="yes"/>
      <point x="134" y="465"/>
      <point x="125" y="456"/>
      <point x="125" y="436" type="curve" smooth="yes"/>
      <point x="125" y="417"/>
      <point x="134" y="407"/>
    </contour>
    <contour>
      <point x="412" y="158" type="curve" smooth="yes"/>
      <point x="431" y="158"/>
      <point x="441" y="167"/>
      <point x="441" y="187" type="curve" smooth="yes"/>
      <point x="441" y="207"/>
      <point x="431" y="216"/>
      <point x="412" y="216" type="curve" smooth="yes"/>
      <point x="393" y="216"/>
      <point x="383" y="207"/>
      <point x="383" y="187" type="curve" smooth="yes"/>
      <point x="383" y="167"/>
      <point x="393" y="158"/>
    </contour>
    <contour>
      <point x="282" y="457" type="curve" smooth="yes"/>
      <point x="302" y="457"/>
      <point x="312" y="466"/>
      <point x="312" y="486" type="curve" smooth="yes"/>
      <point x="312" y="505"/>
      <point x="302" y="514"/>
      <point x="282" y="514" type="curve" smooth="yes"/>
      <point x="263" y="514"/>
      <point x="254" y="505"/>
      <point x="254" y="486" type="curve" smooth="yes"/>
      <point x="254" y="466"/>
      <point x="263" y="457"/>
    </contour>
    <contour>
      <point x="457" y="283" type="curve" smooth="yes"/>
      <point x="476" y="283"/>
      <point x="486" y="292"/>
      <point x="486" y="312" type="curve" smooth="yes"/>
      <point x="486" y="331"/>
      <point x="476" y="340"/>
      <point x="457" y="340" type="curve" smooth="yes"/>
      <point x="438" y="340"/>
      <point x="428" y="331"/>
      <point x="428" y="312" type="curve" smooth="yes"/>
      <point x="428" y="292"/>
      <point x="438" y="283"/>
    </contour>
  </outline>
</glyph>
<glyph name="uniA830" format="2">
  <advance width="285"/>
  <unicode hex="A830"/>
  <outline>
    <contour>
      <point x="75" y="0" type="line"/>
      <point x="209" y="0" type="line"/>
      <point x="209" y="622" type="line"/>
      <point x="75" y="622" type="line"/>
    </contour>
  </outline>
</glyph>
<glyph name="uniA835" format="2">
  <advance width="626"/>
  <unicode hex="A835"/>
  <outline>
    <contour>
      <point x="67" y="378" type="line"/>
      <point x="590" y="509" type="line"/>
      <point x="559" y="632" type="line"/>
      <point x="36" y="501" type="line"/>
    </contour>
    <contour>
      <point x="67" y="188" type="line"/>
      <point x="590" y="319" type="line"/>
      <point x="559" y="442" type="line"/>
      <point x="36" y="312" type="line"/>
    </contour>
    <contour>
      <point x="67" y="-1" type="line"/>
      <point x="590" y="129" type="line"/>
      <point x="559" y="253" type="line"/>
      <point x="36" y="122" type="line"/>
    </contour>
  </outline>
</glyph>
<glyph name="uniA837" format="2">
  <advance width="525"/>
  <unicode hex="A837"/>
  <outline>
    <contour>
      <point x="233" y="68" type="curve" smooth="yes"/>
      <point x="335" y="68"/>
      <point x="412" y="137"/>
      <point x="412" y="238" type="curve" smooth="yes"/>
      <point x="412" y="339"/>
      <point x="338" y="403"/>
      <point x="233" y="403" type="curve" smooth="yes"/>
      <point x="201" y="403"/>
      <point x="160" y="375"/>
      <point x="148" y="341" type="curve"/>
      <point x="226" y="320" type="line"/>
      <point x="294" y="360"/>
      <point x="371" y="413"/>
      <point x="432" y="461" type="curve" smooth="yes"/>
      <point x="524" y="534" type="line"/>
      <point x="450" y="623" type="line"/>
      <point x="156" y="395" type="line" smooth="yes"/>
      <point x="73" y="331"/>
      <point x="54" y="292"/>
      <point x="54" y="238" type="curve" smooth="yes"/>
      <point x="54" y="132"/>
      <point x="134" y="68"/>
    </contour>
    <contour>
      <point x="233" y="167" type="curve" smooth="yes"/>
      <point x="191" y="167"/>
      <point x="159" y="195"/>
      <point x="159" y="238" type="curve" smooth="yes"/>
      <point x="159" y="276"/>
      <point x="187" y="308"/>
      <point x="233" y="308" type="curve" smooth="yes"/>
      <point x="276" y="308"/>
      <point x="307" y="278"/>
      <point x="307" y="238" type="curve" smooth="yes"/>
      <point x="307" y="196"/>
      <point x="276" y="167"/>
    </contour>
  </outline>
</glyph>
<glyph name="addakbaraltguru" format="2">
  <advance width="253"/>
  <outline>
    <contour>
      <point x="214" y="676" type="curve" smooth="yes"/>
      <point x="347" y="676"/>
      <point x="387" y="755"/>
      <point x="388" y="865" type="curve"/>
      <point x="267" y="874" type="line"/>
      <point x="266" y="794"/>
      <point x="250" y="774"/>
      <point x="213" y="774" type="curve" smooth="yes"/>
      <point x="178" y="774"/>
      <point x="161" y="793"/>
      <point x="160" y="874" type="curve"/>
      <point x="39" y="865" type="line"/>
      <point x="40" y="755"/>
      <point x="81" y="676"/>
    </contour>
    <contour>
      <point x="-7" y="512" type="line"/>
      <point x="261" y="512" type="line"/>
      <point x="261" y="622" type="line"/>
      <point x="-7" y="622" type="line"/>
    </contour>
  </outline>
</glyph>
<glyph name="aimatraaddakguru" format="2">
  <outline>
    <contour>
      <point x="-158" y="610" type="curve"/>
      <point x="-75" y="615" type="line"/>
      <point x="-122" y="816"/>
      <point x="-218" y="896"/>
      <point x="-374" y="896" type="curve" smooth="yes"/>
      <point x="-385" y="896"/>
      <point x="-394" y="896"/>
      <point x="-400" y="896" type="curve"/>
      <point x="-396" y="788" type="line"/>
      <point x="-392" y="788"/>
      <point x="-386" y="788"/>
      <point x="-372" y="788" type="curve" smooth="yes"/>
      <point x="-278" y="788"/>
      <point x="-195" y="748"/>
    </contour>
    <contour>
      <point x="-189" y="563" type="curve"/>
      <point x="-128" y="593" type="line"/>
      <point x="-187" y="703"/>
      <point x="-297" y="760"/>
      <point x="-427" y="760" type="curve" smooth="yes"/>
      <point x="-433" y="760"/>
      <point x="-442" y="759"/>
      <point x="-449" y="759" type="curve"/>
      <point x="-444" y="656" type="line"/>
      <point x="-438" y="657"/>
      <point x="-428" y="657"/>
      <point x="-417" y="657" type="curve" smooth="yes"/>
      <point x="-319" y="657"/>
      <point x="-250" y="641"/>
    </contour>
    <contour>
      <point x="-15" y="686" type="curve" smooth="yes"/>
      <point x="114" y="686"/>
      <point x="153" y="761"/>
      <point x="154" y="866" type="curve"/>
      <point x="33" y="874" type="line"/>
      <point x="32" y="800"/>
      <point x="16" y="784"/>
      <point x="-16" y="784" type="curve" smooth="yes"/>
      <point x="-46" y="784"/>
      <point x="-64" y="797"/>
      <point x="-65" y="874" type="curve"/>
      <point x="-186" y="866" type="line"/>
      <point x="-175" y="762"/>
      <point x="-129" y="686"/>
    </contour>
  </outline>
</glyph>
<glyph name="aimatrabindiguru" format="2">
  <outline>
    <contour>
      <point x="-158" y="610" type="curve"/>
      <point x="-75" y="615" type="line"/>
      <point x="-103" y="818"/>
      <point x="-199" y="896"/>
      <point x="-354" y="896" type="curve" smooth="yes"/>
      <point x="-366" y="896"/>
      <point x="-374" y="896"/>
      <point x="-380" y="896" type="curve"/>
      <point x="-376" y="788" type="line"/>
      <point x="-372" y="788"/>
      <point x="-367" y="788"/>
      <point x="-352" y="788" type="curve" smooth="yes"/>
      <point x="-258" y="788"/>
      <point x="-187" y="746"/>
    </contour>
    <contour>
      <point x="-189" y="563" type="curve"/>
      <point x="-128" y="593" type="line"/>
      <point x="-187" y="703"/>
      <point x="-271" y="760"/>
      <point x="-407" y="760" type="curve" smooth="yes"/>
      <point x="-413" y="760"/>
      <point x="-422" y="759"/>
      <point x="-429" y="759" type="curve"/>
      <point x="-424" y="656" type="line"/>
      <point x="-419" y="657"/>
      <point x="-409" y="657"/>
      <point x="-398" y="657" type="curve" smooth="yes"/>
      <point x="-300" y="657"/>
      <point x="-233" y="635"/>
    </contour>
    <contour>
      <point x="-39" y="748" type="curve" smooth="yes"/>
      <point x="11" y="748"/>
      <point x="39" y="777"/>
      <point x="39" y="820" type="curve" smooth="yes"/>
      <point x="39" y="864"/>
      <point x="11" y="893"/>
      <point x="-39" y="893" type="curve" smooth="yes"/>
      <point x="-89" y="893"/>
      <point x="-118" y="864"/>
      <point x="-118" y="820" type="curve" smooth="yes"/>
      <point x="-118" y="777"/>
      <point x="-89" y="748"/>
    </contour>
  </outline>
</glyph>
<glyph name="aumatraaddakguru" format="2">
  <outline>
    <contour>
      <point x="-341" y="671" type="curve"/>
      <point x="-229" y="689" type="line"/>
      <point x="-237" y="709"/>
      <point x="-241" y="722"/>
      <point x="-241" y="737" type="curve" smooth="yes"/>
      <point x="-241" y="770"/>
      <point x="-224" y="787"/>
      <point x="-196" y="787" type="curve" smooth="yes"/>
      <point x="-167" y="787"/>
      <point x="-151" y="771"/>
      <point x="-151" y="737" type="curve" smooth="yes"/>
      <point x="-151" y="722"/>
      <point x="-155" y="708"/>
      <point x="-162" y="689" type="curve"/>
      <point x="-51" y="671" type="line"/>
      <point x="-40" y="697"/>
      <point x="-34" y="732"/>
      <point x="-34" y="757" type="curve" smooth="yes"/>
      <point x="-34" y="839"/>
      <point x="-93" y="885"/>
      <point x="-195" y="885" type="curve" smooth="yes"/>
      <point x="-293" y="885"/>
      <point x="-360" y="837"/>
      <point x="-360" y="756" type="curve" smooth="yes"/>
      <point x="-360" y="732"/>
      <point x="-353" y="696"/>
    </contour>
    <contour>
      <point x="-379" y="749" type="curve" smooth="yes"/>
      <point x="-351" y="749"/>
      <point x="-306" y="761"/>
      <point x="-303" y="775" type="curve" smooth="yes"/>
      <point x="-286" y="867" type="line"/>
      <point x="-313" y="852"/>
      <point x="-335" y="847"/>
      <point x="-355" y="847" type="curve" smooth="yes"/>
      <point x="-386" y="847"/>
      <point x="-403" y="861"/>
      <point x="-416" y="896" type="curve"/>
      <point x="-525" y="867" type="line"/>
      <point x="-496" y="775"/>
      <point x="-454" y="749"/>
    </contour>
    <contour>
      <point x="25" y="708" type="curve" smooth="yes"/>
      <point x="154" y="708"/>
      <point x="193" y="784"/>
      <point x="194" y="889" type="curve"/>
      <point x="73" y="896" type="line"/>
      <point x="72" y="823"/>
      <point x="56" y="807"/>
      <point x="24" y="807" type="curve" smooth="yes"/>
      <point x="-6" y="807"/>
      <point x="-24" y="820"/>
      <point x="-25" y="896" type="curve"/>
      <point x="-140" y="889" type="line"/>
      <point x="-132" y="785"/>
      <point x="-89" y="708"/>
    </contour>
  </outline>
</glyph>
<glyph name="aumatrabindiguru" format="2">
  <outline>
    <contour>
      <point x="-361" y="671" type="curve"/>
      <point x="-249" y="689" type="line"/>
      <point x="-257" y="709"/>
      <point x="-260" y="722"/>
      <point x="-260" y="737" type="curve" smooth="yes"/>
      <point x="-260" y="770"/>
      <point x="-241" y="787"/>
      <point x="-211" y="787" type="curve" smooth="yes"/>
      <point x="-179" y="787"/>
      <point x="-161" y="771"/>
      <point x="-161" y="737" type="curve" smooth="yes"/>
      <point x="-161" y="722"/>
      <point x="-165" y="708"/>
      <point x="-171" y="689" type="curve"/>
      <point x="-61" y="671" type="line"/>
      <point x="-49" y="697"/>
      <point x="-41" y="732"/>
      <point x="-41" y="757" type="curve" smooth="yes"/>
      <point x="-41" y="839"/>
      <point x="-104" y="885"/>
      <point x="-209" y="885" type="curve" smooth="yes"/>
      <point x="-311" y="885"/>
      <point x="-380" y="837"/>
      <point x="-380" y="756" type="curve" smooth="yes"/>
      <point x="-380" y="732"/>
      <point x="-373" y="696"/>
    </contour>
    <contour>
      <point x="-402" y="749" type="curve" smooth="yes"/>
      <point x="-370" y="749"/>
      <point x="-325" y="763"/>
      <point x="-323" y="776" type="curve" smooth="yes"/>
      <point x="-306" y="867" type="line"/>
      <point x="-334" y="852"/>
      <point x="-358" y="847"/>
      <point x="-380" y="847" type="curve" smooth="yes"/>
      <point x="-413" y="847"/>
      <point x="-432" y="861"/>
      <point x="-445" y="896" type="curve"/>
      <point x="-554" y="867" type="line"/>
      <point x="-524" y="775"/>
      <point x="-480" y="749"/>
    </contour>
    <contour>
      <point x="40" y="748" type="curve" smooth="yes"/>
      <point x="90" y="748"/>
      <point x="118" y="777"/>
      <point x="118" y="820" type="curve" smooth="yes"/>
      <point x="118" y="864"/>
      <point x="90" y="893"/>
      <point x="40" y="893" type="curve" smooth="yes"/>
      <point x="-10" y="893"/>
      <point x="-39" y="864"/>
      <point x="-39" y="820" type="curve" smooth="yes"/>
      <point x="-39" y="777"/>
      <point x="-10" y="748"/>
    </contour>
  </outline>
</glyph>
<glyph name="baUIguru" format="2">
  <advance width="657"/>
  <outline>
    <contour>
      <point x="33" y="261" type="curve"/>
      <point x="85" y="159"/>
      <point x="169" y="84"/>
      <point x="299" y="84" type="curve" smooth="yes"/>
      <point x="354" y="84"/>
      <point x="398" y="92"/>
      <point x="449" y="114" type="curve"/>
      <point x="443" y="227" type="line"/>
      <point x="413" y="209"/>
      <point x="365" y="196"/>
      <point x="315" y="196" type="curve" smooth="yes"/>
      <point x="243" y="196"/>
      <point x="199" y="228"/>
      <point x="163" y="295" type="curve"/>
      <point x="165" y="231" type="line"/>
      <point x="218" y="300"/>
      <point x="252" y="310"/>
      <point x="341" y="310" type="curve" smooth="yes"/>
      <point x="446" y="310" type="line"/>
      <point x="448" y="418" type="line"/>
      <point x="320" y="418" type="line" smooth="yes"/>
      <point x="256" y="418"/>
      <point x="235" y="429"/>
      <point x="218" y="446" type="curve" smooth="yes"/>
      <point x="195" y="469"/>
      <point x="187" y="508"/>
      <point x="187" y="556" type="curve"/>
      <point x="161" y="512" type="line"/>
      <point x="573" y="512" type="line"/>
      <point x="573" y="622" type="line"/>
      <point x="-7" y="622" type="line"/>
      <point x="-7" y="512" type="line"/>
      <point x="75" y="512" type="line"/>
      <point x="51" y="538" type="line"/>
      <point x="51" y="456"/>
      <point x="90" y="379"/>
      <point x="179" y="349" type="curve"/>
      <point x="187" y="376" type="line"/>
      <point x="127" y="356"/>
      <point x="64" y="305"/>
    </contour>
    <contour>
      <point x="442" y="80" type="line"/>
      <point x="577" y="80" type="line"/>
      <point x="577" y="512" type="line"/>
      <point x="665" y="512" type="line"/>
      <point x="665" y="622" type="line"/>
      <point x="334" y="622" type="line"/>
      <point x="334" y="512" type="line"/>
      <point x="442" y="512" type="line"/>
    </contour>
  </outline>
</glyph>
<glyph name="eematraaddakaltguru" format="2">
  <advance width="57"/>
  <outline>
    <contour>
      <point x="64" y="512" type="line"/>
      <point x="64" y="622" type="line"/>
      <point x="-7" y="622" type="line"/>
      <point x="-7" y="512" type="line"/>
    </contour>
    <component base="eematraaddakguru"/>
  </outline>
</glyph>
<glyph name="eematraaddakguru" format="2">
  <outline>
    <contour>
      <point x="-212" y="615" type="curve"/>
      <point x="-85" y="615" type="line"/>
      <point x="-159" y="821"/>
      <point x="-243" y="896"/>
      <point x="-395" y="896" type="curve" smooth="yes"/>
      <point x="-418" y="896"/>
      <point x="-425" y="896"/>
      <point x="-433" y="895" type="curve"/>
      <point x="-427" y="775" type="line"/>
      <point x="-422" y="775"/>
      <point x="-414" y="775"/>
      <point x="-407" y="775" type="curve" smooth="yes"/>
      <point x="-314" y="775"/>
      <point x="-266" y="752"/>
    </contour>
    <contour>
      <point x="-15" y="686" type="curve" smooth="yes"/>
      <point x="114" y="686"/>
      <point x="153" y="761"/>
      <point x="154" y="866" type="curve"/>
      <point x="33" y="874" type="line"/>
      <point x="32" y="800"/>
      <point x="16" y="784"/>
      <point x="-16" y="784" type="curve" smooth="yes"/>
      <point x="-46" y="784"/>
      <point x="-64" y="797"/>
      <point x="-65" y="874" type="curve"/>
      <point x="-186" y="866" type="line"/>
      <point x="-179" y="765"/>
      <point x="-138" y="686"/>
    </contour>
  </outline>
</glyph>
<glyph name="eematrabindiguru" format="2">
  <outline>
    <contour>
      <point x="-212" y="615" type="curve"/>
      <point x="-85" y="615" type="line"/>
      <point x="-132" y="809"/>
      <point x="-235" y="896"/>
      <point x="-388" y="896" type="curve" smooth="yes"/>
      <point x="-410" y="896"/>
      <point x="-419" y="896"/>
      <point x="-426" y="895" type="curve"/>
      <point x="-419" y="775" type="line"/>
      <point x="-414" y="775"/>
      <point x="-406" y="775"/>
      <point x="-393" y="775" type="curve" smooth="yes"/>
      <point x="-310" y="775"/>
      <point x="-247" y="739"/>
    </contour>
    <contour>
      <point x="-65" y="748" type="curve" smooth="yes"/>
      <point x="-15" y="748"/>
      <point x="13" y="777"/>
      <point x="13" y="820" type="curve" smooth="yes"/>
      <point x="13" y="864"/>
      <point x="-15" y="893"/>
      <point x="-65" y="893" type="curve" smooth="yes"/>
      <point x="-115" y="893"/>
      <point x="-144" y="864"/>
      <point x="-144" y="820" type="curve" smooth="yes"/>
      <point x="-144" y="777"/>
      <point x="-115" y="748"/>
    </contour>
  </outline>
</glyph>
<glyph name="gaUIguru" format="2">
  <advance width="836"/>
  <outline>
    <contour>
      <point x="312" y="30" type="curve" smooth="yes"/>
      <point x="436" y="30"/>
      <point x="493" y="90"/>
      <point x="493" y="205" type="curve" smooth="yes"/>
      <point x="493" y="512" type="line"/>
      <point x="581" y="512" type="line"/>
      <point x="581" y="622" type="line"/>
      <point x="-7" y="622" type="line"/>
      <point x="-7" y="512" type="line"/>
      <point x="359" y="512" type="line"/>
      <point x="359" y="429" type="line"/>
      <point x="261" y="429" type="line" smooth="yes"/>
      <point x="162" y="429"/>
      <point x="109" y="412"/>
      <point x="76" y="382" type="curve" smooth="yes"/>
      <point x="50" y="358"/>
      <point x="32" y="326"/>
      <point x="32" y="282" type="curve" smooth="yes"/>
      <point x="32" y="146"/>
      <point x="155" y="30"/>
    </contour>
    <contour>
      <point x="303" y="140" type="curve" smooth="yes"/>
      <point x="237" y="140"/>
      <point x="167" y="206"/>
      <point x="167" y="262" type="curve" smooth="yes"/>
      <point x="167" y="278"/>
      <point x="169" y="291"/>
      <point x="184" y="303" type="curve" smooth="yes"/>
      <point x="197" y="313"/>
      <point x="219" y="319"/>
      <point x="281" y="319" type="curve" smooth="yes"/>
      <point x="359" y="319" type="line"/>
      <point x="359" y="210" type="line" smooth="yes"/>
      <point x="359" y="175"/>
      <point x="355" y="164"/>
      <point x="347" y="155" type="curve" smooth="yes"/>
      <point x="336" y="144"/>
      <point x="318" y="140"/>
    </contour>
    <contour>
      <point x="622" y="81" type="line"/>
      <point x="756" y="81" type="line"/>
      <point x="756" y="512" type="line"/>
      <point x="844" y="512" type="line"/>
      <point x="844" y="622" type="line"/>
      <point x="535" y="622" type="line"/>
      <point x="535" y="512" type="line"/>
      <point x="622" y="512" type="line"/>
    </contour>
  </outline>
</glyph>
<glyph name="hasubscript1UIguru" format="2">
  <outline>
    <contour>
      <point x="-241" y="-271" type="curve" smooth="yes"/>
      <point x="-191" y="-271"/>
      <point x="-152" y="-258"/>
      <point x="-126" y="-235" type="curve" smooth="yes"/>
      <point x="-96" y="-209"/>
      <point x="-85" y="-169"/>
      <point x="-85" y="-112" type="curve" smooth="yes"/>
      <point x="-85" y="63" type="line"/>
      <point x="-214" y="44" type="line"/>
      <point x="-214" y="-136" type="line" smooth="yes"/>
      <point x="-214" y="-163"/>
      <point x="-220" y="-179"/>
      <point x="-255" y="-179" type="curve" smooth="yes"/>
      <point x="-286" y="-179"/>
      <point x="-333" y="-158"/>
      <point x="-333" y="-135" type="curve" smooth="yes"/>
      <point x="-333" y="-114"/>
      <point x="-317" y="-113"/>
      <point x="-282" y="-113" type="curve"/>
      <point x="-279" y="-22" type="line"/>
      <point x="-286" y="-22" type="line"/>
      <point x="-361" y="-22"/>
      <point x="-383" y="-27"/>
      <point x="-411" y="-43" type="curve" smooth="yes"/>
      <point x="-434" y="-57"/>
      <point x="-449" y="-85"/>
      <point x="-449" y="-111" type="curve" smooth="yes"/>
      <point x="-449" y="-210"/>
      <point x="-359" y="-271"/>
    </contour>
  </outline>
</glyph>
<glyph name="hasubscript1guru" format="2">
  <outline>
    <contour>
      <point x="-241" y="-315" type="curve" smooth="yes"/>
      <point x="-184" y="-315"/>
      <point x="-147" y="-298"/>
      <point x="-125" y="-279" type="curve" smooth="yes"/>
      <point x="-95" y="-253"/>
      <point x="-85" y="-212"/>
      <point x="-85" y="-156" type="curve" smooth="yes"/>
      <point x="-85" y="63" type="line"/>
      <point x="-214" y="44" type="line"/>
      <point x="-214" y="-180" type="line" smooth="yes"/>
      <point x="-214" y="-207"/>
      <point x="-220" y="-223"/>
      <point x="-255" y="-223" type="curve" smooth="yes"/>
      <point x="-290" y="-223"/>
      <point x="-334" y="-201"/>
      <point x="-334" y="-173" type="curve" smooth="yes"/>
      <point x="-334" y="-152"/>
      <point x="-315" y="-148"/>
      <point x="-279" y="-148" type="curve"/>
      <point x="-276" y="-57" type="line"/>
      <point x="-280" y="-57" type="line" smooth="yes"/>
      <point x="-356" y="-57"/>
      <point x="-381" y="-63"/>
      <point x="-410" y="-80" type="curve" smooth="yes"/>
      <point x="-434" y="-94"/>
      <point x="-450" y="-120"/>
      <point x="-450" y="-150" type="curve" smooth="yes"/>
      <point x="-450" y="-251"/>
      <point x="-359" y="-315"/>
    </contour>
  </outline>
</glyph>
<glyph name="hasubscriptUIguru" format="2">
  <outline>
    <contour>
      <point x="-241" y="-271" type="curve" smooth="yes"/>
      <point x="-189" y="-271"/>
      <point x="-149" y="-258"/>
      <point x="-122" y="-235" type="curve" smooth="yes"/>
      <point x="-91" y="-209"/>
      <point x="-80" y="-169"/>
      <point x="-80" y="-112" type="curve" smooth="yes"/>
      <point x="-80" y="0" type="line"/>
      <point x="-214" y="0" type="line"/>
      <point x="-214" y="-136" type="line" smooth="yes"/>
      <point x="-214" y="-163"/>
      <point x="-220" y="-179"/>
      <point x="-255" y="-179" type="curve" smooth="yes"/>
      <point x="-286" y="-179"/>
      <point x="-333" y="-158"/>
      <point x="-333" y="-135" type="curve" smooth="yes"/>
      <point x="-333" y="-114"/>
      <point x="-317" y="-113"/>
      <point x="-282" y="-113" type="curve"/>
      <point x="-279" y="-22" type="line"/>
      <point x="-286" y="-22" type="line"/>
      <point x="-361" y="-22"/>
      <point x="-383" y="-27"/>
      <point x="-411" y="-43" type="curve" smooth="yes"/>
      <point x="-434" y="-57"/>
      <point x="-449" y="-85"/>
      <point x="-449" y="-111" type="curve" smooth="yes"/>
      <point x="-449" y="-210"/>
      <point x="-359" y="-271"/>
    </contour>
  </outline>
</glyph>
<glyph name="hasubscriptguru" format="2">
  <outline>
    <contour>
      <point x="-241" y="-315" type="curve" smooth="yes"/>
      <point x="-189" y="-315"/>
      <point x="-149" y="-302"/>
      <point x="-122" y="-279" type="curve" smooth="yes"/>
      <point x="-91" y="-253"/>
      <point x="-80" y="-213"/>
      <point x="-80" y="-156" type="curve" smooth="yes"/>
      <point x="-80" y="0" type="line"/>
      <point x="-214" y="0" type="line"/>
      <point x="-214" y="-180" type="line" smooth="yes"/>
      <point x="-214" y="-207"/>
      <point x="-220" y="-223"/>
      <point x="-255" y="-223" type="curve" smooth="yes"/>
      <point x="-290" y="-223"/>
      <point x="-334" y="-201"/>
      <point x="-334" y="-173" type="curve" smooth="yes"/>
      <point x="-334" y="-152"/>
      <point x="-315" y="-148"/>
      <point x="-279" y="-148" type="curve"/>
      <point x="-276" y="-57" type="line"/>
      <point x="-280" y="-57" type="line"/>
      <point x="-356" y="-57"/>
      <point x="-381" y="-63"/>
      <point x="-410" y="-80" type="curve" smooth="yes"/>
      <point x="-434" y="-94"/>
      <point x="-450" y="-120"/>
      <point x="-450" y="-150" type="curve" smooth="yes"/>
      <point x="-450" y="-250"/>
      <point x="-360" y="-315"/>
    </contour>
  </outline>
</glyph>
<glyph name="hasubscripthalantguru" format="2">
  <outline>
    <contour>
      <point x="-241" y="-300" type="curve" smooth="yes"/>
      <point x="-189" y="-300"/>
      <point x="-149" y="-287"/>
      <point x="-122" y="-264" type="curve" smooth="yes"/>
      <point x="-91" y="-238"/>
      <point x="-80" y="-198"/>
      <point x="-80" y="-141" type="curve" smooth="yes"/>
      <point x="-80" y="0" type="line"/>
      <point x="-214" y="0" type="line"/>
      <point x="-214" y="-165" type="line" smooth="yes"/>
      <point x="-214" y="-192"/>
      <point x="-220" y="-208"/>
      <point x="-255" y="-208" type="curve" smooth="yes"/>
      <point x="-290" y="-208"/>
      <point x="-334" y="-186"/>
      <point x="-334" y="-158" type="curve" smooth="yes"/>
      <point x="-334" y="-137"/>
      <point x="-315" y="-133"/>
      <point x="-279" y="-133" type="curve"/>
      <point x="-276" y="-42" type="line"/>
      <point x="-280" y="-42" type="line"/>
      <point x="-356" y="-42"/>
      <point x="-381" y="-48"/>
      <point x="-410" y="-65" type="curve" smooth="yes"/>
      <point x="-434" y="-79"/>
      <point x="-450" y="-105"/>
      <point x="-450" y="-135" type="curve" smooth="yes"/>
      <point x="-450" y="-235"/>
      <point x="-360" y="-300"/>
    </contour>
    <contour>
      <point x="86" y="-402" type="curve"/>
      <point x="193" y="-364" type="line"/>
      <point x="139" y="-261"/>
      <point x="61" y="-201"/>
      <point x="-71" y="-201" type="curve" smooth="yes"/>
      <point x="-84" y="-201"/>
      <point x="-95" y="-202"/>
      <point x="-107" y="-204" type="curve"/>
      <point x="-100" y="-320" type="line"/>
      <point x="-93" y="-318"/>
      <point x="-84" y="-318"/>
      <point x="-75" y="-318" type="curve" smooth="yes"/>
      <point x="-2" y="-318"/>
      <point x="38" y="-338"/>
    </contour>
  </outline>
</glyph>
<glyph name="hasubscriptuUIguru" format="2">
  <outline>
    <contour>
      <point x="-241" y="-184" type="curve" smooth="yes"/>
      <point x="-189" y="-184"/>
      <point x="-149" y="-173"/>
      <point x="-122" y="-150" type="curve" smooth="yes"/>
      <point x="-91" y="-124"/>
      <point x="-80" y="-84"/>
      <point x="-80" y="-27" type="curve" smooth="yes"/>
      <point x="-80" y="85" type="line"/>
      <point x="-214" y="85" type="line"/>
      <point x="-214" y="-51" type="line" smooth="yes"/>
      <point x="-214" y="-78"/>
      <point x="-220" y="-94"/>
      <point x="-255" y="-94" type="curve" smooth="yes"/>
      <point x="-286" y="-94"/>
      <point x="-333" y="-73"/>
      <point x="-333" y="-50" type="curve" smooth="yes"/>
      <point x="-333" y="-29"/>
      <point x="-317" y="-28"/>
      <point x="-282" y="-28" type="curve"/>
      <point x="-279" y="63" type="line"/>
      <point x="-286" y="63" type="line"/>
      <point x="-361" y="63"/>
      <point x="-383" y="58"/>
      <point x="-411" y="42" type="curve" smooth="yes"/>
      <point x="-434" y="29"/>
      <point x="-449" y="0"/>
      <point x="-449" y="-26" type="curve" smooth="yes"/>
      <point x="-449" y="-125"/>
      <point x="-359" y="-184"/>
    </contour>
    <contour>
      <point x="-399" y="-271" type="curve" smooth="yes"/>
      <point x="-313" y="-271"/>
      <point x="-242" y="-248"/>
      <point x="-198" y="-221" type="curve"/>
      <point x="-227" y="-133" type="line"/>
      <point x="-280" y="-157"/>
      <point x="-321" y="-171"/>
      <point x="-398" y="-171" type="curve" smooth="yes"/>
      <point x="-474" y="-171"/>
      <point x="-528" y="-155"/>
      <point x="-569" y="-134" type="curve"/>
      <point x="-598" y="-221" type="line"/>
      <point x="-549" y="-248"/>
      <point x="-485" y="-271"/>
    </contour>
  </outline>
</glyph>
<glyph name="hasubscriptuguru" format="2">
  <outline>
    <contour>
      <point x="-241" y="-281" type="curve" smooth="yes"/>
      <point x="-189" y="-281"/>
      <point x="-149" y="-268"/>
      <point x="-122" y="-245" type="curve" smooth="yes"/>
      <point x="-91" y="-219"/>
      <point x="-80" y="-179"/>
      <point x="-80" y="-122" type="curve" smooth="yes"/>
      <point x="-80" y="0" type="line"/>
      <point x="-214" y="0" type="line"/>
      <point x="-214" y="-146" type="line" smooth="yes"/>
      <point x="-214" y="-173"/>
      <point x="-220" y="-189"/>
      <point x="-255" y="-189" type="curve" smooth="yes"/>
      <point x="-290" y="-189"/>
      <point x="-334" y="-167"/>
      <point x="-334" y="-139" type="curve" smooth="yes"/>
      <point x="-334" y="-118"/>
      <point x="-315" y="-114"/>
      <point x="-279" y="-114" type="curve"/>
      <point x="-276" y="-23" type="line"/>
      <point x="-280" y="-23" type="line"/>
      <point x="-356" y="-23"/>
      <point x="-381" y="-29"/>
      <point x="-410" y="-46" type="curve" smooth="yes"/>
      <point x="-434" y="-60"/>
      <point x="-450" y="-86"/>
      <point x="-450" y="-116" type="curve" smooth="yes"/>
      <point x="-450" y="-216"/>
      <point x="-360" y="-281"/>
    </contour>
    <contour>
      <point x="-371" y="-395" type="curve" smooth="yes"/>
      <point x="-274" y="-395"/>
      <point x="-207" y="-370"/>
      <point x="-155" y="-344" type="curve"/>
      <point x="-189" y="-252" type="line"/>
      <point x="-237" y="-276"/>
      <point x="-296" y="-295"/>
      <point x="-371" y="-295" type="curve" smooth="yes"/>
      <point x="-445" y="-295"/>
      <point x="-504" y="-276"/>
      <point x="-552" y="-251" type="curve"/>
      <point x="-587" y="-344" type="line"/>
      <point x="-535" y="-370"/>
      <point x="-467" y="-395"/>
    </contour>
  </outline>
</glyph>
<glyph name="hasubscriptuuUIguru" format="2">
  <outline>
    <contour>
      <point x="-241" y="-184" type="curve" smooth="yes"/>
      <point x="-189" y="-184"/>
      <point x="-149" y="-173"/>
      <point x="-122" y="-150" type="curve" smooth="yes"/>
      <point x="-91" y="-124"/>
      <point x="-80" y="-84"/>
      <point x="-80" y="-27" type="curve" smooth="yes"/>
      <point x="-80" y="85" type="line"/>
      <point x="-214" y="85" type="line"/>
      <point x="-214" y="-51" type="line" smooth="yes"/>
      <point x="-214" y="-78"/>
      <point x="-220" y="-94"/>
      <point x="-255" y="-94" type="curve" smooth="yes"/>
      <point x="-286" y="-94"/>
      <point x="-333" y="-73"/>
      <point x="-333" y="-50" type="curve" smooth="yes"/>
      <point x="-333" y="-29"/>
      <point x="-317" y="-28"/>
      <point x="-282" y="-28" type="curve"/>
      <point x="-279" y="63" type="line"/>
      <point x="-286" y="63" type="line"/>
      <point x="-361" y="63"/>
      <point x="-383" y="58"/>
      <point x="-411" y="42" type="curve" smooth="yes"/>
      <point x="-434" y="29"/>
      <point x="-449" y="0"/>
      <point x="-449" y="-26" type="curve" smooth="yes"/>
      <point x="-449" y="-125"/>
      <point x="-359" y="-184"/>
    </contour>
    <contour>
      <point x="-444" y="-155" type="curve" smooth="yes"/>
      <point x="-386" y="-155"/>
      <point x="-340" y="-145"/>
      <point x="-299" y="-130" type="curve"/>
      <point x="-365" y="-67" type="line"/>
      <point x="-388" y="-72"/>
      <point x="-413" y="-75"/>
      <point x="-444" y="-75" type="curve" smooth="yes"/>
      <point x="-525" y="-75"/>
      <point x="-572" y="-54"/>
      <point x="-615" y="-29" type="curve"/>
      <point x="-644" y="-105" type="line"/>
      <point x="-593" y="-132"/>
      <point x="-531" y="-155"/>
    </contour>
    <contour>
      <point x="-444" y="-271" type="curve" smooth="yes"/>
      <point x="-358" y="-271"/>
      <point x="-287" y="-248"/>
      <point x="-244" y="-221" type="curve"/>
      <point x="-271" y="-148" type="line"/>
      <point x="-324" y="-171"/>
      <point x="-366" y="-186"/>
      <point x="-444" y="-186" type="curve" smooth="yes"/>
      <point x="-519" y="-186"/>
      <point x="-575" y="-170"/>
      <point x="-616" y="-148" type="curve"/>
      <point x="-644" y="-221" type="line"/>
      <point x="-595" y="-248"/>
      <point x="-531" y="-271"/>
    </contour>
  </outline>
</glyph>
<glyph name="hasubscriptuuguru" format="2">
  <outline>
    <contour>
      <point x="-241" y="-281" type="curve" smooth="yes"/>
      <point x="-189" y="-281"/>
      <point x="-149" y="-268"/>
      <point x="-122" y="-245" type="curve" smooth="yes"/>
      <point x="-91" y="-219"/>
      <point x="-80" y="-179"/>
      <point x="-80" y="-122" type="curve" smooth="yes"/>
      <point x="-80" y="0" type="line"/>
      <point x="-214" y="0" type="line"/>
      <point x="-214" y="-146" type="line" smooth="yes"/>
      <point x="-214" y="-173"/>
      <point x="-220" y="-189"/>
      <point x="-255" y="-189" type="curve" smooth="yes"/>
      <point x="-290" y="-189"/>
      <point x="-334" y="-167"/>
      <point x="-334" y="-139" type="curve" smooth="yes"/>
      <point x="-334" y="-118"/>
      <point x="-315" y="-114"/>
      <point x="-279" y="-114" type="curve"/>
      <point x="-276" y="-23" type="line"/>
      <point x="-280" y="-23" type="line"/>
      <point x="-356" y="-23"/>
      <point x="-381" y="-29"/>
      <point x="-410" y="-46" type="curve" smooth="yes"/>
      <point x="-434" y="-60"/>
      <point x="-450" y="-86"/>
      <point x="-450" y="-116" type="curve" smooth="yes"/>
      <point x="-450" y="-216"/>
      <point x="-360" y="-281"/>
    </contour>
    <contour>
      <point x="-401" y="-266" type="curve" smooth="yes"/>
      <point x="-346" y="-266"/>
      <point x="-298" y="-257"/>
      <point x="-256" y="-244" type="curve"/>
      <point x="-323" y="-174" type="line"/>
      <point x="-345" y="-178"/>
      <point x="-371" y="-181"/>
      <point x="-401" y="-181" type="curve" smooth="yes"/>
      <point x="-489" y="-181"/>
      <point x="-536" y="-160"/>
      <point x="-583" y="-135" type="curve"/>
      <point x="-617" y="-216" type="line"/>
      <point x="-562" y="-243"/>
      <point x="-488" y="-266"/>
    </contour>
    <contour>
      <point x="-401" y="-394" type="curve" smooth="yes"/>
      <point x="-309" y="-394"/>
      <point x="-231" y="-370"/>
      <point x="-185" y="-343" type="curve"/>
      <point x="-216" y="-266" type="line"/>
      <point x="-274" y="-289"/>
      <point x="-320" y="-304"/>
      <point x="-401" y="-304" type="curve" smooth="yes"/>
      <point x="-479" y="-304"/>
      <point x="-540" y="-288"/>
      <point x="-585" y="-266" type="curve"/>
      <point x="-617" y="-343" type="line"/>
      <point x="-564" y="-371"/>
      <point x="-496" y="-394"/>
    </contour>
  </outline>
</glyph>
<glyph name="iimatraaddakguru" format="2">
  <advance width="294"/>
  <outline>
    <contour>
      <point x="80" y="0" type="line"/>
      <point x="214" y="0" type="line"/>
      <point x="214" y="512" type="line"/>
      <point x="302" y="512" type="line"/>
      <point x="302" y="622" type="line"/>
      <point x="214" y="622" type="line"/>
      <point x="214" y="653" type="line" smooth="yes"/>
      <point x="214" y="799"/>
      <point x="133" y="896"/>
      <point x="-8" y="896" type="curve" smooth="yes"/>
      <point x="-133" y="896"/>
      <point x="-225" y="840"/>
      <point x="-225" y="713" type="curve" smooth="yes"/>
      <point x="-225" y="692"/>
      <point x="-222" y="674"/>
      <point x="-218" y="656" type="curve"/>
      <point x="-86" y="663" type="line"/>
      <point x="-88" y="675"/>
      <point x="-90" y="692"/>
      <point x="-90" y="707" type="curve" smooth="yes"/>
      <point x="-90" y="763"/>
      <point x="-59" y="787"/>
      <point x="-11" y="787" type="curve" smooth="yes"/>
      <point x="66" y="787"/>
      <point x="80" y="731"/>
      <point x="80" y="646" type="curve" smooth="yes"/>
      <point x="80" y="622" type="line"/>
      <point x="-7" y="622" type="line"/>
      <point x="-7" y="512" type="line"/>
      <point x="80" y="512" type="line"/>
    </contour>
    <contour>
      <point x="260" y="708" type="curve" smooth="yes"/>
      <point x="389" y="708"/>
      <point x="428" y="784"/>
      <point x="429" y="889" type="curve"/>
      <point x="308" y="896" type="line"/>
      <point x="307" y="823"/>
      <point x="291" y="807"/>
      <point x="259" y="807" type="curve" smooth="yes"/>
      <point x="229" y="807"/>
      <point x="211" y="820"/>
      <point x="210" y="896" type="curve"/>
      <point x="94" y="889" type="line"/>
      <point x="100" y="834"/>
      <point x="113" y="788"/>
      <point x="140" y="756" type="curve" smooth="yes"/>
      <point x="164" y="727"/>
      <point x="217" y="708"/>
    </contour>
  </outline>
</glyph>
<glyph name="karaguru" format="2">
  <advance width="658"/>
  <outline>
    <contour>
      <point x="395" y="-268" type="curve"/>
      <point x="474" y="-216" type="line"/>
      <point x="429" y="-156"/>
      <point x="397" y="-125"/>
      <point x="341" y="-91" type="curve"/>
      <point x="346" y="-73"/>
      <point x="350" y="-53"/>
      <point x="350" y="-15" type="curve" smooth="yes"/>
      <point x="350" y="122" type="line"/>
      <point x="219" y="122" type="line"/>
      <point x="219" y="-39" type="line" smooth="yes"/>
      <point x="219" y="-47"/>
      <point x="218" y="-62"/>
      <point x="216" y="-67" type="curve"/>
      <point x="199" y="-64"/>
      <point x="191" y="-64"/>
      <point x="177" y="-64" type="curve" smooth="yes"/>
      <point x="115" y="-64"/>
      <point x="72" y="-84"/>
      <point x="72" y="-138" type="curve" smooth="yes"/>
      <point x="72" y="-192"/>
      <point x="123" y="-215"/>
      <point x="186" y="-215" type="curve" smooth="yes"/>
      <point x="233" y="-215"/>
      <point x="265" y="-198"/>
      <point x="295" y="-173" type="curve"/>
      <point x="333" y="-199"/>
      <point x="367" y="-233"/>
    </contour>
    <component base="kaguru"/>
  </outline>
</glyph>
<glyph name="laUIguru" format="2">
  <advance width="718"/>
  <outline>
    <contour>
      <point x="359" y="261" type="curve"/>
      <point x="520" y="327"/>
      <point x="595" y="444"/>
      <point x="608" y="512" type="curve"/>
      <point x="725" y="512" type="line"/>
      <point x="725" y="622" type="line"/>
      <point x="-7" y="622" type="line"/>
      <point x="-7" y="512" type="line"/>
      <point x="109" y="512" type="line"/>
      <point x="132" y="413"/>
      <point x="229" y="313"/>
    </contour>
    <contour>
      <point x="468" y="512" type="line"/>
      <point x="453" y="442"/>
      <point x="391" y="393"/>
      <point x="320" y="371" type="curve"/>
      <point x="399" y="369" type="line"/>
      <point x="325" y="396"/>
      <point x="261" y="442"/>
      <point x="245" y="512" type="curve"/>
    </contour>
    <contour>
      <point x="32" y="253" type="curve" smooth="yes"/>
      <point x="32" y="179"/>
      <point x="82" y="78"/>
      <point x="269" y="78" type="curve" smooth="yes"/>
      <point x="274" y="78" type="line"/>
      <point x="283" y="191" type="line"/>
      <point x="272" y="191" type="line" smooth="yes"/>
      <point x="204" y="191"/>
      <point x="166" y="213"/>
      <point x="166" y="262" type="curve" smooth="yes"/>
      <point x="166" y="305"/>
      <point x="203" y="340"/>
      <point x="279" y="364" type="curve"/>
      <point x="177" y="440" type="line"/>
      <point x="81" y="393"/>
      <point x="32" y="330"/>
    </contour>
    <contour>
      <point x="686" y="253" type="curve" smooth="yes"/>
      <point x="686" y="330"/>
      <point x="637" y="393"/>
      <point x="541" y="440" type="curve"/>
      <point x="439" y="364" type="line"/>
      <point x="515" y="340"/>
      <point x="552" y="305"/>
      <point x="552" y="262" type="curve" smooth="yes"/>
      <point x="552" y="213"/>
      <point x="514" y="191"/>
      <point x="446" y="191" type="curve" smooth="yes"/>
      <point x="435" y="191" type="line"/>
      <point x="443" y="78" type="line"/>
      <point x="449" y="78" type="line" smooth="yes"/>
      <point x="636" y="78"/>
      <point x="686" y="179"/>
    </contour>
  </outline>
</glyph>
<glyph name="ooaddakguru" format="2">
  <advance width="708"/>
  <outline>
    <contour>
      <point x="389" y="0" type="curve" smooth="yes"/>
      <point x="541" y="0"/>
      <point x="618" y="66"/>
      <point x="618" y="175" type="curve" smooth="yes"/>
      <point x="618" y="232"/>
      <point x="586" y="313"/>
      <point x="457" y="338" type="curve"/>
      <point x="453" y="298" type="line"/>
      <point x="586" y="324"/>
      <point x="684" y="399"/>
      <point x="684" y="570" type="curve"/>
      <point x="684" y="601" type="line"/>
      <point x="549" y="591" type="line"/>
      <point x="549" y="549" type="line"/>
      <point x="549" y="484"/>
      <point x="533" y="434"/>
      <point x="475" y="406" type="curve" smooth="yes"/>
      <point x="440" y="389"/>
      <point x="401" y="381"/>
      <point x="315" y="381" type="curve" smooth="yes"/>
      <point x="148" y="381" type="line"/>
      <point x="158" y="271" type="line"/>
      <point x="288" y="271" type="line" smooth="yes"/>
      <point x="390" y="271"/>
      <point x="416" y="264"/>
      <point x="444" y="249" type="curve" smooth="yes"/>
      <point x="468" y="236"/>
      <point x="482" y="214"/>
      <point x="482" y="187" type="curve" smooth="yes"/>
      <point x="482" y="136"/>
      <point x="449" y="110"/>
      <point x="373" y="110" type="curve" smooth="yes"/>
      <point x="276" y="110"/>
      <point x="191" y="167"/>
      <point x="191" y="408" type="curve" smooth="yes"/>
      <point x="191" y="555"/>
      <point x="202" y="629"/>
      <point x="250" y="678" type="curve" smooth="yes"/>
      <point x="310" y="739"/>
      <point x="402" y="739"/>
      <point x="508" y="739" type="curve" smooth="yes"/>
      <point x="598" y="739" type="line"/>
      <point x="605" y="849" type="line"/>
      <point x="511" y="849" type="line" smooth="yes"/>
      <point x="320" y="849"/>
      <point x="255" y="829"/>
      <point x="189" y="783" type="curve" smooth="yes"/>
      <point x="98" y="719"/>
      <point x="57" y="605"/>
      <point x="57" y="421" type="curve" smooth="yes"/>
      <point x="57" y="127"/>
      <point x="179" y="0"/>
    </contour>
    <contour>
      <point x="-7" y="512" type="line"/>
      <point x="735" y="512" type="line"/>
      <point x="735" y="622" type="line"/>
      <point x="-7" y="622" type="line"/>
    </contour>
    <contour>
      <point x="673" y="676" type="curve" smooth="yes"/>
      <point x="807" y="676"/>
      <point x="840" y="755"/>
      <point x="841" y="865" type="curve"/>
      <point x="721" y="874" type="line"/>
      <point x="720" y="794"/>
      <point x="709" y="774"/>
      <point x="672" y="774" type="curve" smooth="yes"/>
      <point x="641" y="774"/>
      <point x="624" y="793"/>
      <point x="624" y="874" type="curve"/>
      <point x="503" y="865" type="line"/>
      <point x="504" y="755"/>
      <point x="543" y="676"/>
    </contour>
  </outline>
</glyph>
<glyph name="oobindiguru" format="2">
  <advance width="708"/>
  <outline>
    <contour>
      <point x="389" y="0" type="curve" smooth="yes"/>
      <point x="541" y="0"/>
      <point x="618" y="66"/>
      <point x="618" y="175" type="curve" smooth="yes"/>
      <point x="618" y="232"/>
      <point x="586" y="313"/>
      <point x="457" y="338" type="curve"/>
      <point x="453" y="298" type="line"/>
      <point x="586" y="324"/>
      <point x="684" y="399"/>
      <point x="684" y="570" type="curve"/>
      <point x="684" y="601" type="line"/>
      <point x="549" y="591" type="line"/>
      <point x="549" y="549" type="line"/>
      <point x="549" y="484"/>
      <point x="533" y="434"/>
      <point x="475" y="406" type="curve" smooth="yes"/>
      <point x="440" y="389"/>
      <point x="401" y="381"/>
      <point x="315" y="381" type="curve" smooth="yes"/>
      <point x="148" y="381" type="line"/>
      <point x="158" y="271" type="line"/>
      <point x="288" y="271" type="line" smooth="yes"/>
      <point x="390" y="271"/>
      <point x="416" y="264"/>
      <point x="444" y="249" type="curve" smooth="yes"/>
      <point x="468" y="236"/>
      <point x="482" y="214"/>
      <point x="482" y="187" type="curve" smooth="yes"/>
      <point x="482" y="136"/>
      <point x="449" y="110"/>
      <point x="373" y="110" type="curve" smooth="yes"/>
      <point x="276" y="110"/>
      <point x="190" y="167"/>
      <point x="190" y="408" type="curve" smooth="yes"/>
      <point x="190" y="555"/>
      <point x="201" y="629"/>
      <point x="249" y="678" type="curve" smooth="yes"/>
      <point x="309" y="739"/>
      <point x="401" y="739"/>
      <point x="508" y="739" type="curve" smooth="yes"/>
      <point x="540" y="739" type="line"/>
      <point x="554" y="849" type="line"/>
      <point x="511" y="849" type="line" smooth="yes"/>
      <point x="320" y="849"/>
      <point x="255" y="829"/>
      <point x="189" y="783" type="curve" smooth="yes"/>
      <point x="98" y="719"/>
      <point x="57" y="605"/>
      <point x="57" y="421" type="curve" smooth="yes"/>
      <point x="57" y="127"/>
      <point x="179" y="0"/>
    </contour>
    <contour>
      <point x="-7" y="512" type="line"/>
      <point x="735" y="512" type="line"/>
      <point x="735" y="622" type="line"/>
      <point x="-7" y="622" type="line"/>
    </contour>
    <contour>
      <point x="647" y="655" type="curve" smooth="yes"/>
      <point x="697" y="655"/>
      <point x="725" y="684"/>
      <point x="725" y="728" type="curve" smooth="yes"/>
      <point x="725" y="771"/>
      <point x="697" y="800"/>
      <point x="647" y="800" type="curve" smooth="yes"/>
      <point x="597" y="800"/>
      <point x="568" y="771"/>
      <point x="568" y="728" type="curve" smooth="yes"/>
      <point x="568" y="684"/>
      <point x="597" y="655"/>
    </contour>
  </outline>
</glyph>
<glyph name="oomatraaddakguru" format="2">
  <outline>
    <contour>
      <point x="-208" y="615" type="curve"/>
      <point x="-91" y="615" type="line"/>
      <point x="-98" y="761"/>
      <point x="-168" y="824"/>
      <point x="-250" y="824" type="curve" smooth="yes"/>
      <point x="-283" y="824"/>
      <point x="-308" y="819"/>
      <point x="-333" y="819" type="curve" smooth="yes"/>
      <point x="-369" y="819"/>
      <point x="-387" y="834"/>
      <point x="-405" y="896" type="curve"/>
      <point x="-513" y="867" type="line"/>
      <point x="-478" y="749"/>
      <point x="-445" y="709"/>
      <point x="-350" y="709" type="curve" smooth="yes"/>
      <point x="-328" y="709"/>
      <point x="-304" y="714"/>
      <point x="-283" y="714" type="curve" smooth="yes"/>
      <point x="-248" y="714"/>
      <point x="-222" y="699"/>
    </contour>
    <contour>
      <point x="-15" y="686" type="curve" smooth="yes"/>
      <point x="114" y="686"/>
      <point x="153" y="761"/>
      <point x="154" y="866" type="curve"/>
      <point x="33" y="874" type="line"/>
      <point x="32" y="800"/>
      <point x="16" y="784"/>
      <point x="-16" y="784" type="curve" smooth="yes"/>
      <point x="-46" y="784"/>
      <point x="-64" y="797"/>
      <point x="-65" y="874" type="curve"/>
      <point x="-186" y="866" type="line"/>
      <point x="-176" y="762"/>
      <point x="-129" y="686"/>
    </contour>
  </outline>
</glyph>
<glyph name="oomatrabindi1guru" format="2">
  <outline>
    <contour>
      <point x="-208" y="615" type="curve"/>
      <point x="-91" y="615" type="line"/>
      <point x="-94" y="771"/>
      <point x="-151" y="824"/>
      <point x="-225" y="824" type="curve" smooth="yes"/>
      <point x="-254" y="824"/>
      <point x="-275" y="819"/>
      <point x="-300" y="819" type="curve" smooth="yes"/>
      <point x="-329" y="819"/>
      <point x="-346" y="830"/>
      <point x="-360" y="896" type="curve"/>
      <point x="-469" y="870" type="line"/>
      <point x="-438" y="751"/>
      <point x="-409" y="709"/>
      <point x="-331" y="709" type="curve" smooth="yes"/>
      <point x="-308" y="709"/>
      <point x="-287" y="714"/>
      <point x="-269" y="714" type="curve" smooth="yes"/>
      <point x="-235" y="714"/>
      <point x="-218" y="696"/>
    </contour>
    <contour>
      <point x="-42" y="748" type="curve" smooth="yes"/>
      <point x="8" y="748"/>
      <point x="37" y="777"/>
      <point x="37" y="820" type="curve" smooth="yes"/>
      <point x="37" y="864"/>
      <point x="8" y="893"/>
      <point x="-42" y="893" type="curve" smooth="yes"/>
      <point x="-91" y="893"/>
      <point x="-120" y="864"/>
      <point x="-120" y="820" type="curve" smooth="yes"/>
      <point x="-120" y="777"/>
      <point x="-91" y="748"/>
    </contour>
  </outline>
</glyph>
<glyph name="oomatrabindiguru" format="2">
  <outline>
    <contour>
      <point x="-208" y="615" type="curve"/>
      <point x="-91" y="615" type="line"/>
      <point x="-92" y="772"/>
      <point x="-156" y="824"/>
      <point x="-245" y="824" type="curve" smooth="yes"/>
      <point x="-278" y="824"/>
      <point x="-302" y="819"/>
      <point x="-327" y="819" type="curve" smooth="yes"/>
      <point x="-364" y="819"/>
      <point x="-382" y="834"/>
      <point x="-399" y="896" type="curve"/>
      <point x="-508" y="867" type="line"/>
      <point x="-473" y="749"/>
      <point x="-439" y="709"/>
      <point x="-344" y="709" type="curve" smooth="yes"/>
      <point x="-322" y="709"/>
      <point x="-299" y="714"/>
      <point x="-277" y="714" type="curve" smooth="yes"/>
      <point x="-242" y="714"/>
      <point x="-218" y="699"/>
    </contour>
    <contour>
      <point x="-47" y="748" type="curve" smooth="yes"/>
      <point x="3" y="748"/>
      <point x="31" y="777"/>
      <point x="31" y="820" type="curve" smooth="yes"/>
      <point x="31" y="864"/>
      <point x="3" y="893"/>
      <point x="-47" y="893" type="curve" smooth="yes"/>
      <point x="-97" y="893"/>
      <point x="-125" y="864"/>
      <point x="-125" y="820" type="curve" smooth="yes"/>
      <point x="-125" y="777"/>
      <point x="-97" y="748"/>
    </contour>
  </outline>
</glyph>
<glyph name="phuunuktaUIguru" format="2">
  <advance width="634"/>
  <outline>
    <contour>
      <point x="371" y="-150" type="curve" smooth="yes"/>
      <point x="449" y="-150"/>
      <point x="511" y="-127"/>
      <point x="564" y="-100" type="curve"/>
      <point x="533" y="-20" type="line"/>
      <point x="491" y="-43"/>
      <point x="444" y="-65"/>
      <point x="371" y="-65" type="curve" smooth="yes"/>
      <point x="299" y="-65"/>
      <point x="254" y="-44"/>
      <point x="210" y="-20" type="curve"/>
      <point x="180" y="-100" type="line"/>
      <point x="231" y="-127"/>
      <point x="293" y="-150"/>
    </contour>
    <contour>
      <point x="371" y="-271" type="curve" smooth="yes"/>
      <point x="449" y="-271"/>
      <point x="520" y="-248"/>
      <point x="564" y="-221" type="curve"/>
      <point x="535" y="-143" type="line"/>
      <point x="482" y="-167"/>
      <point x="441" y="-181"/>
      <point x="372" y="-181" type="curve" smooth="yes"/>
      <point x="304" y="-181"/>
      <point x="250" y="-165"/>
      <point x="209" y="-144" type="curve"/>
      <point x="180" y="-221" type="line"/>
      <point x="229" y="-248"/>
      <point x="293" y="-271"/>
    </contour>
    <component base="phaguru"/>
    <component base="nuktaguru" xOffset="383" yOffset="98"/>
  </outline>
</glyph>
<glyph name="raUIguru" format="2">
  <advance width="623"/>
  <outline>
    <contour>
      <point x="343" y="68" type="curve" smooth="yes"/>
      <point x="485" y="68"/>
      <point x="543" y="127"/>
      <point x="543" y="265" type="curve" smooth="yes"/>
      <point x="543" y="512" type="line"/>
      <point x="630" y="512" type="line"/>
      <point x="630" y="622" type="line"/>
      <point x="-7" y="622" type="line"/>
      <point x="-7" y="512" type="line"/>
      <point x="409" y="512" type="line"/>
      <point x="409" y="438" type="line"/>
      <point x="275" y="438" type="line" smooth="yes"/>
      <point x="164" y="438"/>
      <point x="115" y="424"/>
      <point x="79" y="396" type="curve" smooth="yes"/>
      <point x="51" y="375"/>
      <point x="32" y="342"/>
      <point x="32" y="302" type="curve" smooth="yes"/>
      <point x="32" y="171"/>
      <point x="176" y="68"/>
    </contour>
    <contour>
      <point x="333" y="178" type="curve" smooth="yes"/>
      <point x="262" y="178"/>
      <point x="167" y="226"/>
      <point x="167" y="281" type="curve" smooth="yes"/>
      <point x="167" y="293"/>
      <point x="170" y="305"/>
      <point x="180" y="313" type="curve" smooth="yes"/>
      <point x="193" y="324"/>
      <point x="212" y="328"/>
      <point x="255" y="328" type="curve" smooth="yes"/>
      <point x="409" y="328" type="line"/>
      <point x="409" y="250" type="line" smooth="yes"/>
      <point x="409" y="214"/>
      <point x="403" y="203"/>
      <point x="393" y="194" type="curve" smooth="yes"/>
      <point x="379" y="182"/>
      <point x="357" y="178"/>
    </contour>
  </outline>
</glyph>
<glyph name="rasubscript1guru" format="2">
  <outline>
    <contour>
      <point x="-37" y="-268" type="curve"/>
      <point x="42" y="-216" type="line"/>
      <point x="-3" y="-156"/>
      <point x="-37" y="-123"/>
      <point x="-93" y="-90" type="curve"/>
      <point x="-88" y="-68"/>
      <point x="-85" y="-48"/>
      <point x="-85" y="6" type="curve" smooth="yes"/>
      <point x="-85" y="63" type="line"/>
      <point x="-214" y="44" type="line"/>
      <point x="-214" y="-39" type="line" smooth="yes"/>
      <point x="-214" y="-47"/>
      <point x="-215" y="-61"/>
      <point x="-216" y="-67" type="curve"/>
      <point x="-232" y="-64"/>
      <point x="-241" y="-64"/>
      <point x="-255" y="-64" type="curve" smooth="yes"/>
      <point x="-316" y="-64"/>
      <point x="-360" y="-84"/>
      <point x="-360" y="-138" type="curve" smooth="yes"/>
      <point x="-360" y="-192"/>
      <point x="-309" y="-215"/>
      <point x="-246" y="-215" type="curve" smooth="yes"/>
      <point x="-199" y="-215"/>
      <point x="-167" y="-198"/>
      <point x="-137" y="-173" type="curve"/>
      <point x="-99" y="-199"/>
      <point x="-64" y="-233"/>
    </contour>
  </outline>
</glyph>
<glyph name="rasubscriptguru" format="2">
  <outline>
    <contour>
      <point x="-37" y="-268" type="curve"/>
      <point x="42" y="-216" type="line"/>
      <point x="-3" y="-156"/>
      <point x="-35" y="-125"/>
      <point x="-91" y="-91" type="curve"/>
      <point x="-84" y="-73"/>
      <point x="-80" y="-53"/>
      <point x="-80" y="-7" type="curve" smooth="yes"/>
      <point x="-80" y="0" type="line"/>
      <point x="-214" y="0" type="line"/>
      <point x="-214" y="-39" type="line" smooth="yes"/>
      <point x="-214" y="-47"/>
      <point x="-215" y="-62"/>
      <point x="-216" y="-67" type="curve"/>
      <point x="-229" y="-65"/>
      <point x="-241" y="-64"/>
      <point x="-255" y="-64" type="curve" smooth="yes"/>
      <point x="-316" y="-64"/>
      <point x="-360" y="-84"/>
      <point x="-360" y="-138" type="curve" smooth="yes"/>
      <point x="-360" y="-192"/>
      <point x="-309" y="-215"/>
      <point x="-246" y="-215" type="curve" smooth="yes"/>
      <point x="-199" y="-215"/>
      <point x="-167" y="-198"/>
      <point x="-137" y="-173" type="curve"/>
      <point x="-99" y="-199"/>
      <point x="-64" y="-233"/>
    </contour>
  </outline>
</glyph>
<glyph name="rasubscripthalantguru" format="2">
  <outline>
    <contour>
      <point x="-37" y="-236" type="curve"/>
      <point x="42" y="-185" type="line"/>
      <point x="-3" y="-125"/>
      <point x="-35" y="-93"/>
      <point x="-91" y="-60" type="curve"/>
      <point x="-84" y="-42"/>
      <point x="-80" y="-22"/>
      <point x="-80" y="-3" type="curve" smooth="yes"/>
      <point x="-80" y="0" type="line"/>
      <point x="-214" y="0" type="line"/>
      <point x="-214" y="-7" type="line" smooth="yes"/>
      <point x="-214" y="-16"/>
      <point x="-215" y="-31"/>
      <point x="-217" y="-37" type="curve"/>
      <point x="-233" y="-34"/>
      <point x="-241" y="-33"/>
      <point x="-255" y="-33" type="curve" smooth="yes"/>
      <point x="-316" y="-33"/>
      <point x="-360" y="-53"/>
      <point x="-360" y="-107" type="curve" smooth="yes"/>
      <point x="-360" y="-161"/>
      <point x="-309" y="-184"/>
      <point x="-246" y="-184" type="curve" smooth="yes"/>
      <point x="-199" y="-184"/>
      <point x="-167" y="-167"/>
      <point x="-137" y="-142" type="curve"/>
      <point x="-99" y="-167"/>
      <point x="-64" y="-202"/>
    </contour>
    <contour>
      <point x="-42" y="-397" type="curve"/>
      <point x="62" y="-353" type="line"/>
      <point x="1" y="-258"/>
      <point x="-66" y="-200"/>
      <point x="-206" y="-200" type="curve" smooth="yes"/>
      <point x="-214" y="-200"/>
      <point x="-226" y="-200"/>
      <point x="-241" y="-201" type="curve"/>
      <point x="-234" y="-317" type="line"/>
      <point x="-226" y="-316"/>
      <point x="-220" y="-316"/>
      <point x="-210" y="-316" type="curve" smooth="yes"/>
      <point x="-130" y="-316"/>
      <point x="-91" y="-333"/>
    </contour>
  </outline>
</glyph>
<glyph name="rasubscriptuUIguru" format="2">
  <outline>
    <contour>
      <point x="-37" y="-237" type="curve"/>
      <point x="42" y="-185" type="line"/>
      <point x="-3" y="-125"/>
      <point x="-35" y="-94"/>
      <point x="-91" y="-61" type="curve"/>
      <point x="-84" y="-42"/>
      <point x="-80" y="-22"/>
      <point x="-80" y="0" type="curve"/>
      <point x="-214" y="0" type="line"/>
      <point x="-214" y="-8" type="line" smooth="yes"/>
      <point x="-214" y="-16"/>
      <point x="-214" y="-31"/>
      <point x="-216" y="-37" type="curve"/>
      <point x="-232" y="-34"/>
      <point x="-241" y="-33"/>
      <point x="-255" y="-33" type="curve" smooth="yes"/>
      <point x="-316" y="-33"/>
      <point x="-360" y="-53"/>
      <point x="-360" y="-107" type="curve" smooth="yes"/>
      <point x="-360" y="-161"/>
      <point x="-309" y="-185"/>
      <point x="-246" y="-185" type="curve" smooth="yes"/>
      <point x="-199" y="-185"/>
      <point x="-167" y="-167"/>
      <point x="-137" y="-143" type="curve"/>
      <point x="-99" y="-168"/>
      <point x="-64" y="-202"/>
    </contour>
    <contour>
      <point x="-398" y="-271" type="curve" smooth="yes"/>
      <point x="-312" y="-271"/>
      <point x="-241" y="-248"/>
      <point x="-198" y="-221" type="curve"/>
      <point x="-230" y="-133" type="line"/>
      <point x="-283" y="-157"/>
      <point x="-323" y="-171"/>
      <point x="-397" y="-171" type="curve" smooth="yes"/>
      <point x="-471" y="-171"/>
      <point x="-524" y="-155"/>
      <point x="-565" y="-134" type="curve"/>
      <point x="-598" y="-221" type="line"/>
      <point x="-548" y="-248"/>
      <point x="-485" y="-271"/>
    </contour>
  </outline>
</glyph>
<glyph name="rasubscriptuguru" format="2">
  <outline>
    <contour>
      <point x="-37" y="-268" type="curve"/>
      <point x="42" y="-216" type="line"/>
      <point x="-3" y="-156"/>
      <point x="-35" y="-125"/>
      <point x="-91" y="-91" type="curve"/>
      <point x="-84" y="-73"/>
      <point x="-80" y="-53"/>
      <point x="-80" y="-31" type="curve" smooth="yes"/>
      <point x="-80" y="0" type="line"/>
      <point x="-214" y="0" type="line"/>
      <point x="-214" y="-39" type="line" smooth="yes"/>
      <point x="-214" y="-47"/>
      <point x="-214" y="-62"/>
      <point x="-216" y="-67" type="curve"/>
      <point x="-232" y="-64"/>
      <point x="-241" y="-64"/>
      <point x="-255" y="-64" type="curve" smooth="yes"/>
      <point x="-316" y="-64"/>
      <point x="-360" y="-84"/>
      <point x="-360" y="-138" type="curve" smooth="yes"/>
      <point x="-360" y="-192"/>
      <point x="-309" y="-215"/>
      <point x="-246" y="-215" type="curve" smooth="yes"/>
      <point x="-199" y="-215"/>
      <point x="-167" y="-198"/>
      <point x="-137" y="-173" type="curve"/>
      <point x="-99" y="-199"/>
      <point x="-64" y="-233"/>
    </contour>
    <contour>
      <point x="-305" y="-375" type="curve" smooth="yes"/>
      <point x="-208" y="-375"/>
      <point x="-141" y="-350"/>
      <point x="-89" y="-324" type="curve"/>
      <point x="-127" y="-222" type="line"/>
      <point x="-175" y="-247"/>
      <point x="-235" y="-264"/>
      <point x="-305" y="-264" type="curve" smooth="yes"/>
      <point x="-375" y="-264"/>
      <point x="-435" y="-247"/>
      <point x="-482" y="-222" type="curve"/>
      <point x="-521" y="-324" type="line"/>
      <point x="-469" y="-350"/>
      <point x="-401" y="-375"/>
    </contour>
  </outline>
</glyph>
<glyph name="rasubscriptuuUIguru" format="2">
  <outline>
    <contour>
      <point x="-37" y="-152" type="curve"/>
      <point x="42" y="-100" type="line"/>
      <point x="-3" y="-40"/>
      <point x="-35" y="-9"/>
      <point x="-91" y="24" type="curve"/>
      <point x="-84" y="43"/>
      <point x="-80" y="63"/>
      <point x="-80" y="85" type="curve"/>
      <point x="-214" y="85" type="line"/>
      <point x="-214" y="77" type="line" smooth="yes"/>
      <point x="-214" y="69"/>
      <point x="-214" y="54"/>
      <point x="-216" y="48" type="curve"/>
      <point x="-232" y="51"/>
      <point x="-241" y="52"/>
      <point x="-255" y="52" type="curve" smooth="yes"/>
      <point x="-316" y="52"/>
      <point x="-360" y="32"/>
      <point x="-360" y="-22" type="curve" smooth="yes"/>
      <point x="-360" y="-76"/>
      <point x="-309" y="-100"/>
      <point x="-246" y="-100" type="curve" smooth="yes"/>
      <point x="-199" y="-100"/>
      <point x="-167" y="-83"/>
      <point x="-137" y="-58" type="curve"/>
      <point x="-99" y="-83"/>
      <point x="-64" y="-117"/>
    </contour>
    <contour>
      <point x="-349" y="-155" type="curve" smooth="yes"/>
      <point x="-263" y="-155"/>
      <point x="-201" y="-132"/>
      <point x="-149" y="-105" type="curve"/>
      <point x="-178" y="-29" type="line"/>
      <point x="-220" y="-53"/>
      <point x="-268" y="-75"/>
      <point x="-349" y="-75" type="curve" smooth="yes"/>
      <point x="-430" y="-75"/>
      <point x="-477" y="-54"/>
      <point x="-520" y="-29" type="curve"/>
      <point x="-549" y="-105" type="line"/>
      <point x="-498" y="-132"/>
      <point x="-436" y="-155"/>
    </contour>
    <contour>
      <point x="-349" y="-271" type="curve" smooth="yes"/>
      <point x="-263" y="-271"/>
      <point x="-192" y="-248"/>
      <point x="-149" y="-221" type="curve"/>
      <point x="-176" y="-148" type="line"/>
      <point x="-229" y="-171"/>
      <point x="-271" y="-186"/>
      <point x="-349" y="-186" type="curve" smooth="yes"/>
      <point x="-424" y="-186"/>
      <point x="-480" y="-170"/>
      <point x="-521" y="-148" type="curve"/>
      <point x="-549" y="-221" type="line"/>
      <point x="-500" y="-248"/>
      <point x="-436" y="-271"/>
    </contour>
  </outline>
</glyph>
